<svg height="700pt" preserveAspectRatio="xMidYMid meet" viewBox="0 0 700 700" width="700pt" xmlns="http://www.w3.org/2000/svg"><g transform="matrix(.1 0 0 -.1 0 700)"><path d="m2085 5530c-142-37-268-138-331-265-19-39-36-78-38-86-1-8-6-36-11-63-8-50-10-3178-2-3226 17-101 70-202 148-279 201-202 517-201 719 1 31 32 71 84 88 116 63 117 62 101 63 1052 1 476 3 857 6 847 2-9 9-15 14-12 5 4 9-1 9-9 0-9 9-21 20-28s20-18 20-24c0-16 45-55 60-52 7 2 15-4 17-12 4-12 3-12-5-1-6 8-12 10-16 3-4-6-1-14 6-19 7-4 38-38 67-75 30-38 59-68 64-68 6 0 8-3 5-6-8-8 32-48 51-51 7-1 19-7 25-14 8-9 6-9-11 0-26 13-30 6-9-14 7-8 16-11 20-8 3 4 6-1 6-10 0-10 4-17 8-17 5 0 14-12 20-26 9-19 17-24 35-20 12 3 16 3 10 0-17-8-16-17 5-40 9-11 39-46 66-79s54-64 60-70c6-5 24-27 40-49 21-29 31-35 37-25 5 8 6 23 3 34-4 18-4 18 6 3 8-13 8-24 0-37-5-11-10-22-10-25 0-11 19-6 23 7 2 6 3 4 1-7-1-10 3-24 9-31 7-8 23-27 36-44s28-31 34-31 2 7-9 16c-18 14-18 15 4 4 17-8 21-15 13-24s-1-22 25-47c19-19 44-49 56-67 16-25 25-31 42-27 14 4 17 3 8-3-10-6-2-22 30-64 24-30 49-53 56-50 8 2 12-2 10-10-3-14 7-28 55-80 15-16 27-34 27-39 0-6 4-7 10-4 5 3 10 0 10-9 0-8 12-24 28-36 15-12 20-18 12-14s2-10 23-30c20-20 37-38 37-41 0-11 34-43 44-41 6 2 8 1 4-1-16-9-7-20 15-20 15 0 23 6 24 18 1 11-2 17-7 14s-11-1-14 4c-4 5 2 8 11 7 24-4 24-52 0-50-9 1-17-1-17-5 0-12 98-120 104-114 3 4 6-1 6-11s5-14 12-10 8 3 4-5c-12-18 21-43 46-36 22 7 22 6 4-7-18-14-17-16 21-56 22-23 38-44 35-47s0-5 6-5c5 0 12 5 14 12 3 7 7 5 11-6 4-10 3-15-3-11-6 3-10 1-10-4 0-6 4-11 9-11s13-9 16-20c4-11 11-18 16-15 5 4 9 1 9-6s7-21 16-30c13-14 21-16 36-8 11 6 22 8 25 6 2-3-5-8-16-12-12-3-21-11-21-17 0-5 7-8 15-5 8 4 17 1 21-5 4-7 3-8-4-4-23 14-12-7 18-35 16-16 26-29 22-29s0-4 8-10c9-6 17-5 23 3 5 7 5 2 2-12-6-20-4-23 9-18 10 4 15 3 12-1-5-9 86-79 154-119 89-53 230-75 342-54 175 33 327 170 392 350 19 55 20 85 21 1660 1 1239-1 1618-11 1664-41 197-215 363-417 397-209 37-423-69-531-262-64-114-63-106-64-1045 0-466-1-864-2-883l-1-35-13 31c-8 17-22 38-33 45-10 8-26 25-35 39-8 14-36 47-62 74-25 26-46 52-46 57s-8 9-17 9c-15 0-16 2-3 10s13 10-2 10c-9 0-20 9-23 20-4 11-11 18-16 15-5-4-9 1-9 9 0 21-9 20-34-1-21-18-21-18-2 4 20 24 16 53-8 53-8 0-18 5-22 12-5 7-3 8 7 3 17-10-20 36-38 48-7 4-13 15-13 23s-4 12-10 9c-5-3-10 1-10 9 0 11-10 16-27 17-22 0-24 2-10 8 16 6 13 12-26 53-25 26-43 49-40 51 2 3-10 16-27 30-16 14-30 29-30 32 0 14-115 140-126 139-7-1-10 4-8 11 3 7-3 21-14 31-10 11-54 62-97 114-94 114-101 121-109 113-3-4-6 1-6 11 0 22-50 72-70 69-9-2-10 0-2 3 17 8 15 27-2 21-9-4-13-1-11 6 5 13-57 87-73 87-6 0-14 5-18 12s-3 8 4 4 12-3 12 2c0 15-28 22-34 9-3-7-3-2-1 10 4 14-1 26-15 36-11 7-17 17-13 20 3 4 1 7-5 7-7 0-12 5-12 10 0 12-52 65-72 73-10 4-10 6 0 6 8 1 4 10-10 25-13 13-26 21-30 19-5-2-8 3-8 11 0 14-33 56-44 56-2 0-3-8-2-17 1-13-6-18-21-17-13 1-23-4-23-12s-5-14-10-14c-7 0-7 6 0 19 6 13 18 18 31 16 14-3 19 0 16 9-3 8 0 19 6 25 8 8 8 11-1 11-6 0-16-8-21-17-6-10-11-13-11-6 0 6 5 15 10 18 15 9 12 25-4 25-8 0-18 5-22 12-5 7-3 8 7 3 8-5-6 15-31 44s-52 62-61 74c-12 14-18 16-21 7-2-7-15-15-29-17-18-2-20-1-9 6 8 5 17 8 21 5 8-5 22 27 14 34-3 3-13-2-23-11-10-10-23-17-28-17s2 9 15 19c25 19 22 41-6 41-9 0-14 3-10 6 7 7-38 71-63 91-8 6-18 9-22 7-4-3-5 2-2 10 4 9-1 18-10 22-9 3-16 12-16 20 0 7-37 51-82 96-83 83-156 130-237 150-73 18-183 17-256-2zm637-352c-7-7-12-8-12-2 0 14 12 26 19 19 2-3-1-11-7-17zm28-18c0-5-4-10-10-10-5 0-10 5-10 10 0 6 5 10 10 10 6 0 10-4 10-10zm-22-35c-3-3-9 2-12 12-6 14-5 15 5 6 7-7 10-15 7-18zm41-30c0-5-4-3-9 5s-9 22-9 30c0 16 17-16 18-35zm-25-17c-4-15-3-18 6-13s11 4 6-4c-12-18-28-2-20 21 4 15 3 18-6 13s-11-4-6 4c12 18 28 2 20-21zm26-38c0-5-8-10-17-10-15 0-16 2-3 10 19 12 20 12 20 0zm67-12c-3-8-6-5-6 6-1 11 2 17 5 13 3-3 4-12 1-19zm-27 3c0-5-10-11-22-14-22-6-22-6-4 8 23 17 26 18 26 6zm65-19c-3-3-11 0-18 7-9 10-8 11 6 5 10-3 15-9 12-12zm-122-9c-20-7-15-19 7-20 13-1 18 2 14 9s-2 8 5 4c6-4 9-12 6-17-6-9-40-7-51 3-9 9 5 28 19 27 9 0 9-2 0-6zm91-5c-3-4-11-5-19-1-21 7-19 12 4 10 11 0 18-5 15-9zm53-4c-3-3-12-4-19-1-8 3-5 6 6 6 11 1 17-2 13-5zm-72-32c0-12-3-21-7-19-4 1-14-7-23-18-16-19-16-19-5 3 6 12 16 20 21 16 13-8 7 28-6 39-6 5-4 7 5 4 8-2 15-13 15-25zm41 16c4-7 3-8-4-4s-12 2-12-5-3-10-6-6c-6 5 3 27 11 27 2 0 7-5 11-12zm-71-18c-3-5-12-10-18-10-7 0-6 4 3 10 19 12 23 12 15 0zm122-12c-3-8-6-5-6 6-1 11 2 17 5 13 3-3 4-12 1-19zm-27 2c0-5-7-7-15-4-8 4-15 8-15 10s7 4 15 4 15-4 15-10zm-49-23c-10-9-11-8-5 6 3 10 9 15 12 12s0-11-7-18zm-87-9c-17-19-17-21-1-15 9 4 17 2 17-3 0-13-27-13-35-1-3 5 2 17 11 25 23 24 30 19 8-6zm118 3c-8-4-13-12-11-17 1-5-5-10-14-12s-17 1-17 7 7 8 15 4c9-3 15-2 14 3-3 17 1 24 14 24 9 0 9-2-1-9zm77-6c3-3-7-4-23-1s-31 8-35 11c-3 3 7 4 23 1s31-8 35-11zm-44-14c3-5 0-13-6-17-7-4-9-3-5 4 3 5 0 13-6 15-9 4-10 6-1 6 6 1 14-3 18-8zm-119-37c-3-8-11-12-17-8-9 5-10-1-5-22 5-24 4-26-5-11-12 21-4 51 11 42 6-3 10 4 11 17 0 13 3 17 6 10s2-20-1-28zm144 21c0-8-4-15-10-15-5 0-7 7-4 15 4 8 8 15 10 15s4-7 4-15zm-185-13c-3-3-11 0-18 7-9 10-8 11 6 5 10-3 15-9 12-12zm86-6c15 9 22-23 10-43-9-15-10-13-5 10 5 20 3 27-7 25-7-2-14 4-14 12-1 8 0 9 2 2 3-7 9-10 14-6zm44 14c-3-5-12-10-18-10-7 0-6 4 3 10 19 12 23 12 15 0zm7-32c-7-7-12-8-12-2s3 14 7 17c3 4 9 5 12 2 2-3-1-11-7-17zm25-9c-1-11-11-25-22-30-17-9-18-8-4 3 16 13 19 19 19 38 0 6 2 10 4 10 3 0 4-9 3-21zm-92 2c3-6-3-9-14-8-11 0-17 5-15 9 7 11 22 10 29-1zm194-13c-6-10-14-16-18-13-5 3-11-2-15-10-3-8-10-15-16-15-5 0-2 9 7 19 9 11 21 17 26 14 6-4 8 0 5 9-4 8 0 15 7 15 10 0 11-5 4-19zm-46-3c-3-9-8-14-10-11-3 3-2 9 2 15 9 16 15 13 8-4zm-218-25c-3-14 2-20 16-20 10 0 18 6 17 13-2 7 7 12 22 12s24-5 23-12c-2-7 6-13 16-13 14 0 18 5 14 19-3 10-1 21 4 24s8-7 7-21c-1-22-6-27-25-27-14 0-23 5-21 13 1 6-7 12-18 12s-19-6-17-12c1-8-8-13-20-13-13 0-23 4-22 9 0 5-5 13-13 17-10 7-10 9 0 9 7 0 10 5 6 12-4 6-3 8 4 4 6-3 9-15 7-26zm195 6c0-2-7-6-15-10-8-3-15-1-15 4 0 6 7 10 15 10s15-2 15-4zm105-6c13-6 15-9 5-9-8 0-22 4-30 9-18 12-2 12 25 0zm-141-41c0-18-5-23-20-22-13 1-20-4-21-16s5-17 19-17c20 1 33-27 22-45-6-11-34 0-34 13 0 6 6 6 14-2 12-9 15-8 13 10-1 15-7 20-22 18-16-2-20 3-20 22 1 19 6 25 22 23 22-2 27 24 8 40-6 5-4 7 5 5 8-3 14-15 14-29zm120 23c2-4-2-16-10-27-8-10-14-14-14-9 0 6 6 16 13 23 10 11 9 13-5 8-10-4-18-2-18 3 0 12 27 13 34 2zm-216-24c-2-6-10-13-16-14-7-1-8 0-2 3 5 2 8 9 4 14-3 5 0 9 6 9 7 0 10-5 8-12zm132 2c0-5-4-10-10-10-5 0-10 5-10 10 0 6 5 10 10 10 6 0 10-4 10-10zm113 3c-7-2-13-9-13-14s6-8 13-6c18 3 15-46-3-50-9-3-11-1-5 4 13 11 19 47 6 39-12-8-24 10-16 24 3 6 12 10 18 9 9 0 9-2 0-6zm35-28c-3-3-9 2-12 12-6 14-5 15 5 6 7-7 10-15 7-18zm-331 6c-10-4-18-11-17-16s-4-11-12-13c-9-2-8 0 2 7 8 6 11 11 7 11-5 0-5 5-2 10 3 6 14 10 23 9 15 0 15-1-1-8zm82-14c0-9-2-8-6 1-2 6-10 9-15 6-7-4-8-2-4 5 9 13 26 5 25-12zm131 13c0-5-4-10-10-10-5 0-10 5-10 10 0 6 5 10 10 10 6 0 10-4 10-10zm-187-27c-5-15-3-16 8-5 7 6 17 12 23 12 5 0 1-6-9-14-11-8-23-12-27-10-11 7-10 34 2 34 5 0 7-8 3-17zm157 1c0-2-7-4-15-4s-15 4-15 10c0 5 7 7 15 4 8-4 15-8 15-10zm95 6c3-6-1-7-9-4-18 7-21 14-7 14 6 0 13-4 16-10zm77 3c-6-2-10-9-6-14 3-5-2-12-10-15-9-3-14-9-12-13 3-4-5-8-17-8-18-2-17 1 8 17 17 11 26 20 22 20-5 0-5 5-2 10 3 6 12 10 18 9 9 0 8-2-1-6zm-149-18c-3-9-8-14-10-11-3 3-2 9 2 15 9 16 15 13 8-4zm-200-10c4-8 3-16-1-19s-9 4-9 15c-2 23 3 25 10 4zm82-14c3-18 1-20-15-11-26 14-30 13-24-7 5-15 4-15-4-3-14 19-5 32 19 25 15-5 18-3 12 12-3 10-3 15 1 12 4-4 8-16 11-28zm174 15c0-5 5-13 13-18 10-8 10-9-2-5-8 2-14 9-13 15 2 6-6 10-17 9s-20-6-20-11-3-7-6-3c-3 3-3 10 0 15 7 12 47 10 45-2zm-79-21c0-9 6-12 15-9 8 4 15 2 15-4s-7-9-16-8c-19 3-41 36-24 36 5 0 10-7 10-15zm205-2c-1-11-10-17-22-16s-19-5-20-16c-1-14 4-17 17-14 10 3 20 1 23-4s-7-8-21-7c-22 1-27 6-27 25 1 19 6 23 22 22 16-2 21 2 17 12-4 8-2 15 4 15s9-8 7-17zm-360-34c0-14-5-23-12-21-7 1-13-5-13-13s-5-15-10-15c-7 0-7 7 0 20 6 11 15 18 21 15 5-4 9 3 9 13 0 15-5 19-19 15-10-3-21-1-24 4s7 8 21 7c22-1 27-6 27-25zm201-1c-3-24-28-32-32-10-1 7 0 8 3 2 5-12 24-14 22-2-2 14 1 32 6 32 3 0 3-10 1-22zm68 6c3-8 2-12-4-9s-10 1-10-6-2-10-5-7c-5 5 4 38 10 38 2 0 6-7 9-16zm-309-12c-3-3-11 0-18 7-9 10-8 11 6 5 10-3 15-9 12-12zm130 8c3-6-1-7-9-4-18 7-21 14-7 14 6 0 13-4 16-10zm55-5c0-8-2-15-4-15s-6 7-10 15c-3 8-1 15 4 15 6 0 10-7 10-15zm77-7c-3-8-6-5-6 6-1 11 2 17 5 13 3-3 4-12 1-19zm173 6c0-2-7-4-15-4s-15 4-15 10c0 5 7 7 15 4 8-4 15-8 15-10zm-275-15c-4-5-12-9-18-8-9 0-8 2 1 6 6 2 9 10 6 15-4 7-2 8 5 4 6-4 9-12 6-17zm-41-21c1-14-2-24-7-21s-7 13-4 23c3 14-1 18-14 17-14-1-18-7-14-22 5-18 5-18-5-2-14 22-6 35 21 33 17-1 23-8 23-28zm222-4c3-16 2-26-1-23-3 4-8 19-11 35s-2 26 1 23c3-4 8-19 11-35zm-297-1c-12-15-12-16 4-10 9 3 17 2 17-3 0-11-23-13-33-3-7 6 10 33 20 33 3 0-1-8-8-17zm161 7c0-5-4-10-10-10-5 0-10 5-10 10 0 6 5 10 10 10 6 0 10-4 10-10zm80-28c0-1-9 2-20 8s-20 15-20 20c0 6 9 2 20-7 11-10 20-19 20-21zm19 28c-6-5-18-6-26-3-19 8-16 11 13 11 17 0 22-3 13-8zm76 0c-3-5-12-10-18-10-7 0-6 4 3 10 19 12 23 12 15 0zm60-1c11-16 1-19-13-3-7 8-8 14-3 14s13-5 16-11zm-279-39c0-11-4-20-8-20-5 0-12 0-18 0-5 0-10 5-10 11 0 8 5 7 16-2 14-11 15-10 12 7-1 10-10 25-18 32-13 11-12 12 6 3 12-6 21-19 20-31zm238 28c-5-8-2-9 9-5 10 3 17 2 17-3 0-12-27-13-34-1-3 4-3 11 1 15 10 10 15 7 7-6zm-158-26c5-28-7-34-31-16-10 8-14 14-9 14 6 0 15-5 21-11 9-9 12-7 10 10-1 13-6 20-15 16-7-3-10 0-7 6 10 16 28 5 31-19zm80-4c-1-12-8-24-14-26-7-2-10-8-7-13 4-5-1-6-10-3-10 4-15 2-13-7 2-7-5-15-14-17-10-2-18 1-18 7s7 7 17 4c11-4 14-3 9 5-4 7 2 16 16 23 13 6 25 19 25 30 1 12-3 17-9 13-7-4-8-2-4 5 11 17 26 3 22-21zm-296 2c0-5-7-7-15-4-8 4-15 8-15 10s7 4 15 4 15-4 15-10zm55-7c-1-11-10-17-22-16-13 1-19-4-19-17 0-14 5-18 17-15 10 3 20 1 24-4 4-7-1-8-11-4-12 5-15 3-9-6 6-10 3-11-12-3-28 15-23 58 6 55 11-2 20 1 20 5-2 11 1 22 5 22 2 0 3-8 1-17zm22-5c-3-8-6-5-6 6-1 11 2 17 5 13 3-3 4-12 1-19zm293 12c18-12 2-12-25 0-13 6-15 9-5 9 8 0 22-4 30-9zm46-15c-3-9-10-14-15-11-5 4-12-1-14-9-3-11-4-10-3 2 1 10 8 17 14 16 7-2 12 5 12 14s3 14 6 10c4-3 4-13 0-22zm59 15c3-6-1-7-9-4-18 7-21 14-7 14 6 0 13-4 16-10zm-143-14c7 4 8 2 4-5-9-13-26-5-25 12 0 9 2 8 6-1 2-6 10-9 15-6zm-356-5c-4-5 0-11 6-14 7-2 9-8 5-13-9-10-28 16-21 28 3 4 7 8 10 8s3-4 0-9zm180-7c-5-12-1-14 17-9 19 5 20 4 4-5-21-13-38-5-30 15 3 8 7 15 10 15s2-7-1-16zm75-7c-10-9-11-8-5 6 3 10 9 15 12 12s0-11-7-18zm225 14c-4-5 0-11 6-14 7-2 9-8 5-13-9-10-28 16-21 28 3 4 7 8 10 8s3-4 0-9zm44-1c0-5-5-10-11-10-5 0-7 5-4 10 3 6 8 10 11 10 2 0 4-4 4-10zm-148-22c-7-7-12-8-12-2s3 14 7 17c3 4 9 5 12 2 2-3-1-11-7-17zm-252 2c0-5-4-10-10-10-5 0-10 5-10 10 0 6 5 10 10 10 6 0 10-4 10-10zm340-25c0-5-5-3-10 5s-10 20-10 25c0 6 5 3 10-5s10-19 10-25zm-308 11c7 4 8 2 4-5-4-6-12-9-17-6-5 4-9 1-9-6s-2-10-5-7-2 13 2 24 8 13 11 6c2-7 9-9 14-6zm363 4c-3-5 1-10 9-10 9 0 16-5 16-10 0-7-7-7-20 0-17 9-20 30-4 30 3 0 2-4-1-10zm-163-19c-2-8 3-11 11-8s20 1 28-4c9-5 4-7-16-5-17 1-29 8-27 14 1 7-7 12-17 12-14 0-19-6-16-20 2-11-1-23-7-26-7-4-8-2-4 4 7 12-4 16-34 13-13-2-13 0-1 8 8 5 20 7 28 4s13-2 12 3c-3 20 2 25 24 22 12-2 21-9 19-17zm83-12c0-13-5-23-11-22-5 1-16-8-23-19-11-18-11-20 3-15 9 4 16 2 16-3 0-11-23-14-33-4-9 9 24 55 34 48 5-3 9 4 9 14 0 15-5 19-19 15-10-3-21-1-24 4s7 8 21 7c22-1 27-6 27-25zm-335 6c0-8-4-15-10-15-5 0-7 7-4 15 4 8 8 15 10 15s4-7 4-15zm145-23c6 2 11-8 12-22 2-24 2-24-5-2-4 13-11 22-17 20-5-2-11 8-12 22-2 24-2 24 5 2 4-13 12-22 17-20zm-225 16c0-4-7-8-15-8s-15 4-15 8c0 5 7 9 15 9s15-4 15-9zm167 6c-3-3-12-4-19-1-8 3-5 6 6 6 11 1 17-2 13-5zm313-4c0-5-7-7-15-4-8 4-15 8-15 10s7 4 15 4 15-4 15-10zm-425-40c0-17-7-24-25-27-18-2-21-1-10 6 8 5 18 7 22 5 4-3 8 3 8 13 0 11-8 19-19 20-14 1-18-3-14-13 3-8 1-14-5-14-8 0-9 17-3 37 1 2 11 1 24-1 15-2 22-10 22-26zm59 18c-3-5-10-6-15-3-5 4-9-2-9-12 0-11 8-19 19-20 14-1 18 3 14 13-3 8-1 14 5 14s9-8 8-17c-3-22-45-26-53-7-8 20 3 41 21 41 8 0 13-4 10-9zm61-8c0-7-6-14-13-16-7-1-8 0-2 3 5 2 10 9 10 14 0 6-4 8-8 5-4-2-14 0-22 5-11 7-8 8 10 6 14-2 25-10 25-17zm142-11c0-21-3-26-9-16-4 9-5 22-2 31 9 23 11 20 11-15zm149 19c4-7 3-8-4-4s-12 3-12-3c0-5 6-12 13-14 9-4 9-6 0-6-15-1-26 16-18 29s12 13 21-2zm69-19c0-18-5-24-24-24-15 0-25 6-27 18-1 9 2 17 8 17s8-6 5-14c-4-10 0-14 14-13 11 1 19 9 19 20 0 10-4 16-8 13-4-2-14 0-22 5-11 7-8 8 10 6 19-3 25-10 25-28zm-250-22c16-3 11-40-5-44-9-3-11-1-5 4 15 12 18 44 3 41-7-2-14 8-15 22-2 24-2 24 5 2 4-13 12-24 17-25zm70 24c-8-14-25-14-25 0 0 5 5 7 10 4 6-3 10-1 10 6s3 10 6 6c3-3 3-10-1-16zm224-17c4 3 13 0 21-5 11-7 8-8-10-6-16 3-25 11-26 23-1 16 0 16 3 1 3-9 8-15 12-13zm-596 19c-7-2-13-9-13-14 0-6 5-7 12-3 7 5 8 3 3-5-5-9-11-9-17-3-12 12-2 32 15 31 9 0 9-2 0-6zm457-28c0-5-5-3-10 5s-10 20-10 25c0 6 5 3 10-5s10-19 10-25zm-240 5c0-5-4-10-10-10-5 0-10 5-10 10 0 6 5 10 10 10 6 0 10-4 10-10zm216-36c-3-8-10-12-16-9-5 3-10-3-10-14 0-12 6-20 13-18 7 1 12-8 12-20 0-13-4-23-10-22-5 0-13-10-17-23-7-22-7-22-5 2 1 14 8 24 15 23 6-2 12 6 12 17s-6 19-12 18c-8-2-13 7-13 22s5 24 13 23c6-2 12 7 13 20 0 12 3 16 6 9s2-20-1-28zm-416 16c0-5-8-10-17-10-15 0-16 2-3 10 19 12 20 12 20 0zm74-5c-4-8-8-15-10-15s-4 7-4 15 4 15 10 15c5 0 7-7 4-15zm96-1c0-2-7-4-15-4s-15 4-15 10c0 5 7 7 15 4 8-4 15-8 15-10zm95 6c3-6-1-7-9-4-18 7-21 14-7 14 6 0 13-4 16-10zm105 0c11-8 7-9-14-4-20 5-27 3-22-4 4-6-4-16-16-22-22-11-22-10-4 4 11 9 16 16 12 16s-4 5-1 10c8 13 26 13 45 0zm110-2c0-4-7-8-15-8s-15 4-15 8c0 5 7 9 15 9s15-4 15-9zm80-3c0-8-2-15-4-15s-6 7-10 15c-3 8-1 15 4 15 6 0 10-7 10-15zm-520-4c0-5-10-11-22-14-22-6-22-6-4 8 23 17 26 18 26 6zm97-30c2-30-12-34-33-8l-19 22 22-19c22-18 22-18 20 3-1 12-7 21-14 21s-13 5-13 10c0 20 36-8 37-29zm56 24c-3-9-8-14-10-11-3 3-2 9 2 15 9 16 15 13 8-4zm339 1c6 4 8 2 5-4-4-5-15-8-25-5-13 3-18-2-18-16s6-19 19-18c14 1 21-5 23-23 3-18 2-21-5-10-5 8-7 18-5 22 3 4-5 7-17 5-16-1-22 4-24 21-2 23 27 50 33 31 2-5 9-6 14-3zm84-28c-1-13-7-22-15-20-9 2-11-5-6-20 5-20 4-21-5-5-12 18-5 41 10 32 5-3 8 4 7 15s-7 20-14 20-13 5-13 10c0 7 6 7 19 1 10-6 18-20 17-33zm-367 17c0-5 8-13 18-17 16-7 16-8-2-5-11 2-19 8-18 14 2 7-6 11-17 10s-20-6-20-11-3-7-6-3c-3 3-3 10 0 15 7 12 47 10 45-3zm182-12c-12-20-14-14-5 12 4 9 9 14 11 11 3-2 0-13-6-23zm-79-5c-7-7-12-8-12-2s3 14 7 17c3 4 9 5 12 2 2-3-1-11-7-17zm-369 5c-20-7-15-19 7-20 13-1 18 2 14 9s-2 8 5 4c6-4 9-12 6-17-6-9-40-7-51 3-9 9 5 28 19 27 9 0 9-2 0-6zm91-5c-3-4-11-5-19-1-21 7-19 12 4 10 11 0 18-5 15-9zm96-3c0-9 6-12 15-9 8 4 15 2 15-4s-7-9-16-8c-19 3-41 36-24 36 5 0 10-7 10-15zm300 4c0-5-5-7-12-3-8 5-9 1-4-12 5-14 4-16-5-7-6 6-8 16-5 22 9 14 26 14 26 0zm110 1c0-5-4-10-10-10-5 0-10 5-10 10 0 6 5 10 10 10 6 0 10-4 10-10zm70-6c0-8 4-13 9-9 5 3 12 1 15-4 4-5-1-8-10-7-19 3-41 36-24 36 5 0 10-7 10-16zm-595-32c0-12-3-21-7-19-4 1-14-7-23-18-16-19-16-19-5 3 6 12 16 20 21 16 13-8 7 28-6 39-6 5-4 7 5 4 8-2 15-13 15-25zm41 16c4-7 3-8-4-4s-12 2-12-5-3-10-6-6c-6 5 3 27 11 27 2 0 7-5 11-12zm236-6c-1-8 6-11 23-8 14 3 25 1 25-4s-12-8-27-6c-16 1-27 8-25 14 1 7-7 12-19 12-11 0-17-4-14-10 11-17-3-40-20-34-8 3-15 11-15 16 0 6 7 4 16-3 14-11 16-10 14 6-4 33-1 37 23 33 12-2 21-9 19-16zm-116-14c-3-24-28-32-32-10-1 7 0 8 3 2 5-12 24-14 22-2-2 14 1 32 6 32 3 0 3-10 1-22zm341 0c-3-8-6-5-6 6-1 11 2 17 5 13 3-3 4-12 1-19zm-532 2c-3-5-12-10-18-10-7 0-6 4 3 10 19 12 23 12 15 0zm135-5c0-8-2-15-4-15s-6 7-10 15c-3 8-1 15 4 15 6 0 10-7 10-15zm77-7c-3-8-6-5-6 6-1 11 2 17 5 13 3-3 4-12 1-19zm243 12c0-5-8-10-17-10-15 0-16 2-3 10 19 12 20 12 20 0zm160-5c0-8-2-15-4-15s-6 7-10 15c-3 8-1 15 4 15 6 0 10-7 10-15zm-515-22c-11-7-22-13-27-13-4 0-7-5-5-12 1-6-6-14-15-16-10-2-18 1-18 7s7 7 17 4c11-4 14-3 9 5-4 7 3 16 18 23 14 7 23 16 19 22s-1 7 7 2c10-6 9-11-5-22zm556 7c6 0 7 5 3 12-5 7-3 8 5 3 9-5 9-11 3-17-12-12-32-2-31 15 0 9 2 9 6 0 2-7 9-13 14-13zm-610-13c-10-9-11-8-5 6 3 10 9 15 12 12s0-11-7-18zm245-3c-3-15-8-29-11-32s-3 5-1 19c2 13 5 27 5 32 1 4 3 7 6 7s3-12 1-26zm115-1c-12-20-14-14-5 12 4 9 9 14 11 11 3-2 0-13-6-23zm89 17c0-5-6-7-14-4-9 4-13-2-12-18 1-18-4-23-24-23-26 0-36 26-12 31 7 1 8 0 2-3-16-8-12-19 9-20 13-1 18 4 16 15-1 9 0 20 2 25 6 10 33 9 33-3zm55 0c-6-9 8-14 28-11 5 1 6-3 2-9-4-7-12-7-26 0-17 9-19 30-3 30 3 0 2-4-1-10zm-591-22c-17-19-17-21-1-15 9 4 17 2 17-3 0-13-27-13-35-1-3 5 2 17 11 25 23 24 30 19 8-6zm193 6c-2-3-17-7-33-10-17-2-24-1-17 4 13 8 58 14 50 6zm48-4c-3-5-12-10-18-10-7 0-6 4 3 10 19 12 23 12 15 0zm35 0c0-5-4-10-10-10-5 0-10 5-10 10 0 6 5 10 10 10 6 0 10-4 10-10zm95-11c0-8-6-13-14-11s-11-3-8-13c4-8 2-15-4-15s-9 8-7 18c2 9 10 16 16 15 15-4 16 13 2 20-6 3-5 4 2 3 7-2 13-9 13-17zm180 11c-3-5-12-10-18-10-7 0-6 4 3 10 19 12 23 12 15 0zm18-15c-3-9-8-14-10-11-3 3-2 9 2 15 9 16 15 13 8-4zm122 5c-3-5-12-10-18-10-7 0-6 4 3 10 19 12 23 12 15 0zm-479-18c1-7 0-8-3-2-2 5-9 10-14 10-6 0-7-5-3-12s3-8-5-4c-14 9-4 29 12 23 6-2 12-9 13-15zm390 6c5-7 3-8-5-4-8 6-11 2-9-10 2-11 11-24 22-30 17-10 17-12 2-17-10-4-15-3-12 2s0 11-8 14c-14 6-16 57-2 57 3 0 8-5 12-12zm41 3c-10-4-18-11-17-16s-4-11-12-13c-9-2-8 0 2 7 8 6 11 11 7 11-5 0-5 5-2 10 3 6 14 10 23 9 15 0 15-1-1-8zm82-14c0-9-2-8-6 1-2 6-10 9-15 6-7-4-8-2-4 5 9 13 26 5 25-12zm41 1c10-21 10-21-3-6-8 10-18 14-22 10-5-4-5-1-1 6 10 17 14 15 26-10zm-734-24c-3-8-11-12-17-8-9 5-10-1-5-22 5-24 4-26-5-11-12 21-4 51 11 42 6-3 10 4 11 17 0 13 3 17 6 10s2-20-1-28zm94 16c-24-15-36-11-14 4 10 8 21 12 24 10 2-3-2-9-10-14zm44 5c3-8 1-15-4-15-6 0-10 7-10 15s2 15 4 15 6-7 10-15zm80 0c3-8 1-15-4-15-6 0-10 7-10 15s2 15 4 15 6-7 10-15zm62-13c-3-3 6-13 21-23 24-16 25-18 6-16-12 0-20 4-17 8 2 4-3 10-12 13-8 3-12 10-9 16 3 5-1 10-9 10-9 0-16 5-16 10 0 7 7 7 21 0 11-7 18-14 15-18zm154-5c10-20 10-20-3-5-8 10-16 16-19 13-2-3-5 2-5 10 0 19 14 10 27-18zm-475 5c-3-3-11 0-18 7-9 10-8 11 6 5 10-3 15-9 12-12zm86-6c15 9 22-23 10-43-9-15-10-13-5 10 5 20 3 27-7 25-7-2-14 4-14 12-1 8 0 9 2 2 3-7 9-10 14-6zm319 20c0-2-7-7-16-10-8-3-12-2-9 4 6 10 25 14 25 6zm135-6c-27-12-43-12-25 0 8 5 22 9 30 9 10 0 8-3-5-9zm138-7c-5-15-3-16 8-5 7 6 17 12 23 12 5 0 1-6-9-14-11-8-23-12-27-10-11 7-10 34 2 34 5 0 7-8 3-17zm-513-29c0-8-4-14-10-14-5 0-6 8-3 18 6 15 5 15-10 3-10-7-17-9-17-3 0 12 21 22 33 15 4-2 7-11 7-19zm82 3c6-11 5-17-2-17-5 0-10 6-10 13s-9 13-20 13c-13 0-18-6-17-19 1-14-5-21-23-23-18-3-21-2-10 5 8 5 18 7 24 4 5-4 7 1 3 11s-5 21-2 25c8 14 47 5 57-12zm49 6c13-16 12-17-3-5s-17 11-15-7c1-15 6-19 18-16 20 7 35-10 18-21-8-4-9-3-5 4 5 8 0 11-15 9-21-2-35 25-23 45 7 11 10 10 25-9zm144-3c0-7-6-14-13-16-7-1-8 0-2 3 17 8 11 19-10 20-13 1-18-2-14-9s2-8-5-4c-6 4-9 12-6 17 9 13 50 4 50-11zm99 5c-5-11-1-14 12-9 16 5 16 4 4-5-17-12-36 1-26 18 10 16 16 13 10-4zm119 0c4-8 3-16-1-19s-9 4-9 15c-2 23 3 25 10 4zm87 5c0-5-4-10-10-10-5 0-10 5-10 10 0 6 5 10 10 10 6 0 10-4 10-10zm-226-42c-7-11-34-10-34 2 0 5 8 7 18 3 14-5 15-3 5 8-7 7-13 17-13 23 0 5 6 1 14-9 8-11 12-23 10-27zm-449 23c3-6-3-9-14-8-11 0-17 5-15 9 7 11 22 10 29-1zm645-4c0-7 9-13 20-14s18 2 15 7c-9 15 14 22 32 10 16-9 15-10-5-5-15 5-22 3-20-6 4-18-42-20-49-3-3 8-10 11-16 7-6-3-7-1-3 5 10 16 26 15 26-1zm-335-17c-5-16-3-19 12-14s15 4 3-5c-19-13-33 0-24 22 9 24 17 21 9-3zm438 5c-3-9-8-14-10-11-3 3-2 9 2 15 9 16 15 13 8-4zm-818-25c-3-14 2-20 16-20 10 0 18 6 17 13-2 7 7 12 22 12s24-5 23-12c-2-7 6-13 16-13 14 0 18 5 14 19-3 10-1 21 4 24s8-7 7-21c-1-22-6-27-25-27-14 0-23 5-21 13 1 6-7 12-18 12s-19-6-17-12c1-8-8-13-20-13-13 0-23 4-22 9 0 5-5 13-13 17-10 7-10 9 0 9 7 0 10 5 6 12-4 6-3 8 4 4 6-3 9-15 7-26zm597 11c-2-8 3-11 11-8s20 1 28-4c9-5 4-7-16-5-17 1-29 8-27 14 1 7-7 12-17 12-14 0-19-6-16-20 2-11-1-23-7-26-7-4-8-2-4 4 7 12-4 16-34 13-13-2-13 0-1 8 8 5 20 7 28 4s13-2 12 3c-3 20 2 25 24 22 12-2 21-9 19-17zm83-12c0-13-5-23-11-22-5 1-16-8-23-19-11-18-11-20 3-15 9 4 16 2 16-3 0-11-23-14-33-4-9 9 24 55 34 48 5-3 9 4 9 14 0 15-5 19-19 15-10-3-21-1-24 4s7 8 21 7c22-1 27-6 27-25zm-335 6c0-8-4-15-10-15-5 0-7 7-4 15 4 8 8 15 10 15s4-7 4-15zm145-23c6 2 11-8 12-22 2-24 2-24-5-2-4 13-11 22-17 20-5-2-11 8-12 22-2 24-2 24 5 2 4-13 12-22 17-20zm348 4c-4-5 1-7 11-3 11 4 15 3 11-4-11-16-28-5-32 22-2 18-1 20 6 9 5-8 7-18 4-24zm-688 14c3-6-1-7-9-4-18 7-21 14-7 14 6 0 13-4 16-10zm115 0c0-5-8-10-17-10-15 0-16 2-3 10 19 12 20 12 20 0zm515 0c-27-12-43-12-25 0 8 5 22 9 30 9 10 0 8-3-5-9zm-588-6c-3-3-12-4-19-1-8 3-5 6 6 6 11 1 17-2 13-5zm33-14c0-5-4-10-10-10-5 0-10 5-10 10 0 6 5 10 10 10 6 0 10-4 10-10zm80 0c0-5-7-6-17-3-12 5-14 3-8-7 5-9 4-11-4-6-6 4-9 12-6 17 8 12 35 12 35-1zm66-2c4-7 3-10-1-5-5 4-17-5-27-20-10-16-18-24-18-20 0 8 30 57 36 57 1 0 6-6 10-12zm72-6c2-7 7-10 11-8 4 3 8-5 8-17 2-20 1-20-15 3-9 14-25 26-35 28-15 3-16 0-5-17 6-11 15-18 18-16 4 2 14-5 23-16 9-10 12-19 7-19-6 0-13 7-16 15-4 8-10 13-14 10-10-6-41 40-33 49 9 9 47 0 51-12zm139-13c0-21-3-26-9-16-4 9-5 22-2 31 9 23 11 20 11-15zm196 16c-3-9-8-14-10-11-3 3-2 9 2 15 9 16 15 13 8-4zm-643-15c-24-15-36-11-14 4 10 8 21 12 24 10 2-3-2-9-10-14zm185 1c-3-6-11-11-16-11s-4 6 3 14c14 16 24 13 13-3zm230-24c16-3 11-40-5-44-9-3-11-1-5 4 15 12 18 44 3 41-7-2-14 8-15 22-2 24-2 24 5 2 4-13 12-24 17-25zm70 24c-8-14-25-14-25 0 0 5 5 7 10 4 6-3 10-1 10 6s3 10 6 6c3-3 3-10-1-16zm139-23c-7-11-34-10-34 2 0 5 8 7 18 3 14-5 15-3 5 8-7 7-13 17-13 23 0 5 6 1 14-9 8-11 12-23 10-27zm-759 14c-3-3-11 0-18 7-9 10-8 11 6 5 10-3 15-9 12-12zm55 8c-8-5-19-10-25-10-5 0-3 5 5 10s20 10 25 10c6 0 3-5-5-10zm145-10c0-15-41-24-50-11-3 5 0 13 6 17 7 4 9 3 5-4s1-10 14-9c21 1 27 12 10 20-6 3-5 4 2 3 7-2 13-9 13-16zm60-1c0-8-6-13-12-11-7 1-13-7-13-18s5-19 12-17c6 1 13-11 14-28 2-20 0-25-5-16-5 8-7 20-4 28s0 13-8 11c-9-2-14 6-14 22 0 15 5 24 13 23 14-3 16 13 2 20-6 3-5 4 2 3 7-2 13-9 13-17zm451 3c1-7 0-8-3-2-2 5-9 8-14 4-5-3-9 0-9 6 0 15 23 7 26-8zm94 8c0-5-4-10-10-10-5 0-10 5-10 10 0 6 5 10 10 10 6 0 10-4 10-10zm35-8c-3-3-11 0-18 7-9 10-8 11 6 5 10-3 15-9 12-12zm-460-11c-3-6-11-9-17-5s-8-3-6-17c2-20-1-24-22-24-15 0-24 5-22 13 1 8-6 11-23 8-14-3-25-1-25 4s12 8 28 6c15-1 26-8 25-14-2-7 5-12 15-12 13 0 18 7 18 23-1 12 4 21 12 20 6-2 12 2 12 9 0 6 3 9 6 5 3-3 3-11-1-16zm-300 0c3-5 0-13-6-17-8-4-9-3-5 4s2 12-3 12c-6 0-11-5-11-12 0-6-3-9-6-5-7 7 4 27 16 27 5 0 11-4 15-9zm801-3c4-6 3-8-4-4-5 3-12 0-15-6-2-7-8-9-13-5s-2 12 6 17c19 12 17 12 26-2zm-856-13c0-8-4-15-10-15-5 0-7 7-4 15 4 8 8 15 10 15s4-7 4-15zm80 0c0-8-4-15-10-15-5 0-7 7-4 15 4 8 8 15 10 15s4-7 4-15zm56-12c-6-6-36 9-36 18 0 5 9 4 20-3 10-7 18-14 16-15zm520-9c-3-8-11-12-17-8-9 5-10-1-5-20 3-14 2-26-2-26-5 0-9 12-8 28s6 26 14 25c6-2 12 7 13 20 0 12 3 16 6 9s2-20-1-28zm94 16c-24-15-36-11-14 4 10 8 21 12 24 10 2-3-2-9-10-14zm47 5c0-8-4-15-9-15-4 0-8 7-8 15s4 15 8 15c5 0 9-7 9-15zm105-20c3 4 9 2 12-3 3-6-2-9-11-8-9 2-19 8-21 14-2 7-8 10-13 7-5-4-6 1-2 11 5 14 7 14 18-5 6-12 14-19 17-16zm-522 21c0-2-7-7-16-10-8-3-12-2-9 4 6 10 25 14 25 6zm125-6c3-6-1-7-9-4-18 7-21 14-7 14 6 0 13-4 16-10zm105 0c11-8 7-9-14-4s-27 4-22-5c4-6 0-14-8-17-9-3-14-9-12-13 3-4-5-8-17-8-18-2-17 1 8 17 17 11 26 20 22 20-5 0-5 5-2 10 8 13 26 13 45 0zm93-13c12 12 19-26 8-44-9-15-10-13-5 11 5 20 3 27-4 22-6-4-16 4-22 16-10 21-10 21 3 6 8-10 17-15 20-11zm-727-29c-1-12-9-24-17-26s-10 0-4 5c15 12 19 47 4 37-8-4-10-3-5 5 11 17 26 3 22-21zm77 3c-2-12 1-20 5-17 4 2 14 0 22-5 11-7 8-8-10-5-18 2-24 9-23 23 1 13-4 19-17 19-11 0-20-6-20-13s-5-13-10-13c-7 0-7 6-1 18 15 27 57 21 54-7zm67 7c0-6-8-4-17 3-15 12-16 12-10-3 3-10 2-18-3-18-11 0-14 23-4 33 8 8 34-3 34-15zm74-10c-3-4-11-8-17-7-9 0-9 2 0 5 7 3 9 13 6 22-4 14-3 14 5 2 6-8 8-18 6-22zm206 22c0-5-8-7-17-3-15 5-16 3-5-8 6-7 12-17 12-23 0-5-6-1-14 9-8 11-12 23-10 27 7 11 34 10 34-2zm95 0c3-5 0-12-6-16-7-4-9-3-5 4s-1 10-14 9c-22-1-27-13-7-20 9-4 9-6 0-6-14-1-26 16-19 27 6 11 45 12 51 2zm281-23c-2-15-10-22-25-21-16 0-21-4-19-20s-2-21-22-21c-15 0-24 5-22 13 1 6-7 12-18 12s-19-6-17-12c1-8-8-13-20-13-13 0-23 4-22 9 0 5-5 13-13 18-10 8-10 9 2 5 8-2 14-10 13-16-2-6 6-11 17-11s19 6 18 13c-2 7 7 12 22 12s24-5 23-12c-2-7 5-13 15-13 13 0 18 7 18 23-1 17 4 21 19 19s21 3 22 18c2 18-1 19-13 10-9-8-14-9-14-2 0 12 21 22 32 15 4-2 6-14 4-26zm82 12c2-8 0-10-5-4-4 6-16 11-26 11-13 1-16-3-12-16 3-10 1-21-4-25-7-4-8 1-4 11 5 12 3 15-6 9-10-6-11-3-3 12 12 23 54 24 60 2zm-699-34c0-5-4-3-9 5s-9 22-9 30c0 16 17-16 18-35zm281 3c0-5-5-8-11-8-5 0-8 4-4 9 3 5 1 12-5 16-5 3-10 11-10 18 0 12 29-23 30-35zm160 32c0-5-5-10-11-10-5 0-7 5-4 10 3 6 8 10 11 10 2 0 4-4 4-10zm-324-9c-4-5-1-11 6-13 14-5 21-45 9-53-5-3-13 0-17 6-4 7-3 9 4 5s10 1 9 14c-1 11-10 23-20 26-16 5-17 8-6 15 18 11 22 11 15 0zm79-22c-5-15-3-18 12-13 14 5 15 4 3-4-19-14-32-5-25 19 5 15 3 18-12 13-14-5-15-4-3 4 19 14 32 5 25-19zm330 21c3-5 2-10-4-10-5 0-13 5-16 10-3 6-2 10 4 10 5 0 13-4 16-10zm191-16c-4-9-9-14-13-10-4 3-14-6-24-21-16-24-18-25-16-6 0 12 4 20 8 17 4-2 10 3 13 12 3 8 10 12 16 9 5-3 10 2 10 11 0 10 3 15 6 11 4-3 4-14 0-23zm-364-26c-6-6-12-6-17 3-6 8-4 10 5 4 9-5 10-1 6 16-6 21-6 22 5 6 7-13 8-22 1-29zm409 22c6 0 7 5 3 12-5 7-3 8 5 3 9-5 9-11 3-17-12-12-32-2-31 15 0 9 2 9 6 0 2-7 9-13 14-13zm-785-22c-1-12-8-24-14-26-7-2-9-9-6-14 4-7 2-8-4-4-16 10-15 26 1 26 7 0 13 9 14 21 2 21 2 21-20 3l-22-19 19 22c22 26 37 21 32-9zm84 6c0-8-4-14-10-14-5 0-7 7-3 16 5 14 3 14-15 3-11-7-18-17-16-21 3-5-2-11-10-14-9-3-14-10-11-14 3-5-2-13-11-18s-15-13-14-18-4-10-12-12c-9-2-8 0 2 7 8 6 11 11 5 11-5 0-1 7 9 15 11 8 16 15 10 15-5 0 0 7 10 15 11 8 16 15 10 15-5 0 2 9 16 19 26 21 40 19 40-5zm362 19c-6-2-9-10-6-15 4-7 2-8-5-4-13 9-5 26 12 25 9 0 8-2-1-6zm-28-18c3-8 1-15-4-15-6 0-10 7-10 15s2 15 4 15 6-7 10-15zm-544-11c0-2-7-4-15-4s-15 4-15 10c0 5 7 7 15 4 8-4 15-8 15-10zm252 7c-8-4-12-12-10-17 1-5-8-10-22-11l-25-2 25 8c14 5 21 9 17 10-13 2 3 21 16 21 8 0 8-3-1-9zm215 3c-3-3-12-4-19-1-8 3-5 6 6 6 11 1 17-2 13-5zm333-10c0-2-7-4-15-4s-15 4-15 10c0 5 7 7 15 4 8-4 15-8 15-10zm95 6c3-6-1-7-9-4-18 7-21 14-7 14 6 0 13-4 16-10zm65-5c0-1-12-2-26-2-17 0-22 2-13 7 10 7 39 3 39-5zm-893-1c-3-3-12-4-19-1-8 3-5 6 6 6 11 1 17-2 13-5zm-105-30c-2-14 4-20 18-21 18-2 19 1 10 13-8 8-8 14-2 14 13 0 24-28 13-34-17-11-46 2-46 20 0 10-4 23-10 27-6 5-4 7 5 4 8-2 14-13 12-23zm68 16c0-5-4-10-10-10-5 0-10 5-10 10 0 6 5 10 10 10 6 0 10-4 10-10zm265-23c-10-15-22-23-33-20-12 3-18-2-19-17-2-18 1-19 13-10 8 8 14 8 14 2 0-13-28-24-34-13-11 18 2 46 22 45 12 0 26 9 33 23 7 13 14 21 16 19 3-2-3-15-12-29zm110 13c0-7-6-14-13-16-7-1-8 0-2 3 16 8 12 19-9 20-13 1-18-5-17-20 1-13-6-23-16-25s-18 1-18 7 6 8 14 5c10-4 14 0 12 13-2 10-2 21 1 25 7 13 48 2 48-12zm65 10c-8-5-18-6-22-4-4 3-8 1-8-5 0-5 6-12 13-14 9-4 9-6 0-6-14-1-26 16-19 27 2 4 15 8 28 9 17 2 19 0 8-7zm58-26c-4-25-50-26-54-1-1 9 2 17 8 17s8-6 5-14c-4-10 0-14 14-13 11 1 19 9 19 20s-4 15-12 11c-7-5-8-3-3 5 10 17 28-2 23-25zm53 19c13-16 12-17-3-4-16 12-18 11-18-7 0-15 5-19 23-16 20 4 20 4 2-5-11-4-23-7-27-4-10 5-10 37-1 46s9 9 24-10zm185-6c1-9-2-15-7-11-5 3-7 9-4 14 3 4 0 11-5 13-6 3-5 4 1 3 7-1 13-10 15-19zm119-7c0-19-5-25-24-25-16 0-25 6-27 19-4 27 2 33 28 32 17-1 23-7 23-26zm47-15c3 4 9 2 12-3 3-6-1-9-10-8-16 3-34 24-33 41 0 6 5 0 12-13 7-12 16-20 19-17zm-868 17c2-4 0-14-6-22-8-12-9-11-4 3 5 15 2 17-17 12-17-5-19-4-7 4 18 13 27 14 34 3zm136-2c8-5 11-10 5-10-5 0-17 5-25 10s-10 10-5 10c6 0 17-5 25-10zm128-4c-7-8-15-12-17-11-5 6 10 25 20 25 5 0 4-6-3-14zm342 4c0-5-4-10-10-10-5 0-10 5-10 10 0 6 5 10 10 10 6 0 10-4 10-10zm80-25c0-5-5-3-10 5s-10 20-10 25c0 6 5 3 10-5s10-19 10-25zm60 25c11-7 11-10 2-10-7 0-10-5-6-12s3-8-5-4c-6 4-9 11-6 16 3 4-1 11-7 13-7 3-8 6-3 6 6 0 17-4 25-9zm-165-30c-3-5 2-11 10-13 13-4 13-5 0-3-9 0-15 4-13 8s-6 14-17 23c-19 16-19 16 3 5 12-6 20-15 17-20zm-549 8c4-6 3-8-4-4-6 4-10-1-9-13 0-11 12-24 25-30 14-7 20-16 16-23-5-8-2-9 9-5 10 3 17 2 17-4s-8-9-17-7c-10 2-17 10-15 17 2 9-3 11-13 7-9-3-14-2-11 3s0 11-8 14c-14 6-16 57-2 57 3 0 8-5 12-12zm79 4c-5-4-12-16-13-27-3-16-1-18 9-7 7 6 17 12 23 12 5 0 1-6-9-14-30-21-40-5-26 42 1 1 7 2 14 2s8-3 2-8zm251-22c1-16-1-30-5-30-3 0-7 14-7 30-1 17 1 30 5 30 3 0 7-13 7-30zm296 16c-2-5 2-13 10-18 10-8 10-9-2-5-8 2-14 10-12 16 1 6-7 11-17 11-14 0-18-5-14-19 3-10 1-21-4-24-7-4-9 30-4 51 1 2 11 2 24 0 12-2 20-7 19-12zm268 4c0-5-8-10-17-10-15 0-16 2-3 10 19 12 20 12 20 0zm-223-22c-2-12-9-24-15-26-7-2-10-8-7-12 3-5 0-12-6-16-8-4-9-3-5 4s1 12-6 12c-7 1-3 6 9 13 21 12 23 15 23 37 0 6 2 10 5 10s3-10 2-22zm240 1c-1-11-10-25-20-31-15-8-18-7-12 3 6 9 3 11-9 6-10-4-15-3-11 4 4 5 15 7 26 4 11-4 19-3 18 2-2 14 1 33 5 33 3 0 4-9 3-21zm-1035-14c3 3 12-5 21-19 9-13 13-26 10-30-10-10-33-7-33 4 0 5 7 7 16 3 14-5 14-3 3 15-7 11-16 19-20 16-5-2-13 6-19 18-10 21-10 21 3 6 8-10 16-15 19-13zm53 15c-27-12-43-12-25 0 8 5 22 9 30 9 10 0 8-3-5-9zm279-5c-4-8-8-15-10-15s-4 7-4 15 4 15 10 15c5 0 7-7 4-15zm96 11c0-2-7-6-15-10-8-3-15-1-15 4 0 6 7 10 15 10s15-2 15-4zm70-6c0-5-8-10-17-10-15 0-16 2-3 10 19 12 20 12 20 0zm80-5c0-8-2-15-4-15s-6 7-10 15c-3 8-1 15 4 15 6 0 10-7 10-15zm60 2c0-8-3-16-6-20-8-8-34 3-34 15 0 6 8 4 17-3 15-12 16-12 10 4-3 9-2 17 3 17 6 0 10-6 10-13zm177-9c-3-8-6-5-6 6-1 11 2 17 5 13 3-3 4-12 1-19zm63 5c0-3-7-2-16 1-12 5-14 1-9-17 5-19 4-20-5-4-13 21-5 38 15 30 8-3 15-7 15-10zm-525-3c-4-6 3-9 16-7 18 2 23-3 23-23s-5-25-23-23c-14 2-20-1-15-9 4-7 3-8-5-4-16 11-2 28 18 21 12-3 17 1 17 15 0 13-5 19-14 15-17-6-34 3-27 16 4 5 8 9 11 9s2-4-1-10zm185 0c0-5-7-10-15-10-9 0-12-6-9-15 4-8 2-15-4-15-15 0-8 30 9 41 18 11 19 11 19-1zm437 4c-3-3-12-4-19-1-8 3-5 6 6 6 11 1 17-2 13-5zm-803-20c3-8 2-12-4-9s-10 10-10 16c0 14 7 11 14-7zm79-16c-2-5-13-6-24-3-15 5-18 3-13-12 5-14 4-15-4-3-14 19-5 32 19 25 15-5 18-3 13 12-5 14-4 15 4 3 6-8 8-18 5-22zm398 1c-5-13-10-19-10-12-1 15 10 45 15 40 3-2 0-15-5-28zm85 4c-1-16-8-27-14-25-7 1-12-7-12-17 0-14 6-19 20-16 11 2 23-1 26-7 4-7 2-8-4-4-7 4-12 1-12-6 0-10-2-10-9 0-4 8-12 13-17 13-5-1-9 9-9 22s5 21 13 19c7-1 12 3 11 10-2 19 0 38 5 38 3 0 4-12 2-27zm204 17c0-5-4-10-10-10-5 0-10 5-10 10 0 6 5 10 10 10 6 0 10-4 10-10zm-872-13c14 4 14 3 2-5-16-12-30-7-29 11 0 9 2 9 5 0 3-7 13-9 22-6zm813-11c-10-12-9-15 8-13 15 1 20 6 16 17-5 11-3 12 6 3 6-6 9-16 5-21-7-12-47-10-45 3 3 20 12 36 17 31 3-3-1-12-7-20zm-561 4c0-5-4-10-10-10-5 0-10 5-10 10 0 6 5 10 10 10 6 0 10-4 10-10zm110 0c0-5-4-10-10-10-5 0-10 5-10 10 0 6 5 10 10 10 6 0 10-4 10-10zm53 3c-7-2-13-9-13-14 0-6 5-7 12-3 7 5 8 3 3-5-5-9-11-9-17-3-12 12-2 32 15 31 9 0 9-2 0-6zm82-3c3-6-1-7-9-4-18 7-21 14-7 14 6 0 13-4 16-10zm35 0c0-5-4-10-10-10-5 0-10 5-10 10 0 6 5 10 10 10 6 0 10-4 10-10zm95 0c3-5 2-10-4-10-5 0-13 5-16 10-3 6-2 10 4 10 5 0 13-4 16-10zm268 3c-20-7-15-19 7-20 13-1 18 2 14 9s-2 8 5 4c6-4 9-12 6-17-6-9-40-7-51 3-9 9 5 28 19 27 9 0 9-2 0-6zm97 3c0-3-4-8-10-11-5-3-10-1-10 4 0 6 5 11 10 11 6 0 10-2 10-4zm-768-48c-6-6-12-6-17 3-6 8-4 10 5 4 9-5 10-1 6 16-6 21-6 22 5 6 7-13 8-22 1-29zm323 22c-5-16-3-19 12-14s15 4 3-5c-19-13-33 0-24 22 9 24 17 21 9-3zm483-5c-3-3-9 2-12 12-6 14-5 15 5 6 7-7 10-15 7-18zm-986-4c-2-8 3-11 11-8s20 1 28-4c9-5 4-7-16-5-17 1-29 8-27 14 1 7-7 12-18 12s-19-5-17-12c1-6-11-13-28-14-20-2-25 0-16 5 8 5 20 7 28 4s13-2 12 3c-3 20 2 25 24 22 12-2 21-9 19-17zm342 3c3-8 2-12-4-9s-10 10-10 16c0 14 7 11 14-7zm101-15c0-20-4-23-24-21-16 3-21 0-16-9 5-8 4-10-4-5-17 11-2 29 19 23 14-3 18 1 17 14-1 14-7 18-22 13-16-4-17-3-5 5 22 15 35 8 35-20zm257 24c-12-2-20-9-17-14 10-15-22-22-42-10-15 9-13 10 10 5 15-4 27-2 26 2-3 19 2 24 24 23l22-2zm223-21c0-12-3-21-7-19-4 1-14-7-23-18-16-19-16-19-5 3 6 12 16 20 21 16 13-8 7 28-6 39-6 5-4 7 5 4 8-2 15-13 15-25zm41 16c4-7 3-8-4-4s-12 2-12-5-3-10-6-6c-6 5 3 27 11 27 2 0 7-5 11-12zm-1071-39c6 0 11-12 12-27 2-19 0-23-6-13-5 8-7 20-4 28s0 13-8 11-14 7-16 22c-2 24-2 24 5 2 4-13 12-23 17-23zm191 5c-3-8-11-12-17-8-8 4-9-1-5-17 6-20 5-21-4-6-12 19-4 41 11 32 5-4 9 4 10 17 0 13 3 17 6 10s2-20-1-28zm138 21c3-8 1-15-4-15-6 0-10 7-10 15s2 15 4 15 6-7 10-15zm-77-1c-3-3-12-4-19-1-8 3-5 6 6 6 11 1 17-2 13-5zm173-10c0-2-7-4-15-4s-15 4-15 10c0 5 7 7 15 4 8-4 15-8 15-10zm70 6c0-5-8-10-17-10-15 0-16 2-3 10 19 12 20 12 20 0zm333-5c-3-10 0-15 8-13 9 2 13-5 12-19-2-14 2-22 10-20 18 3 15-46-3-50-9-3-11-1-5 4 15 13 18 44 3 41-8-2-12 5-11 19 2 13-2 22-9 20-7-1-14 6-16 16-2 9 1 17 7 17s8-7 4-15zm42-3c-3-3-11 0-18 7-9 10-8 11 6 5 10-3 15-9 12-12zm48-2c-10-11-19-20-21-20-1 0 2 9 8 20s15 20 20 20c6 0 2-9-7-20zm82 10c-3-5-12-10-18-10-7 0-6 4 3 10 19 12 23 12 15 0zm-911-35c-3-17 0-24 8-23 8 2 13-7 13-22s-5-24-12-22c-7 1-13-7-13-18s6-19 13-17c7 1 12-8 12-22 0-19-5-24-27-25-14-1-24 2-21 7s14 7 24 4c14-4 19 0 19 14 0 10-6 18-12 17-8-2-13 7-13 22s5 24 13 23c6-2 12 6 12 16 0 14-6 19-20 16-11-2-23 1-26 7-4 7-2 8 4 4 12-7 16 5 13 32-1 6 3 12 8 12s8-11 5-25zm166 15c-8-5-18-6-22-4-4 3-8 0-8-7s-3-10-6-6c-10 10 4 23 28 24 17 2 19 0 8-7zm57-22c-4-15-1-18 16-16 18 2 22-2 22-22 0-15-5-24-13-22-8 1-11-6-8-23 3-14 1-25-4-25s-8 12-6 28c1 15 8 26 14 25 7-2 12 5 12 15 0 13-7 18-22 18-19-1-22 4-20 23 3 16 0 21-9 16-8-5-10-4-5 4 11 17 28 2 23-21zm75 7c-2-15 4-21 18-22 18-2 19 1 10 13-8 8-8 14-2 14 13 0 24-28 13-34-18-11-46 2-45 22 0 14-5 20-18 19-10-1-18-6-18-11s-3-7-6-3c-11 11 5 24 28 23 17-1 22-6 20-21zm68 15c0-5-4-10-10-10-5 0-10 5-10 10 0 6 5 10 10 10 6 0 10-4 10-10zm114-14c-3-9-10-16-15-16s-4 9 3 20c14 22 21 20 12-4zm99-5c-2-12 1-20 5-17 4 2 14 0 22-5 11-7 8-8-10-5-18 2-24 9-23 23 1 12-5 19-16 20-12 1-17-5-17-19 1-20-27-33-45-22-11 6 0 34 13 34 6 0 6-6-2-14-9-12-8-15 10-13 12 1 20 8 19 17-2 27 1 30 24 26 16-2 21-9 20-25zm146-11c0-10-3-8-9 5-12 27-12 43 0 25 5-8 9-22 9-30zm115 16c-3-9-10-16-15-16s-4 9 3 20c14 22 21 20 12-4zm117 1c-10-9-11-8-5 6 3 10 9 15 12 12s0-11-7-18zm-1001-2c0-8-4-15-10-15-5 0-7 7-4 15 4 8 8 15 10 15s4-7 4-15zm90 0c0-8-4-15-10-15-5 0-7 7-4 15 4 8 8 15 10 15s4-7 4-15zm759-30c0-5-4-3-9 5s-9 22-9 30c0 16 17-16 18-35zm65 23c-17-19-17-21-1-15 9 4 17 2 17-3 0-13-27-13-35-1-3 5 2 17 11 25 23 24 30 19 8-6zm123 8c-10-8-18-18-17-23 1-4-6-9-14-11-9-2-16 1-16 7s7 7 17 4c10-4 14-2 9 5-3 6 2 15 11 21 26 15 31 13 10-3zm-862-26c6 0 11-6 13-14 2-9-1-16-7-16s-8 7-4 15c3 10 1 15-8 13-7-2-14 6-16 17-3 18-2 18 5 2 4-10 12-18 17-17zm60 20c3-5 2-10-4-10-5 0-13 5-16 10-3 6-2 10 4 10 5 0 13-4 16-10zm205-5c0-8-2-15-4-15s-6 7-10 15c-3 8-1 15 4 15 6 0 10-7 10-15zm225-3c-3-3-11 0-18 7-9 10-8 11 6 5 10-3 15-9 12-12zm80 8c3-6-1-7-9-4-18 7-21 14-7 14 6 0 13-4 16-10zm-537-25c-3-3-9 2-12 12-6 14-5 15 5 6 7-7 10-15 7-18zm495 4c-8-8-13-7-18 2-5 8-4 10 3 5 7-4 12-2 12 5s3 9 7 6c4-4 2-12-4-18zm-753-15c0-8-4-14-10-14-5 0-6 7-3 17 5 12 3 14-7 8-9-5-11-4-6 4 9 14 26 5 26-15zm540 16c0-5-4-10-10-10-5 0-10 5-10 10 0 6 5 10 10 10 6 0 10-4 10-10zm236-16c-3-15-8-29-11-32s-3 5-1 19c2 13 5 27 5 32 1 4 3 7 6 7s3-12 1-26zm341-5c2-18 1-20-6-9-5 8-8 17-5 21 2 4-1 10-6 12-6 3-5 4 1 3 7-1 14-13 16-27zm-121-15c-3-8-11-12-17-8-9 5-10-1-5-22 5-24 4-26-5-11-12 21-4 51 11 42 6-3 10 4 11 17 0 13 3 17 6 10s2-20-1-28zm141 14c-3-8-6-5-6 6-1 11 2 17 5 13 3-3 4-12 1-19zm-1067 2c11-8 8-9-13-4-20 5-27 3-25-7 2-8-7-14-22-16l-25-2 25 8c14 5 21 9 17 10-13 2 3 21 16 21 7 0 19-5 27-10zm135 0c3-6-1-7-9-4-18 7-21 14-7 14 6 0 13-4 16-10zm105 0c11-8 7-9-14-4s-27 4-22-5c4-6 0-14-8-17-9-3-14-9-12-13 3-4-5-8-17-8-18-2-17 1 8 17 17 11 26 20 22 20-5 0-5 5-2 10 8 13 26 13 45 0zm93-13c12 12 19-26 8-44-9-15-10-13-5 11 5 20 3 27-4 22-6-4-16 4-22 16-10 21-10 21 3 6 8-10 17-15 20-11zm74 17c-2-3-17-7-33-10-17-2-24-1-17 4 13 8 58 14 50 6zm103-4c0-5-8-10-17-10-15 0-16 2-3 10 19 12 20 12 20 0zm80-5c0-8-2-15-4-15s-6 7-10 15c-3 8-1 15 4 15 6 0 10-7 10-15zm90-1c0-2-7-4-15-4s-15 4-15 10c0 5 7 7 15 4 8-4 15-8 15-10zm95 6c3-6-1-7-9-4-18 7-21 14-7 14 6 0 13-4 16-10zm105 0c18-12 2-12-25 0-13 6-15 9-5 9 8 0 22-4 30-9zm91-14c15 9 22-23 10-43-9-15-10-13-5 10 5 20 3 27-7 25-7-2-14 4-14 12-1 8 0 9 2 2 3-7 9-10 14-6zm44 14c-3-5-12-10-18-10-7 0-6 4 3 10 19 12 23 12 15 0zm-547-25c-3-3-9 2-12 12-6 14-5 15 5 6 7-7 10-15 7-18zm82 15c0-5-6-10-13-10s-13-9-14-21c-2-17 0-19 14-8 14 13 81 24 69 12-3-3-17-7-30-7-13-1-31-7-39-14s-18-9-21-4c-8 14 0 43 15 53 18 11 19 11 19-1zm95-29c-3-14 2-19 16-18 21 1 25 12 9 20-6 3-5 4 2 3 24-5 14-31-12-31-20 0-25 5-24 23 1 12-4 22-12 22s-14 5-14 10c0 7 6 7 19 0 12-6 18-18 16-29zm-520 19c3-5 0-12-6-16-7-4-9-3-5 4s-1 10-14 9c-22-1-27-13-7-20 9-4 9-6 0-6-14-1-26 16-19 27 6 11 45 12 51 2zm323-11c2-8 0-10-5-4-13 15-44 18-41 3 2-7-3-13-11-13s-15 6-17 13c-1 7 0 8 3 2 5-12 24-14 22-2-3 17 2 22 23 19 12-2 24-10 26-18zm317 11c3-5 0-12-6-16-7-4-9-3-5 4s-1 10-14 9c-22-1-27-13-7-20 9-4 9-6 0-6-14-1-26 16-19 27 6 11 45 12 51 2zm73-4c-10-7-16-15-13-17 2-3-6-6-17-6-19-2-18 0 7 17 34 22 49 26 23 6zm184-8c-7-7-12-8-12-2s3 14 7 17c3 4 9 5 12 2 2-3-1-11-7-17zm110-1c6-11 5-17-2-17-5 0-10 6-10 13s-9 13-20 13-20-6-20-13c0-16-16-17-26-1-4 6-3 8 3 5 6-4 13-1 16 6 7 19 47 14 59-6zm-1145-8c2-16-1-19-9-11-5 5-7 15-4 21 10 15 12 14 13-10zm243 11c0-5-5-10-11-10-5 0-7 5-4 10 3 6 8 10 11 10 2 0 4-4 4-10zm640 0c0-5-5-10-11-10-5 0-7 5-4 10 3 6 8 10 11 10 2 0 4-4 4-10zm-800-35c0-5-5-3-10 5s-10 20-10 25c0 6 5 3 10-5s10-19 10-25zm245 25c3-5 2-10-4-10-5 0-13 5-16 10-3 6-2 10 4 10 5 0 13-4 16-10zm177-7c-11-18-42-27-42-11 0 6 7 8 15 4 9-3 15 0 15 9 0 8 5 15 10 15 7 0 8-6 2-17zm463 8c3-6-3-9-14-8-11 0-17 5-15 9 7 11 22 10 29-1zm-812-42c-4-4-15-4-23 2-12 9-12 10 3 5s17-2 12 17c-5 20-5 20 6 4 6-11 7-23 2-28zm643 4c-3-4-6-1-6 6s-4 10-9 6c-5-3-13 0-17 6-4 8-3 9 4 5s12-1 12 6c0 8 5 6 11-5 6-10 8-21 5-24zm259 28c3-6-5-15-17-21-21-10-21-10-6 3 10 8 15 17 11 20-3 4-4 7 0 7 3 0 8-4 12-9zm-1083-20c-2-10 5-12 25-7 23 5 25 4 10-5-20-12-52-5-43 10 4 5-2 12-11 15-14 4-13 4 2 2 11-1 19-8 17-15zm250 12c-6-2-9-10-6-15 4-7 2-8-5-4-13 9-5 26 12 25 9 0 8-2-1-6zm164-5c5-7 3-8-6-3-10 6-12 4-7-8 3-10 2-17-3-17-11 0-13 23-3 33 9 9 11 9 19-5zm239 4c-15-11-18-43-3-40 7 2 13-3 13-11s-6-15-13-17c-7-1-8 0-2 3 14 7 12 23-2 21-7-2-13 6-14 17-1 26 4 35 19 35 8 0 8-3 2-8zm91-18c-3-15-8-29-11-32s-3 5-1 19c2 13 5 27 5 32 1 4 3 7 6 7s3-12 1-26zm154 22c0-2-7-7-16-10-8-3-12-2-9 4 6 10 25 14 25 6zm25-26c-3-14 2-20 16-20 10 0 18 6 17 13-2 7 7 12 22 12s24-5 23-12c-2-7 6-13 16-13 14 0 18 5 14 19-3 10-1 21 4 24s8-7 7-21c-1-22-6-27-25-27-14 0-23 5-21 13 1 6-7 12-18 12s-19-6-17-12c1-8-8-13-20-13-13 0-23 4-22 10 0 5-8 12-18 16-17 7-17 8 0 8 11 1 15 6 11 13-4 6-3 8 4 4 6-3 9-15 7-26zm225 20c0-5-4-10-10-10-5 0-10 5-10 10 0 6 5 10 10 10 6 0 10-4 10-10zm-926-15c3-8 1-15-4-15-6 0-10 7-10 15s2 15 4 15 6-7 10-15zm260-17c-3-4-1-8 5-8 5 0 12 5 14 10 3 6 4 5 3-2-5-23-29-14-33 12-2 18-1 21 6 10 5-8 7-18 5-22zm380 17c3-8 1-15-4-15-6 0-10 7-10 15s2 15 4 15 6-7 10-15zm-894-9c0-20-17-29-26-15-5 8-3 9 6 4 10-6 12-4 7 8-3 10-2 17 3 17 6 0 10-6 10-14zm313-5c-2-6 6-11 17-11s19 6 18 13c-2 7 7 12 20 12 12 0 22-4 21-10 0-5 10-13 23-17 22-7 22-7-2-5-14 1-24 8-22 15 1 6-7 12-18 12s-19-6-17-12c1-8-8-13-20-13-13 0-23 4-22 9 0 5-5 13-13 18-10 8-10 9 2 5 8-2 14-10 13-16zm174-3c-3-8-6-5-6 6-1 11 2 17 5 13 3-3 4-12 1-19zm87 7c-4-8-8-15-10-15s-4 7-4 15 4 15 10 15c5 0 7-7 4-15zm141-3c-3-3-11 0-18 7-9 10-8 11 6 5 10-3 15-9 12-12zm102 12c-3-3-12-4-19-1-8 3-5 6 6 6 11 1 17-2 13-5zm333 2c0-2-7-6-15-10-8-3-15-1-15 4 0 6 7 10 15 10s15-2 15-4zm70-8c0-4-7-8-15-8s-15 4-15 8c0 5 7 9 15 9s15-4 15-9zm-625-7c-3-5 4-13 16-16 11-4 18-9 16-12-9-8-48 18-42 28 4 5 8 9 11 9s3-4-1-9zm583-16c-3-3-9 2-12 12-6 14-5 15 5 6 7-7 10-15 7-18zm-1162-9c0-14-5-21-9-17s-5 15-1 24c9 24 12 21 10-7zm178-3c-1-15 4-21 17-20 11 1 19 9 19 20s-4 15-12 11c-7-5-8-3-3 5 10 17 28-2 23-25-2-12-12-19-28-19-19 0-25 5-24 22 1 15-4 21-17 20-22-1-25-13-6-20 9-4 9-6 0-6-15-1-26 16-19 28 3 4 16 8 28 7 17-1 23-7 22-23zm100 11c3-8 2-12-4-9s-10 10-10 16c0 14 7 11 14-7zm362-20c3-16 2-26-1-23-3 4-8 19-11 35s-2 26 1 23c3-4 8-19 11-35zm164 26c-8-5-18-6-23-3-6 3-8-5-5-20s1-24-3-21c-9 5-12 37-4 45 2 3 14 5 27 6 17 2 19 0 8-7zm55-21c0-18-5-24-24-24-15 0-25 6-27 18-1 9 2 17 8 17s8-6 5-14c-4-10 0-14 14-13 11 1 19 9 19 20 0 10-4 16-9 12-5-3-12-1-15 4-4 5 2 8 11 7 12-2 18-12 18-27zm56 14c13-16 12-17-3-4-16 12-18 11-18-7 0-16 5-20 18-16 14 5 14 4 2-4-8-6-18-8-22-6-10 6-11 38-1 47 9 9 9 9 24-10zm185-8c2-10 0-23-2-27-7-11-34 10-34 25 0 6 7 2 15-9 15-19 16-19 13 1-2 11-7 24-13 28-6 5-4 7 4 5s15-13 17-23zm39-4c-3-12 1-17 15-18 11-1 19 4 17 10-1 7 8 11 20 10 13-2 22 2 20 9-1 7 7 13 18 15 18 3 18 2 2-5-10-4-18-12-18-17 0-6-9-9-20-8-11 2-18-3-16-10 1-7-8-12-23-12-20 1-24 5-23 23 2 15-1 21-9 16-7-4-8-3-4 5 11 17 28 2 21-18zm-862-15c21 4 21 4 2-5-26-11-35-5-34 22l2 22 4-21c3-16 10-21 26-18zm-243 14c0-5-4-10-10-10-5 0-10 5-10 10 0 6 5 10 10 10 6 0 10-4 10-10zm29-6c-11-14-10-15 7-12 10 1 25 10 32 18 11 13 12 12 3-6s-33-24-60-15c-5 1 20 31 26 31 3 0 0-7-8-16zm301 6c0-5-4-10-10-10-5 0-10 5-10 10 0 6 5 10 10 10 6 0 10-4 10-10zm97-44c2-16 1-18-6-6-5 8-8 17-5 21 2 4-3 9-11 13-8 3-15 10-15 16 0 19 34-21 37-44zm42 39c3-3-7-4-23-1s-31 8-35 11c-3 3 7 4 23 1s31-8 35-11zm80 0c3-3-7-4-23-1s-31 8-35 11c-3 3 7 4 23 1s31-8 35-11zm421 5c0-5-4-10-10-10-5 0-10 5-10 10 0 6 5 10 10 10 6 0 10-4 10-10zm-664-29c-3-4 4-13 15-20 18-11 20-10 17 11-2 18 2 23 20 23 12 0 22-4 21-8 0-5 7-14 17-21 18-13 12-36-9-36-7 0-6 4 3 10 13 9 13 12-3 21-9 6-15 14-12 20 4 5-3 9-15 9s-18-4-15-10c4-6 4-18 1-26-5-13-9-13-31 2-14 9-23 19-20 22 2 3-3 11-13 19-15 13-15 13 6 3 12-6 20-14 18-19zm358 18c-4-7 2-9 17-7 20 2 24-1 24-22 0-15-5-24-12-22-7 1-13-7-13-18s6-19 13-17c7 1 12-8 12-20 0-13-4-22-8-20-5 1-15-9-22-23-8-14-14-21-15-17 0 17 21 47 31 42 5-4 9 3 9 14 0 12-6 20-12 19-8-2-13 7-13 22s5 24 13 23c6-2 12 6 12 18 0 11-4 17-10 14-15-9-43 3-35 15 3 5 8 10 11 10s2-5-2-11zm-583-22c-10-9-11-8-5 6 3 10 9 15 12 12s0-11-7-18zm425-5c4-24-11-38-22-21-4 7-3 9 4 5s10 1 9 14c-1 21-17 29-17 8 0-6-3-9-6-5-9 9 6 29 19 24 5-1 12-13 13-25zm84 2c0-8-4-14-10-14-5 0-6 7-3 17 5 12 3 14-7 8-9-5-11-4-6 4 9 14 26 5 26-15zm353 8c-2-6 6-12 17-12s19 6 18 13c-2 7 7 12 22 12s24-5 23-12c-2-7 4-13 12-13s15-5 15-10c0-7-7-7-20 0-11 6-18 15-15 21 4 5-3 9-14 9-14 0-19-5-16-20 2-11-1-23-7-26-6-4-8-2-4 4s-3 12-16 14-22 8-20 13c2 6-7 13-20 17-22 7-22 7 2 5 14-1 24-8 23-15zm282 8c-3-5-1-10 6-10s10-3 6-6c-9-9-28 6-22 17 4 5 8 9 11 9s2-4-1-10zm-778-22c-3-8-6-5-6 6-1 11 2 17 5 13 3-3 4-12 1-19zm-417-5c0-3-7-2-16 1-12 5-14 1-9-17 5-19 4-20-5-4-13 21-5 38 15 30 8-3 15-7 15-10zm100 7c0-5-8-10-17-10-15 0-16 2-3 10 19 12 20 12 20 0zm80-5c0-8-2-15-4-15s-6 7-10 15c-3 8-1 15 4 15 6 0 10-7 10-15zm60 2c0-8-3-16-6-20-8-8-34 3-34 15 0 6 8 4 17-3 15-12 16-12 10 4-3 9-2 17 3 17 6 0 10-6 10-13zm390 3c11-8 7-9-14-4-20 5-27 3-22-4 4-6-4-16-16-22-22-11-22-10-4 4 11 9 16 16 12 16s-4 5-1 10c8 13 26 13 45 0zm110 0c0-5-8-10-17-10-15 0-16 2-3 10 19 12 20 12 20 0zm77-5c0-8-4-15-9-15-4 0-8 7-8 15s4 15 8 15c5 0 9-7 9-15zm63 2c0-8-3-16-6-20-8-8-34 3-34 15 0 6 8 4 17-3 15-12 16-12 10 4-3 9-2 17 3 17 6 0 10-6 10-13zm174-2c-4-8-8-15-10-15s-4 7-4 15 4 15 10 15c5 0 7-7 4-15zm96-1c0-2-7-4-15-4s-15 4-15 10c0 5 7 7 15 4 8-4 15-8 15-10zm23-9c-7-21-12-19-10 4 0 11 5 18 9 15s5-11 1-19zm-1033 5c0-5-6-10-13-10s-13-9-13-20c0-13 6-18 19-17 14 1 21-5 23-23 3-18 2-21-5-10-5 8-7 18-5 22 3 4-5 7-17 5-16-1-22 4-24 21-1 13 5 27 14 32 20 12 21 12 21 0zm640 0c0-5-7-10-15-10-9 0-12-6-9-15 4-8 2-15-4-15-15 0-8 30 9 41 18 11 19 11 19-1zm336-24c1-9-2-16-8-16s-8 7-4 15c3 9 0 15-9 15-8 0-15 5-15 10 0 17 33-5 36-24zm-1056 14c0-5-4-10-10-10-5 0-10 5-10 10 0 6 5 10 10 10 6 0 10-4 10-10zm191-21c-5-13-10-19-10-12-1 15 10 45 15 40 3-2 0-15-5-28zm85 4c-1-16-8-27-14-25-7 1-12-7-12-18s5-19 12-17c6 1 13-11 14-28 2-20 0-25-5-16-5 8-7 20-4 28s0 13-8 11c-9-2-14 6-14 22 0 15 5 24 13 22 7-1 12 3 11 10-2 19 0 38 5 38 3 0 4-12 2-27zm155 4c-10-9-11-8-5 6 3 10 9 15 12 12s0-11-7-18zm200-4c-12-20-14-14-5 12 4 9 9 14 11 11 3-2 0-13-6-23zm200-4c-5-13-10-19-10-12-1 15 10 45 15 40 3-2 0-15-5-28zm85 4c-1-16-8-27-14-25-7 1-12-7-12-17 0-14 5-18 19-14 10 3 21 1 24-4s-7-8-21-7c-22 1-27 6-27 25 0 14 5 23 13 21 7-1 12 3 11 10-2 19 0 38 5 38 3 0 4-12 2-27zm259 17c3-5 0-12-6-16-7-4-9-3-5 4s-1 10-14 9c-25-2-25-6-2-24 15-13 15-13-5-3-22 10-28 21-18 31 8 9 45 8 50-1zm-1210-29c-6-5-25 10-25 20 0 5 6 4 14-3s12-15 11-17zm389 18c-4-8 1-9 17-5 20 6 21 5 6-4-19-12-41-4-32 11 4 5 8 9 11 9s2-5-2-11zm128 4c-6-2-10-9-7-14 4-5-1-6-10-3-10 4-15 2-13-7 4-19-44-18-49 1-3 9-1 11 4 5 11-13 47-19 39-6-7 10 21 31 39 30 6 0 4-3-3-6zm70-15c-7-7-12-8-12-2s3 14 7 17c3 4 9 5 12 2 2-3-1-11-7-17zm-529 5c-7-2-13-9-13-14 0-6 5-7 12-3 7 5 8 3 3-5-5-9-11-9-17-3-12 12-2 32 15 31 9 0 9-2 0-6zm117-3c0-5-4-10-10-10-5 0-10 5-10 10 0 6 5 10 10 10 6 0 10-4 10-10zm94 2c2-4 0-14-6-22-8-12-9-12-5 2 3 9 1 19-6 22-9 3-9 5 0 5 6 1 14-3 17-7zm429 1c-7-2-13-9-13-14 0-6 4-8 8-5 4 2 14 0 22-5 12-7 10-8-7-6-12 2-25 6-29 9-9 9 5 28 19 27 9 0 9-2 0-6zm82-3c3-6-1-7-9-4-18 7-21 14-7 14 6 0 13-4 16-10zm35 0c0-5-4-10-10-10-5 0-10 5-10 10 0 6 5 10 10 10 6 0 10-4 10-10zm95 0c3-5 2-10-4-10-5 0-13 5-16 10-3 6-2 10 4 10 5 0 13-4 16-10zm85-31c0-14-16-18-30-7-12 8-12 9 3 4 20-6 21-3 6 27-10 21-10 21 5 3 9-11 16-23 16-27zm20 31c0-5-4-10-10-10-5 0-10 5-10 10 0 6 5 10 10 10 6 0 10-4 10-10zm40 6c0-2-7-7-16-10-8-3-12-2-9 4 6 10 25 14 25 6zm76-7c3-6 2-15-4-21s-12-6-17 3c-5 8-4 10 3 5 7-4 12-3 12 3 0 5-6 12-12 14-10 4-10 6-1 6 6 1 15-4 19-10zm-941-19c-5-16-3-19 12-14s15 4 3-5c-19-13-33 0-24 22 9 24 17 21 9-3zm180-1c-4-5-12-9-18-8-9 0-8 2 1 6 6 2 9 10 6 15-4 7-2 8 5 4 6-4 9-12 6-17zm456-2c-10-9-11-8-5 6 3 10 9 15 12 12s0-11-7-18zm402-18c-4-4-15-4-23 2-12 9-12 10 3 5s17-2 12 17c-5 20-5 20 6 4 6-11 7-23 2-28zm-1253 27c0-3-4-8-10-11-5-3-10-1-10 4 0 6 5 11 10 11 6 0 10-2 10-4zm56-32c3-16 2-26-1-23-3 4-8 19-11 35s-2 26 1 23c3-4 8-19 11-35zm426-8c4 3 11-4 18-15 7-14 7-21 0-21-5 0-10 7-10 16 0 8-5 12-10 9-6-3-13 1-16 9-3 9-9 14-13 12-4-3-8 5-8 17-2 19 0 18 16-6 10-15 20-24 23-21zm110 25c-2-10 4-12 23-7 14 4 25 2 25-2 0-5-12-9-27-8-16 1-27 6-25 11 2 6-7 13-20 17-22 7-22 7 2 5 15-2 24-8 22-16zm203-12c0-14-5-23-12-21-7 1-13-5-13-13s-4-15-10-15c-5 0-6 7-3 17 5 12 3 14-7 8-8-5-11-4-6 3 3 6 15 9 26 7 13-3 18 2 17 16-1 12-7 17-15 14-7-3-10 0-7 6 11 17 30 4 30-22zm125 11c6-11 8-20 6-20-3 0-10 9-16 20s-8 20-6 20c3 0 10-9 16-20zm180 9c12-8 11-9-5-5-15 5-21 1-22-13-1-13 3-17 17-14 25 7 33-12 12-28-16-13-16-12-2 4 13 17 12 19-10 15-19-2-25 2-26 17-1 36 9 43 36 24zm76-15c-3-15-8-29-11-32s-3 5-1 19c2 13 5 27 5 32 1 4 3 7 6 7s3-12 1-26zm-999-6c-3-8-6-5-6 6-1 11 2 17 5 13 3-3 4-12 1-19zm-150 6c-3-3-12-4-19-1-8 3-5 6 6 6 11 1 17-2 13-5zm73-4c0-5-8-10-17-10-15 0-16 2-3 10 19 12 20 12 20 0zm274-5c21-16 31-51 18-59-4-2-16 2-27 10-10 8-14 14-9 14 6 0 16-6 23-12 10-11 12-9 9 7-3 22-28 46-40 39-5-3-8 0-8 5 0 15 11 13 34-4zm56 11c0-2-7-6-15-10-8-3-15-1-15 4 0 6 7 10 15 10s15-2 15-4zm95-6c-3-5-12-10-18-10-7 0-6 4 3 10 19 12 23 12 15 0zm33-6c-2-8-7-14-12-14-5 1-13-4-18-12-8-10-9-10-5 2 2 8 10 14 17 12 8-2 10 3 7 13-4 8-2 15 4 15s9-7 7-16zm312 6c-8-5-22-9-30-9-10 0-8 3 5 9 27 12 43 12 25 0zm280-6c0-2-7-4-15-4s-15 4-15 10c0 5 7 7 15 4 8-4 15-8 15-10zm149-18c-3-3-11 5-18 17-13 21-12 21 5 5 10-10 16-20 13-22zm-562 18c-3-3-12-4-19-1-8 3-5 6 6 6 11 1 17-2 13-5zm-597-14c0-5-7-7-15-4-11 5-14 1-9-12 5-15 4-16-4-4-6 8-8 18-6 22 7 11 34 10 34-2zm138-8c2-7 8-10 13-7 5 4 6-1 3-10-4-10-2-15 7-13 7 2 15-5 17-14 2-10-1-18-7-18s-7 7-4 17c4 11 3 14-5 9-7-4-16 2-23 16-6 13-19 25-30 25-12 1-17-3-13-9 4-7 2-8-5-4-6 4-9 12-6 17 8 12 48 5 53-9zm157-11c-3-12 1-17 16-18 18-2 19 0 7 15s-11 16 4 3c22-17 14-32-15-27-16 2-21 10-20 25 2 15-1 20-9 15-7-4-8-3-4 5 11 17 28 2 21-18zm139 5c-3-9-10-16-15-16s-4 9 3 20c14 22 21 20 12-4zm117-3c-12-20-14-14-5 12 4 9 9 14 11 11 3-2 0-13-6-23zm115-2c-17-19-17-20 3-18 12 1 21 7 21 14 0 16 16 17 26 1 4-6 3-8-3-5-6 4-13 1-16-7-5-12-45-17-49-6-2 8 26 49 31 45 2-3-4-14-13-24zm112 11c2-7 8-10 13-7 5 4 6-1 3-10-4-10-2-15 7-13 7 2 15-5 17-14 2-10-1-18-7-18s-7 7-4 17c4 11 3 14-5 9-7-4-16 2-23 16-6 13-19 25-30 25-12 1-17-3-13-9 4-7 2-8-5-4-6 4-9 12-6 17 8 12 48 5 53-9zm136 2c3-8 2-12-4-9s-10 10-10 16c0 14 7 11 14-7zm178 6c2-3-5-16-15-30-9-13-17-20-17-16 0 5 7 17 16 27 15 17 15 18-5 16-12-1-21-7-21-14s-5-13-10-13c-7 0-7 6-1 19 9 16 48 24 53 11zm58-34c0-12-5-7-19 24-11 24-11 24 3 6 9-11 16-24 16-30zm-1117 14c-4-14-1-20 8-18s14-6 14-21c0-19-5-24-27-25-14-1-24 2-21 7s14 7 24 4c14-4 19 0 19 15 0 10-4 17-9 13-13-7-24 13-17 30 8 22 15 18 9-5zm-93 0c-8-5-19-10-25-10-5 0-3 5 5 10s20 10 25 10c6 0 3-5-5-10zm135 0c3-5 2-10-4-10-5 0-13 5-16 10-3 6-2 10 4 10 5 0 13-4 16-10zm384-7c-12-15-12-16 4-10 9 3 17 2 17-3 0-11-23-14-33-4-8 8 3 34 15 34 6 0 4-8-3-17zm135 1c9-24 2-26-12-4-7 11-8 20-3 20s12-7 15-16zm243-6c2-17 0-19-7-8-5 8-6 18-4 22 8 12 10 10 11-14zm55 3c-3-14 29-11 41 4 5 6 7 4 4-5-5-19-53-20-49-2 2 10-4 12-20 7-18-5-20-4-8 4 18 13 36 8 32-8zm108-1c-6-11-15-18-21-15-5 4-9-3-9-14 0-12 5-20 12-18 6 1 13-11 14-28 2-20 0-25-5-16-5 8-7 20-4 28s0 13-8 11c-9-2-14 6-14 22 0 15 5 24 13 23 6-2 12 4 12 12s5 15 10 15c7 0 7-7 0-20zm116-5c-3-9-11-13-18-9-8 5-9 2-5-9 3-10 2-17-4-17s-9 8-7 18c2 9 10 16 16 15 7-2 12 5 12 14s3 14 6 10c4-3 4-13 0-22zm78 9c9-24 2-26-12-4-7 11-8 20-3 20s12-7 15-16zm-1076-5c-2-6-7-10-12-9-4 1-14-7-22-17-14-17-14-16-4 5 6 12 15 20 21 17 5-4 9-1 9 4 0 6 3 11 6 11s4-5 2-11zm416-5c3-8 2-12-4-9s-10 10-10 16c0 14 7 11 14-7zm-574-4c0-5-4-10-10-10-5 0-10 5-10 10 0 6 5 10 10 10 6 0 10-4 10-10zm436-16c-7-38-14-40-12-5 0 17 4 31 9 31 4 0 5-12 3-26zm180-7c-3-24-28-31-32-9-1 7 0 8 3 2 8-17 19-11 20 10 1 13-2 18-9 14s-8-2-4 5c11 17 26 3 22-22zm159 23c-3-5-1-10 6-10s10-3 6-6c-9-9-28 6-22 17 4 5 8 9 11 9s2-4-1-10zm448-10c9-11 13-20 7-20-5 0-14 9-20 20s-9 20-8 20c2 0 11-9 21-20zm-1174-10c-6-5-18-6-26-3s-13 0-11-8c2-7-6-14-17-16l-20-3 20 9c11 5 16 10 12 10-21 2 6 19 29 19 17 0 22-3 13-8zm136 0c3-6-1-7-9-4-18 7-21 14-7 14 6 0 13-4 16-10zm91-8c1-7 0-8-3-2-7 14-24 13-20-2 1-7-9-14-23-15l-25-2 25 8c14 5 21 9 17 10-5 1-5 6-2 12 8 13 28 7 31-9zm38 3c-4-8-8-15-10-15s-4 7-4 15 4 15 10 15c5 0 7-7 4-15zm96-1c0-2-7-4-15-4s-15 4-15 10c0 5 7 7 15 4 8-4 15-8 15-10zm70 6c0-5-7-7-15-4-8 4-15 8-15 10s7 4 15 4 15-4 15-10zm55-7c-1-11-10-17-22-16-13 1-19-4-19-17 0-14 5-18 17-15 10 3 20 1 24-4 4-7-1-8-11-4-12 5-15 3-9-6 6-10 3-11-12-3-28 15-23 58 6 55 11-2 20 1 20 5-2 11 1 22 5 22 2 0 3-8 1-17zm22-5c-3-8-6-5-6 6-1 11 2 17 5 13 3-3 4-12 1-19zm142 6c3-4-2-4-12-1-15 6-17 3-12-12 7-24-6-33-25-19-12 8-12 9 3 4 20-6 21-2 7 24-9 16-7 18 11 15 12-3 24-7 28-11zm126 6c3-6-1-7-9-4-18 7-21 14-7 14 6 0 13-4 16-10zm105 0c11-8 8-9-13-4-20 5-27 3-25-7 2-7-6-14-17-16l-20-3 20 9c11 5 16 10 12 10-13 1 3 21 16 21 7 0 19-5 27-10zm162-5c-2-5 7-13 20-17 22-7 22-7-2-5-15 2-24 8-22 16 2 10-4 12-23 7-14-4-25-2-25 2 0 5 12 9 28 8 15-1 26-5 24-11zm88 11c0-2-7-7-16-10-8-3-12-2-9 4 6 10 25 14 25 6zm95-6c3-6-1-7-9-4-18 7-21 14-7 14 6 0 13-4 16-10zm-899-34c1-9-2-16-8-16s-8 7-4 15c3 9 0 15-9 15-8 0-15 5-15 10 0 17 33-5 36-24zm359 25c3-5 0-13-6-17-7-4-9-3-5 4 3 5 0 13-6 15-9 4-10 6-1 6 6 1 14-3 18-8zm-563-11c1-3-3-14-10-25-6-11-12-15-12-9 0 5 5 15 11 21 9 9 7 12-10 10-11-1-21-6-21-11s-3-7-6-3c-11 10 5 24 26 23 11 0 21-3 22-6zm284 1c-4-5 0-11 6-14 7-2 9-8 5-13-9-10-28 16-21 28 3 4 7 8 10 8s3-4 0-9zm359-1c3-5 0-12-6-16-7-4-9-3-5 4s-1 10-14 9c-25-2-25-6-2-24 15-13 15-13-5-3-22 10-28 21-18 31 8 9 45 8 50-1zm402-7c2-6-1-14-6-18-6-3-9 0-6 7 4 9-3 14-16 15-17 2-19-1-10-10 6-6 11-15 11-21 0-5-6-1-14 9-8 11-12 23-10 27 7 11 47 3 51-9zm38 7c-3-5 0-10 7-11 10 0 10-2 1-6-20-7-15-19 7-20 13-1 18 2 14 9s-2 8 5 4c17-11 3-26-22-22-13 2-22 10-23 22 0 21 4 34 12 34 3 0 2-4-1-10zm-556-27c-12-15-12-16 4-10 9 3 17 2 17-3 0-11-23-14-33-4-3 3-1 14 6 25 6 10 13 16 16 14 2-3-2-12-10-22zm221 17c0-5-5-10-11-10-5 0-7 5-4 10 3 6 8 10 11 10 2 0 4-4 4-10zm39-35c0-5-4-3-9 5s-9 22-9 30c0 16 17-16 18-35zm-928 3c-10-11-11-10-5 5 5 14 2 16-12 11-16-5-16-4-4 5 20 14 39-4 21-21zm54 2c6 0 11-7 12-17 3-17 2-17-5 0-4 10-12 18-17 17-6 0-11 7-12 17-3 17-2 17 5 0 4-10 12-18 17-17zm35-5c0-5-5-3-10 5s-10 20-10 25c0 6 5 3 10-5s10-19 10-25zm100 18c0-3-7-2-16 1-12 4-14 1-9-13 7-24-6-33-25-19-12 8-11 9 4 4 14-5 17-2 12 10-8 21 1 34 19 27 8-3 15-7 15-10zm80 7c0-5-4-10-10-10-5 0-10 5-10 10 0 6 5 10 10 10 6 0 10-4 10-10zm40 6c0-2-7-7-16-10-8-3-12-2-9 4 6 10 25 14 25 6zm76-7c3-6 2-15-4-21s-12-6-17 3c-5 8-4 10 3 5 7-4 12-3 12 3 0 5-6 12-12 14-10 4-10 6-1 6 6 1 15-4 19-10zm164 1c0-5-4-10-10-10-5 0-10 5-10 10 0 6 5 10 10 10 6 0 10-4 10-10zm163-5c-3-9-8-14-10-11-3 3-2 9 2 15 9 16 15 13 8-4zm252 5c-3-5-11-10-16-10-6 0-7 5-4 10 3 6 11 10 16 10 6 0 7-4 4-10zm81 1c-4-5-1-11 6-13 6-2 13-15 15-29 2-18 1-20-6-9-5 8-8 17-5 21 2 4-5 11-17 14-17 6-19 9-8 16 18 11 22 11 15 0zm-243-42c-4-4-15-4-23 2-12 9-12 10 3 5s17-2 12 17c-5 20-5 20 6 4 6-11 7-23 2-28zm322 21c-5-16-3-19 12-14s15 4 3-5c-19-13-33 0-24 22 9 24 17 21 9-3zm-879-8c1-7 0-8-3-2-2 5-9 10-14 10-6 0-8-4-5-8 2-4 0-14-5-22-8-13-8 2 0 38 2 9 25-6 27-16zm84 7c12-8 11-9-5-5-15 5-21 1-22-13-1-13 3-17 17-14 25 7 33-12 12-28-16-13-16-12-2 4 13 17 12 19-10 15-19-2-25 2-26 17-1 36 9 43 36 24zm71-12c-10-9-11-8-5 6 3 10 9 15 12 12s0-11-7-18zm223-9c1-14-2-24-7-21s-7 14-4 24c4 14 0 19-14 19-10 0-18-6-16-12 1-7-4-13-12-13s-15 6-17 13c-1 7 0 8 3 2 5-12 24-14 22-2-3 18 3 23 23 20 15-2 22-10 22-30zm284 9c2-10-1-17-7-17s-8 6-5 13c3 8-4 13-16 14-11 1-18-2-15-7s1-11-4-14c-7-5-8 11-2 31 4 11 47-8 49-20zm79-8c-4-14 0-19 14-19 10 0 18 5 17 11-2 6 4 14 12 16 12 4 12 3 2-5-8-5-13-13-13-18 1-5-9-9-21-9-18 0-22 5-20 23 3 21 1 22-17 11-11-7-18-16-15-20 2-5-6-13-18-19-22-11-22-10-4 4 11 9 16 16 10 16-5 0 2 9 16 19 28 22 44 18 37-10zm219-5c3-16 2-26-1-23-3 4-8 19-11 35s-2 26 1 23c3-4 8-19 11-35zm-1009 4c-3-8-6-5-6 6-1 11 2 17 5 13 3-3 4-12 1-19zm333 7c0-8-4-15-10-15-5 0-7 7-4 15 4 8 8 15 10 15s4-7 4-15zm307-7c-3-8-6-5-6 6-1 11 2 17 5 13 3-3 4-12 1-19zm250 0c-3-8-6-5-6 6-1 11 2 17 5 13 3-3 4-12 1-19zm-1057 8c0-2-7-7-16-10-8-3-12-2-9 4 6 10 25 14 25 6zm350-12c0-2-7-4-15-4s-15 4-15 10c0 5 7 7 15 4 8-4 15-8 15-10zm70 4c0-4-7-8-15-8s-15 4-15 8c0 5 7 9 15 9s15-4 15-9zm220-3c0-2-9-3-19-2-11 0-18 5-15 9 4 6 34 0 34-7zm36-10c-3-9-10-14-15-11-5 4-12 1-14-4-3-6-4-5-2 2 1 7 8 12 14 11 6-2 11 5 11 14s3 14 6 10c4-3 4-13 0-22zm569 15c-3-5-12-10-18-10-7 0-6 4 3 10 19 12 23 12 15 0zm33-7c-2-10-9-17-14-16-6 1-16-7-22-18-11-17-10-20 5-17 10 2 24 10 31 18 11 13 12 12 3-6s-37-25-59-15c-1 0 5 12 14 26s21 22 27 18 8 0 4 10c-3 10-2 17 4 17s9-8 7-17zm-1258-13c0-5-7-7-15-4-8 4-15 8-15 10s7 4 15 4 15-4 15-10zm95-19c0-15-6-25-18-27-9-1-15 2-11 7 3 5 9 7 14 4s8 3 7 14c-1 12-8 19-19 18s-16-7-14-14c3-7 1-13-4-13-11 0-14 23-5 32 3 3 16 5 28 4 16-1 22-7 22-25zm118-13c-7-12 30-6 40 7 5 6 7 4 4-5-4-16-41-21-44-6 0 5-8 13-17 18s-16 13-16 18c0 6 9 2 19-7 11-9 18-21 14-25zm21 26c3-8 2-12-4-9s-10 10-10 16c0 14 7 11 14-7zm126 6c0-5-4-10-10-10-5 0-10 5-10 10 0 6 5 10 10 10 6 0 10-4 10-10zm93-19c-2-12 1-20 5-17 4 2 14 0 22-5 11-7 8-8-10-5-18 2-24 9-23 23 1 12-5 19-18 20-18 2-19 0-7-15s11-16-4-3c-22 17-14 32 15 27 16-2 21-10 20-25zm72 0c-3-2-12 2-22 10-15 12-16 12-10-3 3-10 2-18-3-18-11 0-14 23-4 33 3 3 14 1 25-6 10-6 16-13 14-16zm28-8c-3-8 0-13 8-11 9 2 14-6 14-22s-5-24-14-22c-8 2-11-3-8-11s1-20-4-28c-8-12-10-12-8 1 3 30-1 41-13 34-6-4-8-3-4 4 3 6 15 9 26 7 14-3 20 2 20 16 0 10-5 18-12 17-6-2-13 10-14 27-2 20 0 25 5 16 5-8 7-20 4-28zm177 25c0-5 0-12 0-18 0-5-5-10-11-10-8 0-7 5 2 16 11 14 10 15-7 12-19-3-34-16-34-31 0-5 5-5 10-2 6 3 10 4 10 1 0-16-21-13-30 5-7 12-8 19-2 15 5-3 12 0 15 8 5 14 47 17 47 4zm50-8c6-11 7-20 2-20-6 0-12 9-15 20s-3 20-1 20 8-9 14-20zm70 4c0-2-7-4-15-4s-15 4-15 10c0 5 7 7 15 4 8-4 15-8 15-10zm141-7c-10-9-11-8-5 6 3 10 9 15 12 12s0-11-7-18zm64 13c-3-5 0-10 7-11 10 0 10-2 1-6-19-7-16-19 6-20 13-1 18 5 17 20-1 17 5 22 24 22 26 0 36-26 12-31-7-1-8 0-2 3 16 8 12 19-9 20-13 1-18-5-17-20 1-17-5-22-24-22-18 0-25 6-26 20 0 22 4 35 12 35 3 0 2-4-1-10zm-1035-15c0-8-4-15-10-15-5 0-7 7-4 15 4 8 8 15 10 15s4-7 4-15zm132-7c-7-7-16-6-29 1-16 11-15 11 6 5 17-4 21-3 16 6-6 9-4 11 4 5 9-5 9-11 3-17zm482-16c12-2 16 1 10 9-4 8-3 10 5 5 6-4 9-12 6-17-8-12-48-5-53 9-2 7-8 10-13 7-5-4-6 1-2 11 5 15 7 15 17-2 6-11 19-20 30-22zm176 12c-1-4 4-11 12-16 11-8 10-9-1-6-8 2-15 15-17 29-1 13 0 18 2 12 3-7 5-15 4-19zm-487-1c-5-12-3-14 7-8 8 5 11 4 6-3-3-6-15-9-26-7-14 3-20-2-20-16 0-10 5-18 12-16 6 1 13-11 14-28 2-20 0-25-5-16-5 8-7 20-4 28s0 13-8 11c-9-2-14 6-14 22 0 15 5 24 13 23 6-2 12 4 12 12s4 15 10 15c5 0 6-7 3-17zm67 2c0-8 6-14 12-12 7 1 13-7 14-18 1-15 0-16-3-2-3 9-8 15-13 12s-14 4-20 15c-7 13-7 20 0 20 5 0 10-7 10-15zm528 3c-2-6-10-13-16-14-7-1-8 0-2 3 5 2 8 9 4 14-3 5 0 9 6 9 7 0 10-5 8-12zm99-12c-3-8-14-12-24-10-14 4-19-1-20-16-2-18 1-19 13-10 8 8 14 8 14 2 0-13-28-24-34-13-12 18 2 46 23 45 12 0 21 6 21 14 0 9 3 13 6 9 4-3 4-13 1-21zm173 14c0-5-4-10-10-10-5 0-10 5-10 10 0 6 5 10 10 10 6 0 10-4 10-10zm-1013-7c-4-3 5-15 20-25 16-10 24-18 20-18-16 0-57 32-51 41 3 5 8 9 11 9 4 0 3-3 0-7zm-61-29c-3-15-8-29-11-32s-3 5-1 19c2 13 5 27 5 32 1 4 3 7 6 7s3-12 1-26zm644 16c0-5-4-10-10-10-5 0-10 5-10 10 0 6 5 10 10 10 6 0 10-4 10-10zm107 1c-10-4-18-11-18-16 0-6-8-14-17-20-9-5-18-18-20-29-2-12 1-16 9-10 8 4 10 3 5-5-11-17-26-3-23 21 2 11 14 27 28 34 13 7 20 13 16 14-5 0-5 5-2 10 3 6 14 10 23 9 15 0 15-1-1-8zm82-14c0-9-2-8-6 1-2 6-10 9-15 6-7-4-8-2-4 5 9 13 26 5 25-12zm211 13c0-5-4-10-10-10-5 0-10 5-10 10 0 6 5 10 10 10 6 0 10-4 10-10zm118-16c0-17-3-22-8-13-5 6-6 18-3 26 8 19 11 16 11-13zm-1235 9c-7-2-19-2-25 0-7 3-2 5 12 5s19-2 13-5zm117-13c0-5-7-7-15-4-8 4-15 8-15 10s7 4 15 4 15-4 15-10zm217 4c-2-3-17-7-33-10-17-2-24-1-17 4 13 8 58 14 50 6zm163 2c0-2-7-7-16-10-8-3-12-2-9 4 6 10 25 14 25 6zm125-6c-3-5-12-10-18-10-7 0-6 4 3 10 19 12 23 12 15 0zm62 4c-3-3-12-4-19-1-8 3-5 6 6 6 11 1 17-2 13-5zm73-4c0-5-7-7-15-4-8 4-15 8-15 10s7 4 15 4 15-4 15-10zm93-7c-5-15-3-16 8-5 7 6 17 12 23 12 5 0 1-6-9-14-11-8-23-12-27-10-11 7-10 34 2 34 5 0 7-8 3-17zm141 2c-4-8-8-15-10-15s-4 7-4 15 4 15 10 15c5 0 7-7 4-15zm96 7c0-5-7-9-15-9s-15 4-15 9c0 4 7 8 15 8s15-4 15-8zm70 0c0-5-7-9-15-9s-15 4-15 9c0 4 7 8 15 8s15-4 15-8zm-1113-8c-3-3-12-4-19-1-8 3-5 6 6 6 11 1 17-2 13-5zm390 0c-3-3-12-4-19-1-8 3-5 6 6 6 11 1 17-2 13-5zm618-36c-2-17-8-22-24-21-12 2-20-1-16-6 3-5 1-12-4-15-5-4-8 2-6 11 1 11 10 17 22 16 13-1 19 4 19 17 0 14-5 18-17 15-10-3-20-1-24 4-4 7 1 8 11 4 12-5 15-3 9 6-6 10-3 11 12 3 12-7 19-20 18-34zm139 30c-5-8-2-9 10-5 10 4 15 3 11-4-4-5-14-7-24-4-12 3-17-1-17-15 0-13 6-18 19-17 12 1 21-5 22-16 2-9-1-15-6-11-5 3-7 10-4 15 4 5-4 8-16 6-16-1-22 4-24 21-1 13 5 27 14 32 21 12 24 12 15-2zm-1088-10c4-7 3-8-4-4-8 5-11 0-9-15 3-28-39-34-54-7-6 12-6 18 1 18 5 0 10-6 10-13s9-13 20-13c13 0 19 5 15 14-5 13 1 32 10 32 2 0 7-5 11-12zm50-6c1-7 0-8-3-2-8 16-19 12-20-9-1-13 5-18 20-17 13 1 23-6 25-16s-1-18-7-18-8 6-5 14c4 9-2 13-18 12-17-1-23 5-24 19 0 11 2 24 4 28 5 11 25 3 28-11zm204 8c0-5-7-7-15-3-10 3-15 0-13-8s-7-14-22-16l-25-2 25 8c14 5 21 9 17 10-5 1-5 6-2 11 8 13 35 13 35 0zm123-30c-3-3-10 3-17 12-7 10-17 14-21 10-5-4-5-1-1 6 6 11 12 10 26-5 9-10 15-20 13-23zm73 24c-5-12-2-15 11-10 14 6 15 4 6-5-14-14-34-3-26 16 3 8 7 15 10 15s2-7-1-16zm77 1c-3-9-8-14-10-11-3 3-2 9 2 15 9 16 15 13 8-4zm60-12c-1-13 4-19 18-19s19 5 16 18c-3 10 0 21 5 25 7 3 8 1 4-5-4-7-2-12 4-12 7 0 8-6 1-18-15-27-57-21-54 7 2 12-1 20-5 17-4-2-14 0-22 5-11 7-8 8 10 5 18-2 24-9 23-23zm140 12c4-8 3-16-1-19s-9 4-9 15c-2 23 3 25 10 4zm82-14c3-18 1-20-15-11-26 14-30 13-24-7 5-15 4-15-4-3-14 19-5 32 19 25 15-5 18-3 12 12-3 10-3 15 1 12 4-4 8-16 11-28zm205 19c0-5-4-10-10-10-5 0-10 5-10 10 0 6 5 10 10 10 6 0 10-4 10-10zm-921-45c0-5-4-3-9 5s-9 22-9 30c0 16 17-16 18-35zm391 8c-11-17-11-17-6 0 3 10 6 24 7 30 0 9 2 9 5 0 3-7 0-20-6-30zm-355 17c-3-5-11-10-16-10-6 0-7 5-4 10 3 6 11 10 16 10 6 0 7-4 4-10zm199 2c2-4 0-14-6-22-8-12-9-11-4 3 5 15 2 17-17 12-17-5-19-4-7 4 18 13 27 14 34 3zm224-9c-2-11-12-18-25-17-15 1-21-4-20-17 1-21 12-25 20-9 3 6 4 5 3-2-5-24-31-14-31 12 0 20 5 25 23 24 16-1 22 3 18 12-3 8-1 14 5 14s9-8 7-17zm322 7c0-5-4-10-10-10-5 0-10 5-10 10 0 6 5 10 10 10 6 0 10-4 10-10zm113-5c4-8 1-17-5-21-7-4-8-3-4 4s2 12-3 12c-6 0-11 5-11 10 0 15 17 12 23-5zm57 5c0-5-5-10-11-10-5 0-7-5-3-12s3-8-4-4c-6 4-9 13-5 21 6 17 23 20 23 5zm-797-15c-3-9-8-14-10-11-3 3-2 9 2 15 9 16 15 13 8-4zm600-26c-4-4-15-4-23 2-12 9-12 10 3 5s17-2 12 17c-5 20-5 20 6 4 6-11 7-23 2-28zm-696 0c-4-14 0-19 14-19 10 0 18 6 17 12-2 7 8 14 22 15 24 2 24 2 2-5-13-4-23-11-23-17 1-5-9-10-21-10-16 0-22 6-22 27-1 14 2 24 7 21s7-14 4-24zm148 2c-3-2-11 2-19 8-12 10-15 9-13-8 1-14 6-20 15-16 7 3 10 0 7-6-10-15-28-6-31 16-4 28 5 36 26 23 11-7 17-14 15-17zm90-11c-3-5 3-10 12-13 14-3 13-4-2-3-11 1-19 6-18 12 1 5-7 16-18 22-17 11-20 10-17-5 2-10 14-26 28-35 14-10 21-18 15-18-17 1-49 29-51 47-4 28 6 34 31 17 14-9 23-20 20-24zm70 11c-3-2-12 2-22 10-15 12-16 12-10-3 3-10 2-18-3-18-11 0-14 23-4 33 3 3 14 1 25-6 10-6 16-13 14-16zm290-2c0-14-5-23-12-21-7 1-13-7-13-18s6-19 13-17c7 1 12-8 12-23 0-16-5-24-14-22-8 2-11-3-8-11s1-20-4-28c-8-12-10-12-8 1 3 30-1 41-13 34-6-4-8-3-4 4 3 6 15 9 26 7 14-3 20 2 20 16 0 10-6 18-12 17-8-2-13 7-13 22s5 24 13 23c6-2 12 6 12 16 0 14-5 18-19 14-10-3-21-1-24 4s7 8 21 7c22-1 27-6 27-25zm132-1c-3-8-6-5-6 6-1 11 2 17 5 13 3-3 4-12 1-19zm-867-3c0-8-2-15-4-15s-6 7-10 15c-3 8-1 15 4 15 6 0 10-7 10-15zm107 8c-9-2-15-9-11-14 3-5-2-12-10-15-9-3-13-11-9-17s1-7-7-2c-10 6-9 11 5 22 11 7 15 13 11 13s-4 5-1 10c3 6 14 9 23 9 15-1 15-2-1-6zm447-8c-4-8-8-15-10-15s-4 7-4 15 4 15 10 15c5 0 7-7 4-15zm83 0c0-8-4-15-9-15-4 0-8 7-8 15s4 15 8 15c5 0 9-7 9-15zm63-2c0-3-7-2-16 1-12 5-14 1-9-17 5-19 4-20-5-4-13 21-5 38 15 30 8-3 15-7 15-10zm270 1c0-2-7-4-15-4s-15 4-15 10c0 5 7 7 15 4 8-4 15-8 15-10zm70 6c0-5-8-10-17-10-15 0-16 2-3 10 19 12 20 12 20 0zm-1080-10c0-5-4-10-10-10-5 0-10 5-10 10 0 6 5 10 10 10 6 0 10-4 10-10zm85-19c-6-5-25 10-25 20 0 5 6 4 14-3s12-15 11-17zm555 20c0-17-21-24-33-12-9 9-7 10 7 5 13-5 17-4 12 4-4 7-2 12 3 12 6 0 11-4 11-9zm-350-31c8-5 11-10 5-10-5 0-21 10-35 21-24 20-5 13 30-11zm230 0c0-6-9-2-20 7-11 10-20 19-20 21 0 1 9-2 20-8s20-15 20-20zm334 0c0-19-5-25-23-26-12-1-25 5-28 12-9 23 4 41 28 40 18-1 23-7 23-26zm43 0c-2-11-7-23-12-27-4-5-5-2-1 5 4 6 2 12-3 12-6 0-11 5-11 11 0 5 5 7 12 3 8-5 9-2 5 10-4 10-3 15 3 11 5-3 8-15 7-25zm77 0c0-16-6-26-17-28-9-2-17 1-17 7s6 8 13 5c8-3 13 3 13 16s-5 19-13 16c-7-3-13-1-13 5s8 9 17 7c11-2 17-12 17-28zm66 20c0-5-4-10-10-10-5 0-10 5-10 10 0 6 5 10 10 10 6 0 10-4 10-10zm80 0c0-5-7-7-16-3-14 5-14 3-3-15 7-11 17-20 23-19 5 1 12-6 14-15 2-10-1-18-7-18s-7 7-4 17c4 10 2 14-4 10-12-8-46 37-36 47s33 7 33-4zm-626-29c-2-3-12 3-22 13-16 17-16 18 5 5 12-7 20-15 17-18zm433 7c-3-8-6-5-6 6-1 11 2 17 5 13 3-3 4-12 1-19zm233-22c0-6-7-1-15 10-8 10-15 23-15 28 0 6 7 1 15-10 8-10 15-23 15-28zm-1090 24c8-5 11-10 5-10-5 0-17 5-25 10s-10 10-5 10c6 0 17-5 25-10zm100 0c8-5 11-10 5-10-5 0-17 5-25 10s-10 10-5 10c6 0 17-5 25-10zm80 0c8-5 11-10 5-10-5 0-17 5-25 10s-10 10-5 10c6 0 17-5 25-10zm129-5c3-3-7-4-23-1s-31 8-35 11c-3 3 7 4 23 1s31-8 35-11zm240 0c3-3-7-4-23-1s-31 8-35 11c-3 3 7 4 23 1s31-8 35-11zm46 5c3-6-1-7-9-4-18 7-21 14-7 14 6 0 13-4 16-10zm35 0c0-5-4-10-10-10-5 0-10 5-10 10 0 6 5 10 10 10 6 0 10-4 10-10zm310 0c0-5-4-10-10-10-5 0-10 5-10 10 0 6 5 10 10 10 6 0 10-4 10-10zm65-1c11-16 1-19-13-3-7 8-8 14-3 14s13-5 16-11zm-38-14c0-8-4-15-9-15-10 0-11 14-1 23 9 10 10 9 10-8zm-985-10c-2-5 7-13 20-17 22-7 22-7-2-5-14 1-24 7-22 12 2 6-7 13-20 17-22 7-22 7 2 5 14-1 24-6 22-12zm57-8c0-9-2-8-6 1-2 6-10 9-15 6-7-4-8-2-4 5 9 13 26 5 25-12zm51 1c10-21 10-21-3-5-18 22-22 22-24-3-1-13 2-18 9-14s8 2 4-5c-16-26-28 7-17 47 3 10 22-2 31-20zm76 4c1-7 0-8-3-2-8 16-19 12-20-9-1-13 5-18 20-17 17 1 22-5 22-24 0-26-29-40-47-22-6 6-1 8 14 5 18-3 24 0 25 15 1 14-5 19-20 18-21-1-31 24-19 47 5 11 25 3 28-11zm99 8c4-6-1-7-11-3-12 4-15 3-10-5 4-7 2-12-3-12-12 0-14 13-4 23 9 10 21 9 28-3zm141-8c1-7 0-8-3-2-8 16-19 12-20-9-1-14 4-19 18-16 11 2 23-4 29-16 7-13 7-19 0-19-5 0-10 6-10 14s-10 13-22 12c-17-1-23 5-24 19 0 11 2 24 4 28 5 11 25 3 28-11zm99 9c3-5 0-13-6-17-8-4-9-3-5 4 5 8-1 12-14 12s-19-4-14-12c4-7 3-8-5-4-16 10-4 26 19 26 10 0 21-4 25-9zm82-22c2-18 1-20-6-9-5 8-7 18-5 22 3 4 0 8-5 8-6 0-11-5-11-12 0-6-3-9-6-5-9 9 6 29 19 24 5-1 12-14 14-28zm57 16c-5-11-1-14 12-9 16 5 16 4 4-5-17-12-36 1-26 18 10 16 16 13 10-4zm-434-10c0-8-4-15-8-15-5 0-9 7-9 15s4 15 9 15c4 0 8-7 8-15zm80 0c0-8-4-15-10-15-5 0-7 7-4 15 4 8 8 15 10 15s4-7 4-15zm40 5c0-5-4-10-10-10-5 0-10 5-10 10 0 6 5 10 10 10 6 0 10-4 10-10zm114-5c3-8 1-15-4-15-6 0-10 7-10 15s2 15 4 15 6-7 10-15zm86 0c0-8-4-15-10-15-5 0-7 7-4 15 4 8 8 15 10 15s4-7 4-15zm77-7c-3-8-6-5-6 6-1 11 2 17 5 13 3-3 4-12 1-19zm257-10c-3-4 5-7 17-5 28 3 34-39 7-54-12-7-18-6-18 1 0 6-5 8-12 4-6-4-8-3-5 4 4 5 15 8 25 5 13-3 18 2 18 16s-6 19-19 18c-14-1-21 5-23 23-3 18-2 21 5 10 5-8 7-18 5-22zm-63-15c-11-16-11-16-6 4 5 19 3 22-12 17s-15-4-3 5c21 14 35-3 21-26zm36 15c-3-8-6-5-6 6-1 11 2 17 5 13 3-3 4-12 1-19zm103 18c0-2-7-6-15-10-8-3-15-1-15 4 0 6 7 10 15 10s15-2 15-4zm95-6c3-6-1-7-9-4-18 7-21 14-7 14 6 0 13-4 16-10zm-991-26c3-8 2-12-4-9s-10 10-10 16c0 14 7 11 14-7zm79-16c-2-5-13-6-24-3-15 5-18 3-13-12 5-14 4-15-4-3-14 19-5 32 19 25 15-5 18-3 13 12-5 14-4 15 4 3 6-8 8-18 5-22zm140 3c-2-12 1-20 5-17 4 2 14 0 22-5 11-7 8-8-10-5-18 2-24 9-23 23 1 13-4 19-18 19s-19-5-16-18c3-10 0-21-5-25-7-3-8-1-4 5 4 7 2 12-4 12-7 0-8 6-1 18 15 27 57 21 54-7zm81-13c-8-12 28-6 39 7 5 6 7 4 4-5-4-17-53-21-50-4 1 5-8 16-19 23-18 11-20 11-15-3 4-9 2-16-3-16-11 0-14 23-4 33 9 9 55-24 48-35zm20 26c3-8 2-12-4-9s-10 10-10 16c0 14 7 11 14-7zm141-15c0-19-6-24-24-24s-25 6-28 25c-2 18-1 21 6 10 5-8 7-18 5-22-3-4 3-8 13-8 11 0 19 8 20 19 1 14-3 18-13 14-8-3-14-1-14 5s8 9 18 8c11-2 17-12 17-27zm65 18c0-5-7-7-15-3-9 3-15 0-15-9 0-8-5-15-10-15-7 0-7 6-1 18 10 19 41 26 41 9zm156-3c-5-12-2-15 11-10 14 6 15 4 6-5-14-14-34-3-26 16 3 8 7 15 10 15s2-7-1-16zm220-13c-9-14-26-14-26 0 0 5 5 7 12 3 8-5 9-1 4 12-5 14-4 16 5 7 6-6 8-16 5-22zm79 19c3-5 0-12-6-16-7-4-9-3-5 4s-1 10-14 9c-22-1-27-13-7-20 9-4 9-6 0-6-14-1-26 16-19 27 6 11 45 12 51 2zm-265-37c-11-17-11-17-6 0 3 10 6 24 7 30 0 9 2 9 5 0 3-7 0-20-6-30zm332 30c-6-2-10-8-8-12 3-4-5-8-16-8-20-2-20-1-2 12 11 8 24 14 29 14 6 0 4-3-3-6zm-1070-23c-2-8 3-10 13-7 8 4 15 2 15-4s-7-9-16-7c-8 2-14 7-14 12 1 5-4 13-12 18-10 8-10 9 2 5 8-2 14-10 12-17zm628 9c12-8 10-9-8-4-16 5-22 3-20-7 4-18-44-17-49 2-3 9-1 11 4 5 10-12 44-19 42-8-4 25 7 29 31 12zm180 1c0-5-4-10-10-10-5 0-10 5-10 10 0 6 5 10 10 10 6 0 10-4 10-10zm213-41c-4-4-15-4-23 2-12 9-12 10 3 5s17-2 12 17c-5 20-5 20 6 4 6-11 7-23 2-28zm-638-1c-2-18-4-36-4-40-1-5-6-8-12-8s-7 5-2 13c4 6 8 20 9 30 3 31 4 37 8 37 3 0 3-15 1-32zm159 16c3-8 2-12-4-9s-10 10-10 16c0 14 7 11 14-7zm171-13c-3-2-12 2-22 10-15 12-16 12-10-3 3-10 2-18-3-18-11 0-14 23-4 33 3 3 14 1 25-6 10-6 16-13 14-16zm75 7c0-6-6-6-14 2-12 9-15 8-13-10 1-15 7-20 22-18s20-3 22-22c2-21 1-22-5-5-4 11-16 20-26 20-18 0-31 29-20 46 6 11 34 0 34-13zm160 12c0-5-4-10-10-10-5 0-10 5-10 10 0 6 5 10 10 10 6 0 10-4 10-10zm-908-42c-6-6-12-5-17 3s-4 10 3 5c8-5 12 1 13 16 1 18 2 19 6 4 3-10 0-23-5-28zm282 13c-2-3-12 3-22 13-16 17-16 18 5 5 12-7 20-15 17-18zm500 14c3-8 1-15-4-15-6 0-10 7-10 15s2 15 4 15 6-7 10-15zm233-7c-3-8-6-5-6 6-1 11 2 17 5 13 3-3 4-12 1-19zm-950 6c-3-3-12-4-19-1-8 3-5 6 6 6 11 1 17-2 13-5zm93-10c0-2-7-4-15-4s-15 4-15 10c0 5 7 7 15 4 8-4 15-8 15-10zm230 6c0-5-7-7-15-4-8 4-15 8-15 10s7 4 15 4 15-4 15-10zm90 6c0-2-7-6-15-10-8-3-15-1-15 4 0 6 7 10 15 10s15-2 15-4zm120-11c-1-5 9-13 22-17 22-7 22-7-2-5-15 2-24 8-22 16 2 10-5 12-25 7-21-5-24-4-13 4 18 12 42 9 40-5zm280 7c0-5-7-9-15-9s-15 4-15 9c0 4 7 8 15 8s15-4 15-8zm-653-8c-3-3-12-4-19-1-8 3-5 6 6 6 11 1 17-2 13-5zm676-9c-3-9-8-14-10-11-3 3-2 9 2 15 9 16 15 13 8-4zm-839-7c-3-5-9-6-14-3s-8-3-7-14c1-12 8-19 19-18s16 7 14 14c-3 7-1 13 5 13s9-8 7-17c-5-25-50-24-54 1s1 33 20 33c8 0 13-4 10-9zm58-13c-2-15 3-21 18-22 18-2 19 1 10 13-8 8-8 14-2 14 13 0 24-28 13-34-17-11-46 2-46 20 0 10-9 22-20 26-17 6-16 7 5 5 19-2 24-7 22-22zm68 15c0-5-4-10-10-10-5 0-10 5-10 10 0 6 5 10 10 10 6 0 10-4 10-10zm80-11c0-5-4-9-10-9-5 0-10 5-10 11 0 5-5 7-12 3s-8-3-4 4c7 12 36 5 36-9zm174 12c3-5-1-14-9-21-12-10-18-10-30 0-18 15-11 30 15 30 10 0 21-4 24-9zm66-1c0-5-4-10-10-10-5 0-10 5-10 10 0 6 5 10 10 10 6 0 10-4 10-10zm200-16c0-2-9 0-20 6s-20 13-20 16c0 2 9 0 20-6s20-13 20-16zm134-1c-1-15 4-21 17-20 21 1 25 12 9 20-6 3-5 4 2 3 24-5 14-31-12-31-19 0-25 5-24 22 1 15-4 21-18 20-15-1-18-7-15-24 2-12 0-20-4-17-10 6-12 38-4 46 3 3 16 5 28 4 16-1 22-7 21-23zm120 0c-1-15 4-21 17-20 11 1 19 9 19 20s-4 15-12 11c-7-5-8-3-3 5 10 17 28-2 23-25-2-12-12-19-28-19-19 0-25 5-24 22 1 15-4 21-17 20-22-1-25-13-6-20 9-4 9-6 0-6-15-1-26 16-19 28 3 4 16 8 28 7 17-1 23-7 22-23zm-655-28c0-5-4-3-9 5s-9 22-9 30c0 16 17-16 18-35zm231 8c-11-17-11-17-6 0 3 10 6 24 7 30 0 9 2 9 5 0 3-7 0-20-6-30zm45 27c3-5 1-10-4-10-6 0-11 5-11 10 0 6 2 10 4 10 3 0 8-4 11-10zm85-11c0-5-4-9-8-9-5 0-9 7-9 15s4 12 9 9c4-3 8-9 8-15zm-446 3c2-4 0-14-6-22-8-12-9-11-4 3 5 15 2 17-17 12-17-5-19-4-7 4 18 13 27 14 34 3zm145-8c-11-14-10-16 11-12 21 2 25-1 25-22 0-15-5-24-12-22-7 1-13-7-13-18s6-19 13-17c7 1 12-8 12-20 0-13-4-22-8-20-5 1-15-10-23-24-12-24-54-37-54-16v17c0 6 5 10 11 10 8 0 8-4-1-14-9-12-8-15 9-13 11 0 24 12 30 25s16 20 21 17c6-3 10 3 10 14 0 12-6 20-12 19-8-2-13 7-13 22s5 24 13 23c6-2 12 6 12 18 0 11-4 17-10 14-17-11-40 3-34 20 3 8 11 15 16 15 6 0 4-7-3-16zm114 2c3-8 3-17 0-20-10-10-33-7-33 4 0 5 8 6 18 3 15-6 15-5 3 10-7 9-9 17-3 17 5 0 12-6 15-14zm265-21c-3-3-9 2-12 12-6 14-5 15 5 6 7-7 10-15 7-18zm-460-8c2-9-1-17-7-17s-8 6-5 13c3 8-3 13-16 13-26 0-22-28 5-38 17-6 17-7-4-5-22 2-37 29-26 47 8 13 50 3 53-13zm296 11c-3-5-9-6-14-3s-8-3-7-14c1-12 8-19 19-18s16 7 14 14c-3 7-1 13 5 13s9-8 7-17c-5-25-50-24-54 1s1 33 20 33c8 0 13-4 10-9zm59-6c-2-6 6-12 17-12s19 6 18 13c-2 7 7 12 20 12 12 0 22-4 21-9 0-5 5-13 13-18 10-8 10-9-2-5-8 2-14 10-12 16 1 6-7 11-17 11-14 0-19-6-16-20 2-11-1-23-7-26-6-4-8-2-4 4s-3 12-16 14-22 8-20 13c2 6-7 13-20 17-22 7-22 7 2 5 14-1 24-8 23-15zm258-5c-10-9-11-8-5 6 3 10 9 15 12 12s0-11-7-18zm127-3c0-17-3-22-8-13-5 6-6 18-3 26 8 19 11 16 11-13zm-573-25c6 1 10-9 10-21 0-13-5-22-12-20-7 1-13-7-13-18s5-19 11-17c6 1 14-5 16-13 4-12 3-12-5-2-5 8-13 13-18 13-5-1-9 9-9 22 0 12 5 21 13 20 6-2 12 6 12 17s-6 19-12 18c-7-2-14 8-15 22-2 24-2 24 5 2 4-13 12-23 17-23zm-339 16c4-8 10-13 14-10 10 6 41-40 33-49-10-10-33-7-33 4 0 5 7 7 16 3 14-5 14-3 3 15-7 11-16 19-19 17-4-2-14 5-23 16-9 10-12 19-7 19 6 0 13-7 16-15zm69 5c-27-12-43-12-25 0 8 5 22 9 30 9 10 0 8-3-5-9zm175 0c11-8 7-9-14-4-20 5-27 3-22-4 4-6-4-16-16-22-22-11-22-10-4 4 11 9 16 16 12 16s-4 5-1 10c8 13 26 13 45 0zm162-5c1-5 8-16 17-23 14-11 13-11-7-2-12 6-20 16-16 22 5 7-2 9-22 4-21-5-25-4-14 4 18 12 41 9 42-5zm244-2c-2-9-9-19-17-21-11-3-11-1 1 7 8 6 11 11 7 11-5 0-5 5-2 10 9 15 14 12 11-7zm21-5c-3-8-6-5-6 6-1 11 2 17 5 13 3-3 4-12 1-19zm63 5c0-3-7-2-16 1-12 5-14 1-9-17 5-19 4-20-5-4-13 21-5 38 15 30 8-3 15-7 15-10zm100 9c0-5-7-9-15-9s-15 4-15 9c0 4 7 8 15 8s15-4 15-8zm34-14c-5-8-2-9 10-5 10 4 15 3 11-4-4-5-14-7-24-4-12 3-17-1-17-15 0-13 6-18 19-17 12 1 21-5 22-16 2-9-1-15-6-11-5 3-7 10-4 15 4 5-4 8-16 6-16-1-22 4-24 21-1 13 5 27 14 32 21 12 24 12 15-2zm-363-29c-5-13-10-19-10-12-1 15 10 45 15 40 3-2 0-15-5-28zm85 4c-1-16-8-27-14-25-7 1-12-7-12-17 0-14 5-18 19-14 10 3 21 1 24-4s-7-8-21-7c-22 1-27 6-27 25 0 14 5 23 13 21 7-1 12 3 11 10-2 19 0 38 5 38 3 0 4-12 2-27zm204 17c0-5-4-10-10-10-5 0-10 5-10 10 0 6 5 10 10 10 6 0 10-4 10-10zm-568-22c-7-7-12-8-12-2s3 14 7 17c3 4 9 5 12 2 2-3-1-11-7-17zm168 1c0-6-4-7-10-4-5 3-10 11-10 16 0 6 5 7 10 4 6-3 10-11 10-16zm378-11c-5-14-45-21-53-9-3 5 0 13 6 17 7 4 9 3 5-4s1-10 14-9c25 2 25 6 3 24-16 13-16 13 5 3 13-6 22-16 20-22zm-808 12c0-5-2-10-4-10-3 0-8 5-11 10-3 6-1 10 4 10 6 0 11-4 11-10zm145 1c-3-2 3-10 13-18 16-13 15-13-3-4-43 22-51 30-28 28 12 0 20-3 18-6zm205-1c0-5-4-10-10-10-5 0-10 5-10 10 0 6 5 10 10 10 6 0 10-4 10-10zm235 0c3-5 2-10-4-10-5 0-13 5-16 10-3 6-2 10 4 10 5 0 13-4 16-10zm85-5c0-12-19-12-23 0-4 9-1 12 9 8 7-3 14-7 14-8zm190 5c0-5-5-10-11-10-5 0-7-5-3-12s3-8-4-4c-6 4-9 13-5 21 6 17 23 20 23 5zm-350-10c0-5-2-10-4-10-3 0-8 5-11 10-3 6-1 10 4 10 6 0 11-4 11-10zm-385-28c0-12-4-21-9-21s-13-5-18-13c-8-10-9-10-5 2 2 8 10 14 16 12 14-3 11 29-4 41-6 5-4 7 5 4 8-2 15-13 15-25zm117 9c-2-10 4-12 23-7 14 4 25 2 25-2 0-5-12-9-27-8-16 1-27 6-25 11 2 6-7 13-20 17-22 7-22 7 2 5 15-2 24-8 22-16zm239-11c-3-24-2-24 16-7 11 9 23 17 27 17 5 0-2-9-15-19-27-22-43-17-36 10 4 14 0 19-14 19-10 0-18-5-16-12 1-6-10-13-25-14-16-2-28 1-28 6s11 7 25 4c14-2 25-1 24 3-3 19 3 24 24 21 17-2 21-8 18-28zm89 10c6-11 8-20 6-20-3 0-10 9-16 20s-8 20-6 20c3 0 10-9 16-20zm127 13c-9-2-15-9-11-14 9-15-23-22-43-10-15 9-13 10 10 5 15-4 27-2 26 2-3 18 2 24 19 23 16-1 16-2-1-6zm-602-23c-3-5-12-10-18-10-7 0-6 4 3 10 19 12 23 12 15 0zm115-4c0-22-13-26-35-10-10 8-14 14-9 14 6 0 16-6 23-12 11-11 13-10 8 5-4 9-2 17 3 17 6 0 10-6 10-14zm513-1c-3-10-1-15 7-13 7 2 15-4 17-12 4-12 3-12-5-2-5 8-13 13-18 12-5 0-10 6-12 14-2 9 1 16 7 16s8-7 4-15zm42-3c-3-3-11 0-18 7-9 10-8 11 6 5 10-3 15-9 12-12zm105 8c0-5-8-10-17-10-15 0-16 2-3 10 19 12 20 12 20 0zm-65-9c3-5 0-13-6-17-7-4-9-3-5 4 3 5 0 13-6 15-9 4-10 6-1 6 6 1 14-3 18-8zm-725-41c0-3 9-6 20-7 13-1 18 2 14 9s-2 8 5 4c16-11 4-25-20-23-12 1-27 14-35 32-14 27-14 28 1 11 8-11 15-23 15-26zm61 17c-10-9-11-8-5 6 3 10 9 15 12 12s0-11-7-18zm83-1c-3-9-10-16-15-16s-4 9 3 20c14 22 21 20 12-4zm242-23c-4-9-9-13-13-9-4 3-14-6-24-21-16-24-18-25-16-6 0 12 4 20 8 17 4-2 10 3 13 12 3 8 11 12 17 8 9-5 10 1 5 22-5 24-4 26 5 11 6-10 8-25 5-34zm102 26c2-8 0-10-5-4-11 13-47 19-39 6 4-5-3-15-14-21-13-7-20-7-20 0 0 5 7 10 15 10s14 3 14 8c-3 17 2 22 23 19 12-2 24-10 26-18zm156-18c-5-6-34 20-34 30 0 5 8 1 18-8 10-10 17-20 16-22zm97 16c-10-9-11-8-5 6 3 10 9 15 12 12s0-11-7-18zm89 13c0-5-6-7-13-4-7 2-13-3-14-14s6-18 18-19c11-1 17 2 15 6-3 4 0 13 5 21 7 11 8 8 6-10-3-19-10-25-28-25-22 0-33 24-22 48 6 10 33 9 33-3zm-138-27c-6-10-21-19-34-20-17-2-19 0-8 7 8 5 17 7 21 4 4-2 11 5 14 17 4 11 9 18 12 16 2-3 0-14-5-24zm-602-3c-12-23-16-24-26-8-4 7-3 8 4 4s12-1 12 8 5 16 10 16c7 0 7-6 0-20zm190 10c8-5 11-10 5-10-5 0-17 5-25 10s-10 10-5 10c6 0 17-5 25-10zm80 6c0-3-4-8-10-11-5-3-10-1-10 4 0 6 5 11 10 11 6 0 10-2 10-4zm162-20c6 4 8 2 4-4-3-6-15-9-26-7-13 3-18-2-17-16 1-13 6-18 17-14 11 5 12 3 3-6-6-6-16-9-21-5-14 8-8 51 6 49 7-2 13 5 13 15 1 16 2 16 6-1 2-9 9-14 15-11zm33 14c3-5 1-10-4-10-6 0-11 5-11 10 0 6 2 10 4 10 3 0 8-4 11-10zm45-6c0-8 4-13 9-9 5 3 12 1 15-4 4-5-1-8-10-7-19 3-41 36-24 36 5 0 10-7 10-16zm171-2c-12-22-53-22-59-1-2 8 0 10 5 4 12-15 43-15 43 1 0 8 5 14 10 14 7 0 7-6 1-18zm-522-8c4 3 13 0 21-5 11-7 9-8-9-6-14 2-26 9-27 16-1 6 0 7 3 1 2-5 8-8 12-6zm74-5c-8-8-13-7-18 2-5 8-4 10 3 5 7-4 12-2 12 5s3 9 7 6c4-4 2-12-4-18zm140 6c-3-9-8-14-10-11-3 3-2 9 2 15 9 16 15 13 8-4zm-362-18c-10-9-11-8-5 6 3 10 9 15 12 12s0-11-7-18zm485-13c3-16 2-26-1-23-3 4-8 19-11 35s-2 26 1 23c3-4 8-19 11-35zm-506 0c0-2-7-4-15-4s-15 4-15 10c0 5 7 7 15 4 8-4 15-8 15-10zm70 6c0-5-8-10-17-10-15 0-16 2-3 10 19 12 20 12 20 0zm80-5c0-8-2-15-4-15s-6 7-10 15c-3 8-1 15 4 15 6 0 10-7 10-15zm90-1c0-2-7-4-15-4s-15 4-15 10c0 5 7 7 15 4 8-4 15-8 15-10zm112 9c-6-3-9-10-5-16 4-7-2-5-13 3-10 8-20 15-22 16s10 1 25 1 22-2 15-4zm125 1c-3-3-12-4-19-1-8 3-5 6 6 6 11 1 17-2 13-5zm147-9c-4-8-8-15-10-15s-4 7-4 15 4 15 10 15c5 0 7-7 4-15zm86 0c0-8-4-15-8-15-5 0-9 7-9 15s4 15 9 15c4 0 8-7 8-15zm87 9c-3-3-12-4-19-1-8 3-5 6 6 6 11 1 17-2 13-5zm-687-14c0-5-6-10-13-10s-13-9-13-20c0-13 6-18 19-17 14 1 21-5 23-23 3-18 2-21-5-10-5 8-7 18-5 22 3 4-5 7-17 5-16-1-22 4-24 21-1 13 5 27 14 32 20 12 21 12 21 0zm100-15c0-2-5-7-12-11s-8-3-4 4 1 12-8 12-16 5-16 10c0 7 6 7 20 0 11-6 20-13 20-15zm337 19c-3-3-12-4-19-1-8 3-5 6 6 6 11 1 17-2 13-5zm43-3c0-5-10-11-22-14-22-6-22-6-4 8 23 17 26 18 26 6zm80 0c0-14-29-21-36-9-4 7-3 8 4 4s12-2 12 3c0 6 5 11 10 11 6 0 10-4 10-9zm80 5c0-3-4-8-10-11-5-3-10-1-10 4 0 6 5 11 10 11 6 0 10-2 10-4zm-720-16c0-5-4-10-10-10-5 0-10 5-10 10 0 6 5 10 10 10 6 0 10-4 10-10zm290-4c-1-5 4-13 12-18 10-8 10-9-2-5-8 2-14 10-12 17 2 8-3 10-13 7-8-4-15-2-15 4s7 9 16 7c8-2 14-7 14-12zm165-6c0-7-6-14-13-16-7-1-8 0-2 3 5 2 10 9 10 14 0 6-4 8-8 5-4-2-14 0-22 5-11 7-8 8 10 6 14-2 25-10 25-17zm309 8c-3-4-12-4-21-1-14 5-13 2 2-23l17-29-20 25c-23 28-21 39 8 37 10-1 17-5 14-9zm-801-15c-7-2-13-9-13-14 0-6 5-7 10-4 6 3 13-1 16-9 3-9 9-14 13-12 4 3 8-5 8-17 2-18-1-17-17 8-11 17-20 26-20 21 0-6-5-5-11 1-13 13-4 33 14 32 9 0 9-2 0-6zm60 0c-7-2-13-9-13-14 0-6 5-7 12-3 7 5 8 3 3-5-5-9-11-9-17-3-12 12-2 32 15 31 9 0 9-2 0-6zm117-3c0-5-4-10-10-10-5 0-10 5-10 10 0 6 5 10 10 10 6 0 10-4 10-10zm80-1c12-8 10-9-7-4-19 5-22 3-17-12 5-14 4-15-4-3-19 25 0 38 28 19zm120 1c0-5-4-10-10-10-5 0-10 5-10 10 0 6 5 10 10 10 6 0 10-4 10-10zm35-8c-3-3-11 0-18 7-9 10-8 11 6 5 10-3 15-9 12-12zm41 2c-3-19-36-41-36-24 0 5 7 10 15 10 9 0 12 6 9 15-4 8-2 15 4 15s9-7 8-16zm87 9c-20-7-15-19 7-20 13-1 18 2 14 9s-2 8 5 4c6-4 9-12 6-17-6-9-40-7-51 3-9 9 5 28 19 27 9 0 9-2 0-6zm91-5c-3-4-11-5-19-1-21 7-19 12 4 10 11 0 18-5 15-9zm56 2c-8-5-19-10-25-10-5 0-3 5 5 10s20 10 25 10c6 0 3-5-5-10zm-372-25c-3-3-9 2-12 12-6 14-5 15 5 6 7-7 10-15 7-18zm442 15c0-5-8-10-17-10-15 0-16 2-3 10 19 12 20 12 20 0zm-544-32c-1-12-8-24-14-26-7-2-10-8-7-13 4-5-1-6-11-2-15 5-15 7 2 17 11 6 21 20 22 30 3 17 2 18-12 7-9-8-16-9-16-3 0 12 21 22 32 15 4-2 6-14 4-25zm80-1c-3-24-28-31-32-9-1 7 0 8 3 2 8-17 19-11 20 10 1 13-2 18-9 14s-8-2-4 5c11 17 26 3 22-22zm220-3c3-16 2-26-1-23-3 4-8 19-11 35s-2 26 1 23c3-4 8-19 11-35zm99 8c0-12-3-21-7-19-4 1-14-7-23-18-16-19-16-19-5 3 6 12 16 20 21 16 13-8 7 28-6 39-6 5-4 7 5 4 8-2 15-13 15-25zm41 16c4-7 3-8-4-4s-12 2-12-5-3-10-6-6c-6 5 3 27 11 27 2 0 7-5 11-12zm51 3c-10-4-17-11-15-16 2-6-8-11-22-12l-25-2 25 8c14 5 21 9 17 10-16 2 4 21 21 20 15 0 15-1-1-8zm-550-23c-3-8-6-5-6 6-1 11 2 17 5 13 3-3 4-12 1-19zm203 12c0-5-8-10-17-10-15 0-16 2-3 10 19 12 20 12 20 0zm40-5c0-8-4-15-8-15-5 0-9 7-9 15s4 15 9 15c4 0 8-7 8-15zm-320-5c0-5-8-10-17-10-15 0-16 2-3 10 19 12 20 12 20 0zm410 6c0-2-7-6-15-10-8-3-15-1-15 4 0 6 7 10 15 10s15-2 15-4zm95-6c-3-5-12-10-18-10-7 0-6 4 3 10 19 12 23 12 15 0zm148-7c-4-10-2-14 5-9 6 3 15-2 21-12 7-14 6-19-4-19-7 0-11 7-8 14 3 8 0 13-8 11-7-2-15 5-17 15-2 9 1 17 7 17s7-7 4-17zm47 7c0-5-4-10-10-10-5 0-10 5-10 10 0 6 5 10 10 10 6 0 10-4 10-10zm-660-20c0-5-6-7-14-4-9 3-13-2-12-18 1-14-5-24-16-26-10-2-18 1-18 7s6 8 14 5c10-4 14 0 12 13-2 10-1 21 1 26 6 10 33 9 33-3zm256-23c-2-15-10-21-23-20-12 1-19-5-20-16-1-12 5-17 19-17 15 1 22-6 24-24 3-18 2-21-5-10-5 8-7 18-4 23s-5 7-18 5c-20-2-24 1-24 22 1 19 6 25 21 23 13-1 20 4 21 18 2 18 0 19-15 7s-16-11-3 4c17 22 32 14 27-15zm79 23c2-4-3-14-13-21-15-13-16-12-4 3s11 17-8 15c-15-1-20-6-17-19 3-10 0-21-5-25-7-3-8-1-4 5 4 7 2 12-4 12-7 0-8 6-1 18 10 18 47 27 56 12zm55-34c0-12-5-7-19 24-11 24-11 24 3 6 9-11 16-24 16-30zm121 21c-10-9-11-8-5 6 3 10 9 15 12 12s0-11-7-18zm82 8c4-8 3-16-1-19s-9 4-9 15c-2 23 3 25 10 4zm93 3c4-7 3-8-4-4s-12 2-12-5-3-10-6-6c-6 5 3 27 11 27 2 0 7-5 11-12zm-651-19c-3-12-7-24-10-27s-3 5-1 19c6 30 5 29 10 29 3 0 3-10 1-21zm389-1c-17-19-17-21-1-15 9 4 17 2 17-3 0-13-27-13-35-1-3 5 2 17 11 25 23 24 30 19 8-6zm-220 0c-3-4-15-13-27-18-20-10-20-10-5 3 10 8 16 16 13 19-3 2 2 5 10 5s12-4 9-9zm153-10c-3-8-6-5-6 6-1 11 2 17 5 13 3-3 4-12 1-19zm195 14c-13-4-22-11-21-17 2-5-5-11-14-13s-17 1-17 7 7 8 15 4c9-3 15-2 14 3-3 19 2 24 24 23l22-1zm-486-24c5-7 3-8-5-4-8 6-11 2-9-10 2-11 12-24 23-31s16-12 10-12c-28-1-53 38-39 61 7 11 12 10 20-4zm46 4c-13-4-23-11-22-17 1-5-4-11-12-13-9-2-8 0 2 7 8 6 11 11 7 11-5 0-5 5-2 10 3 6 16 10 28 9 22-1 22-1-1-7zm219-9c-25-44-30-49-28-26 0 12 4 20 8 17 4-2 9 3 13 11 3 8 8 15 11 15s1-8-4-17zm284-14c0-15-5-23-14-21-8 2-11-3-8-11s1-20-4-28c-5-9-7-4-5 16 1 17 8 29 14 28 7-2 12 6 12 16 0 14-5 18-19 14-10-3-21-1-24 4s7 8 21 7c22-1 27-6 27-25zm75 15c0-2-7-4-15-4s-15 4-15 10c0 5 7 7 15 4 8-4 15-8 15-10zm-234-30c-3-8-11-12-17-8-9 5-10-1-5-22 5-24 4-26-5-11-12 21-4 51 11 42 6-3 10 4 11 17 0 13 3 17 6 10s2-20-1-28zm209-4c5 1 11-4 13-12 3-11 2-11-6 0-5 8-13 12-18 10-5-1-10 8-11 22-2 24-2 24 5 2 4-13 11-23 17-22zm-658 24c-3-3-12-4-19-1-8 3-5 6 6 6 11 1 17-2 13-5zm126-11c-5-15-3-16 8-5 7 6 17 12 23 12 5 0 1-6-9-14-11-8-23-12-27-10-11 7-10 34 2 34 5 0 7-8 3-17zm157 1c0-2-7-4-15-4s-15 4-15 10c0 5 7 7 15 4 8-4 15-8 15-10zm129 1c3-3-7-4-23-1s-31 8-35 11c-3 3 7 4 23 1s31-8 35-11zm82-9c15 9 22-23 10-43-9-15-10-13-5 10 5 20 3 27-7 25-7-2-14 4-14 12-1 8 0 9 2 2 3-7 9-10 14-6zm67 16c8-6 2-9-18-9s-26 3-18 9c7 4 15 8 18 8s11-4 18-8zm-455-49c-3-8 0-13 8-11 9 2 14-6 14-22 0-15-5-24-12-22-7 1-13-5-13-13s-5-15-10-15c-7 0-7 7 0 20 6 11 15 18 21 15 5-4 9 3 9 14 0 14-5 19-20 16-11-2-23 1-26 7-4 7-2 8 4 4 12-7 16 4 13 34-2 13 0 13 8 1 5-8 7-20 4-28zm86-3c0-10-3-8-9 5-12 27-12 43 0 25 5-8 9-22 9-30zm174 22c-4-15 13-16 20-2 3 6 4 5 3-2-2-7-9-13-17-13s-13 5-12 12c2 6-6 11-17 10s-20-6-20-11-3-7-6-3c-11 11 5 24 28 23 13-1 22-7 21-14zm190-6c4-10 1-13-9-9-15 6-19 23-5 23 5 0 11-7 14-14zm-543-6c0-5-4-10-10-10-5 0-10 5-10 10 0 6 5 10 10 10 6 0 10-4 10-10zm35-8c-3-3-11 0-18 7-9 10-8 11 6 5 10-3 15-9 12-12zm120 8c3-6-1-7-10-4-11 5-14 2-9-12 5-15 4-16-4-4-11 15-7 30 8 30 5 0 12-4 15-10zm118-10c3-11 3-20 1-20s-8 9-14 20-7 20-2 20c6 0 12-9 15-20zm192 11c3-6-3-9-14-8-11 0-17 5-15 9 7 11 22 10 29-1zm160-1c3-5 2-10-4-10-5 0-13 5-16 10-3 6-2 10 4 10 5 0 13-4 16-10zm-405-21c0-6-4-7-10-4-5 3-10 11-10 16 0 6 5 7 10 4 6-3 10-11 10-16zm118-4c-3-3-9 2-12 12-6 14-5 15 5 6 7-7 10-15 7-18zm-22-18c-3-24-28-31-32-9-1 7 0 8 3 2 8-17 19-11 20 10 1 13-2 18-9 14s-8-2-4 5c11 17 26 3 22-22zm79 3c-3-14 2-20 16-20 10 0 18 6 17 13-2 7 7 12 22 12s24-5 23-12c-2-7 6-13 16-13 14 0 18 5 14 19-3 10-1 21 4 24s8-7 7-21c-1-22-6-27-25-27-14 0-23 5-21 13 1 6-7 12-18 12s-19-6-17-12c1-8-8-13-23-13s-24 5-22 13c3 15-15 16-20 0-3-8-7-6-11 5-3 9-3 16 1 16 21-3 32 2 26 13-4 6-3 8 4 4 6-3 9-15 7-26zm200 21c-3-5 4-11 15-13 12-2 20-7 20-13-1-5 9-13 22-17 22-7 22-7-2-5-14 1-24 8-22 15 1 6-7 12-18 12s-19-6-17-12c1-8-8-13-20-13-13 0-23 4-22 10 0 5-8 13-18 17-16 7-16 8 2 5 11-2 19-9 18-15-2-7 6-12 16-12 13 0 18 6 16 18-2 17 2 32 11 32 3 0 3-4-1-9zm65-1c0-5-4-10-10-10-5 0-10 5-10 10 0 6 5 10 10 10 6 0 10-4 10-10zm-643-15c0-8-4-15-9-15-4 0-8 7-8 15s4 15 8 15c5 0 9-7 9-15zm59-12c-6-6-36 9-36 18 0 5 9 4 20-3 10-7 18-14 16-15zm129 7c3-6-1-7-9-4-18 7-21 14-7 14 6 0 13-4 16-10zm31-7c-2-9-9-19-17-21-11-3-11-1 1 7 8 6 11 11 7 11-5 0-5 5-2 10 9 15 14 12 11-7zm21-5c-3-8-6-5-6 6-1 11 2 17 5 13 3-3 4-12 1-19zm-223-10c-5-8-1-9 12-4 14 5 16 4 7-5-13-13-37-3-28 12 4 5 8 9 11 9s2-5-2-12zm155-2c0-5 5-13 13-17 10-7 10-9 0-9-7 0-10-5-6-12 4-6 3-8-4-4-6 3-9 15-7 26 3 13-2 18-16 17-13-1-18-6-14-17 5-11 3-12-6-3-6 6-9 16-5 21 7 12 47 10 45-2zm-70-23c-12-15-12-16 4-10 9 3 17 2 17-3 0-11-23-13-33-3-7 6 10 33 20 33 3 0-1-8-8-17zm158 11c-2-3-17-7-33-10-17-2-24-1-17 4 13 8 58 14 50 6zm80 0c-2-3-17-7-33-10-17-2-24-1-17 4 13 8 58 14 50 6zm93-4c-8-5-19-10-25-10-5 0-3 5 5 10s20 10 25 10c6 0 3-5-5-10zm98 2c8-6 2-9-18-9s-26 3-18 9c7 4 15 8 18 8s11-4 18-8zm82-2c8-5 11-10 5-10-5 0-17 5-25 10s-10 10-5 10c6 0 17-5 25-10zm-334-28c1-7 0-8-3-2-8 17-19 11-20-10-1-13 2-18 9-14s8 2 4-5c-4-6-12-9-17-6-7 5-7 20 0 53 2 9 25-6 27-16zm98 9c3-4-6-6-21-3-17 3-24 1-19-6 3-6 2-13-3-16-7-5-8 11-2 32 2 6 40 1 45-7zm83-22c2-18 1-20-6-9-5 8-7 18-5 22 3 4 0 8-5 8-6 0-11-5-11-12 0-6-3-9-6-5-9 9 6 29 19 24 5-1 12-14 14-28zm139 13c1-7 0-8-3-2-8 16-19 12-20-9-1-13 5-18 20-17 17 1 21-4 20-22-2-15 1-21 9-16 7 4 8 3 4-5-11-17-28-2-21 19 4 13 0 17-17 16s-23 5-24 19c0 11 2 24 4 28 5 11 25 3 28-11zm-460-14c-2-16-10-22-24-21-15 2-20-2-16-12 4-8 2-15-4-15s-9 8-7 18c1 11 10 16 24 15 11-2 20 1 20 5-2 14 1 32 6 32 3 0 3-10 1-22zm68 6c3-8 2-12-4-9s-10 1-10-6-2-10-5-7c-5 5 4 38 10 38 2 0 6-7 9-16zm103-6c-3-8-6-5-6 6-1 11 2 17 5 13 3-3 4-12 1-19zm93 7c0-8-4-15-10-15-5 0-7 7-4 15 4 8 8 15 10 15s4-7 4-15zm77-7c-3-8-6-5-6 6-1 11 2 17 5 13 3-3 4-12 1-19zm43 12c0-5-4-10-10-10-5 0-10 5-10 10 0 6 5 10 10 10 6 0 10-4 10-10zm107-12c-3-8-6-5-6 6-1 11 2 17 5 13 3-3 4-12 1-19zm-547 2c0-5-7-7-15-4-8 4-15 8-15 10s7 4 15 4 15-4 15-10zm77-12c-3-8-6-5-6 6-1 11 2 17 5 13 3-3 4-12 1-19zm77-14c3-8 2-12-4-9s-10 10-10 16c0 14 7 11 14-7zm66-4c6-11 7-20 2-20-6 0-12 9-15 20s-3 20-1 20 8-9 14-20zm75-11c0-19-6-24-24-24s-25 6-28 25c-2 18-1 21 6 10 5-8 7-18 5-22-3-4 3-8 13-8 11 0 19 8 20 19 1 14-3 18-13 14-8-3-14-1-14 5s8 9 18 8c11-2 17-12 17-27zm65 18c0-5-7-7-15-3-9 3-15 0-15-9 0-8-5-15-10-15-7 0-7 6-1 18 10 19 41 26 41 9zm55 4c-3-5 5-11 17-13 13-2 22-9 20-16-3-15 29-12 41 3 5 6 7 4 4-5-4-18-53-21-49-2 1 6-7 12-18 12s-19-5-17-12c2-14-41-20-49-6-4 5-1 15 5 21 9 9 11 8 6-3-4-11 1-16 14-17s18 4 16 15c-2 18 2 32 11 32 3 0 3-4-1-9zm59-7c3-8 2-12-4-9s-10 10-10 16c0 14 7 11 14-7zm-342-23c-3-14 29-11 41 4 5 6 7 4 4-5-5-19-53-20-49-1 2 8-3 11-11 8s-20-1-28 4c-9 5-4 7 16 5 18-1 29-7 27-15zm-40-29c-2-14 1-21 10-20 8 2 12-5 11-20-2-13 1-21 7-17 15 9 34-35 20-49-8-8-9-6-4 8 5 13 4 17-4 12s-10-2-6 9c4 10 2 15-7 13s-13 5-12 19c2 14-2 22-10 20-7-1-12 8-11 21 0 15-5 22-19 22-17 0-18-2-6-17 13-16 12-17-3-4-22 17-13 33 15 29 16-2 21-9 19-26zm105 9c0-11-5-18-9-15s-5 11-1 19c7 21 12 19 10-4zm157 3c3-8 2-12-4-9s-10 10-10 16c0 14 7 11 14-7zm-219-22c-3-3-11 0-18 7-9 10-8 11 6 5 10-3 15-9 12-12zm105 8c0-5-7-7-15-4-8 4-15 8-15 10s7 4 15 4 15-4 15-10zm90 2c0-5-7-9-15-9s-15 4-15 9c0 4 7 8 15 8s15-4 15-8zm118 0c8-6 2-9-18-9s-26 3-18 9c7 4 15 8 18 8s11-4 18-8zm112-2c0-5-8-10-17-10-15 0-16 2-3 10 19 12 20 12 20 0zm-385-9c3-5 0-13-6-17-7-4-9-3-5 4 3 5 0 13-6 15-9 4-10 6-1 6 6 1 14-3 18-8zm41-10c-3-5 1-12 10-15 22-8 24-8 22 6-4 14 31 23 43 11 4-4 3-15-2-23-9-13-10-12-5 3 4 12 0 17-15 17-11 0-18-4-14-9 3-6-4-15-16-21-12-7-19-8-15-2 3 5-1 13-10 16-13 5-12 26 2 26 3 0 3-4 0-9zm144-1c0-5-4-10-10-10-5 0-10 5-10 10 0 6 5 10 10 10 6 0 10-4 10-10zm156-6c-3-9-6-18-6-20s-5-4-11-4c-8 0-9 4 0 13 6 8 8 17 4 20-3 4-1 7 6 7 8 0 11-6 7-16zm-362-9c3-8 1-15-4-15-6 0-10 7-10 15s2 15 4 15 6-7 10-15zm236-22c-11-17-11-17-6 0 3 10 6 24 7 30 0 9 2 9 5 0 3-7 0-20-6-30zm50 27c0-5-4-10-10-10-5 0-10 5-10 10 0 6 5 10 10 10 6 0 10-4 10-10zm39-35c0-5-4-3-9 5s-9 22-9 30c0 16 17-16 18-35zm-284 6c-3-6-11-9-16-5-13 8-7-28 6-39 6-5 4-7-5-4-19 5-20 53-1 49 9-2 11 3 7 15-6 14-4 15 5 6 6-6 8-16 4-22zm138 15c3-8 3-17 0-20-10-10-33-7-33 4 0 5 8 6 18 3 15-6 15-5 3 10-7 9-9 17-3 17 5 0 12-6 15-14zm42 4c-3-5-12-10-18-10-7 0-6 4 3 10 19 12 23 12 15 0zm165-5c-10-12-10-15 0-15 8 0 11-3 7-6-3-3-10-3-16 0-12 8-3 36 11 36 6 0 5-6-2-15zm-82-28c2-9-1-17-7-17s-8 6-5 13c3 8-3 13-16 13-26 0-22-28 5-38 17-6 17-7-4-5-22 2-37 29-26 47 8 13 50 3 53-13zm-153-25c6 2 11-7 13-20s8-20 14-16 8 2 4-4c-3-6-15-9-26-7-15 3-20-2-20-16 0-11 5-17 10-14 15 9 23-21 11-42-9-15-10-13-5 10 5 21 3 27-7 25-9-2-14 6-14 22 0 15 5 24 13 23 6-2 12 6 12 17s-6 19-12 18c-7-2-14 8-15 22-2 24-2 24 5 2 4-13 12-22 17-20zm-85 24c0-2-7-7-16-10-8-3-12-2-9 4 6 10 25 14 25 6zm135-6c-27-12-43-12-25 0 8 5 22 9 30 9 10 0 8-3-5-9zm165 0c0-5-7-6-17-3-10 4-14 2-9-5 4-6-3-16-16-22-22-11-22-10-4 4 11 9 16 16 12 16s-4 5-1 10c8 13 35 13 35 0zm42-7c-6-2-10-9-7-14 4-5-2-6-11-2-13 5-15 3-9-7 6-9 4-11-5-5-10 6-9 11 5 22 11 7 24 13 29 12 6 0 5-3-2-6zm-307-23c0-7-6-14-13-16-7-1-8 0-2 3 17 8 11 19-10 20-13 1-18-2-14-9s2-8-5-4c-6 4-9 12-6 17 9 13 50 4 50-11zm145-6c0-2-9 0-20 6s-20 13-20 16c0 2 9 0 20-6s20-13 20-16zm-40-5c0-6-4-7-10-4-5 3-10 11-10 16 0 6 5 7 10 4 6-3 10-11 10-16zm-185-7c-3-3-11 0-18 7-9 10-8 11 6 5 10-3 15-9 12-12zm96-9c-12-20-14-14-5 12 4 9 9 14 11 11 3-2 0-13-6-23zm249 6c0-5-8-9-17-8-11 0-13 3-5 6 6 2 9 10 6 15-4 7-2 8 4 4 7-4 12-11 12-17zm42 4c-6-2-9-10-6-15 4-7 2-8-5-4-13 9-5 26 12 25 9 0 8-2-1-6zm-342-8c0-2-9-9-20-15-12-6-20-7-20-1 0 5 8 12 18 14 9 3 18 5 20 6 1 0 2-1 2-4zm194-27c1-14-2-24-7-21s-7 14-4 24c4 14 0 19-14 19-10 0-18-5-16-12 1-6-11-13-28-14-20-2-25 0-16 5 8 5 20 7 28 4s13-2 12 3c-3 20 2 25 23 22 15-2 22-10 22-30zm53 23c-10-4-17-11-16-16 1-6-6-11-17-12-18-3-18-2 1 6 11 5 16 10 12 10-16 2 4 21 21 20 15 0 15-1-1-8zm-220-17c-3-3-12-4-19-1-8 3-5 6 6 6 11 1 17-2 13-5zm246-9c-3-10-1-15 7-13 7 2 15-4 17-12 4-12 3-12-5-2-5 8-13 13-18 12-5 0-10 6-12 14-2 9 1 16 7 16s8-7 4-15zm47 5c0-5-4-10-10-10-5 0-10 5-10 10 0 6 5 10 10 10 6 0 10-4 10-10zm-136-50c-6-5-24 21-24 34 0 6 6 1 14-10 8-10 12-21 10-24zm67 7c-5-5-17-4-28 2-16 11-16 11 4 6 19-5 22-3 17 12s-4 15 5 3c6-8 6-19 2-23zm95 21c4-6 3-8-3-5-6 4-15-4-20-16-6-12-20-23-32-24-24-2-37 12-20 23 7 4 9 3 5-4-4-6 1-10 13-9 11 0 24 11 30 24 12 26 17 28 27 11zm-207-29c-5-11-15-17-20-13-13 8-7-28 6-39 6-5 4-7-5-4-19 5-20 53-1 49 9-2 12 4 8 17-3 14-1 18 9 14s11-10 3-24zm-74 11c3-5 1-10-4-10-6 0-11 5-11 10 0 6 2 10 4 10 3 0 8-4 11-10zm155-20c0-5-4-10-10-10-5 0-10 5-10 10 0 6 5 10 10 10 6 0 10-4 10-10zm118-16c0-17-3-22-8-13-5 6-6 18-3 26 8 19 11 16 11-13zm-283-4c-27-12-43-12-25 0 8 5 22 9 30 9 10 0 8-3-5-9zm105 6c0-2-7-7-16-10-8-3-12-2-9 4 6 10 25 14 25 6zm100-4c0-5-7-9-15-9s-15 4-15 9c0 4 7 8 15 8s15-4 15-8zm-42-27c-3-3-9 2-12 12-6 14-5 15 5 6 7-7 10-15 7-18zm76 13c-5-8-2-9 10-5 10 4 15 3 11-4-4-5-14-7-24-4-12 3-17-1-17-15 0-13 6-18 19-17 12 1 21-5 22-16 2-9-1-15-6-11-5 3-7 10-4 15 4 5-4 8-16 6-16-1-22 4-24 21-1 13 5 27 14 32 21 12 24 12 15-2zm-99-18c0-7-6-14-13-16-7-1-8 0-2 3 16 8 12 19-9 20-13 1-18-5-17-20 1-17-4-21-22-20-15 2-21-1-16-9 4-7 3-8-5-4-17 11-2 28 19 21 14-4 18-1 15 12-1 10-1 21 2 25 7 13 48 2 48-12zm-122-3c4 3 7 1 7-5 0-14-2-14-24-6-9 3-16 11-16 16 0 7 5 6 13-1 8-6 17-8 20-4zm177-7c0-5-5-10-11-10-5 0-7-5-3-12s3-8-4-4c-6 4-9 13-5 21 6 17 23 20 23 5zm-34-46c3-16 2-26-1-23-3 4-8 19-11 35s-2 26 1 23c3-4 8-19 11-35zm-122 10c3-8 2-12-4-9s-10 10-10 16c0 14 7 11 14-7zm96 2c0-2-7-6-15-10-8-3-15-1-15 4 0 6 7 10 15 10s15-2 15-4zm70-6c0-5-8-10-17-10-15 0-16 2-3 10 19 12 20 12 20 0zm-110-14c0-2-7-6-15-10-8-3-15-1-15 4 0 6 7 10 15 10s15-2 15-4zm48-32c-4-25-50-26-54-1-1 9 2 17 8 17s8-6 5-14c-4-10 0-14 14-13 11 1 19 9 19 20s-4 15-12 11c-7-5-8-3-3 5 10 17 28-2 23-25zm102 26c0-5-6-7-14-4-9 4-13-2-12-18 1-18-4-23-24-23-26 0-36 26-12 31 7 1 8 0 2-3-16-8-12-19 9-20 13-1 18 4 16 15-1 9 0 20 2 25 6 10 33 9 33-3zm12-42c-6-6-7 0-4 19 5 21 7 23 10 9 2-10 0-22-6-28zm-21-45c-11-16-11-16-6 4 5 19 3 22-12 17s-15-4-3 5c21 14 35-3 21-26zm43 22c-4-8-8-15-10-15s-4 7-4 15 4 15 10 15c5 0 7-7 4-15zm-114-15c0-5-4-10-10-10-5 0-10 5-10 10 0 6 5 10 10 10 6 0 10-4 10-10zm28-14c-23-17-23-21 2-23 13-1 18 2 14 9s-2 8 5 4c16-11 3-26-19-23-31 5-37 17-16 33 25 18 37 18 14 0zm-43-22c9-15 12-23 6-20-11 7-35 46-28 46 3 0 12-12 22-26zm129 14c-3-4 0-8 7-8s10-3 6-6c-3-3-16 1-28 9-22 16-22 16-1 14 11 0 18-5 16-9zm-19-36c0-12-4-21-9-21s-13-5-18-13c-8-10-9-10-5 2 2 8 10 14 16 12 14-3 11 29-4 41-6 5-4 7 5 4 8-2 15-13 15-25zm-30-2c-3-5-12-10-18-10-7 0-6 4 3 10 19 12 23 12 15 0zm45-40c0-5-5-10-11-10-5 0-7 5-4 10 3 6 8 10 11 10 2 0 4-4 4-10zm-30-20c0-5-4-10-10-10-5 0-10 5-10 10 0 6 5 10 10 10 6 0 10-4 10-10zm60 0c0-5-2-10-4-10-3 0-8 5-11 10-3 6-1 10 4 10 6 0 11-4 11-10zm-20-20c0-5-7-7-15-4-8 4-15 8-15 10s7 4 15 4 15-4 15-10zm22-17c-6-2-10-9-7-13 3-5 1-11-4-14-7-5-8 11-2 32 1 1 7 2 14 1 9 0 9-2-1-6zm-32-23c0-5-2-10-4-10-3 0-8 5-11 10-3 6-1 10 4 10 6 0 11-4 11-10z"/><path d="m3623 3959c1-10 9-17 18-16 10 1 17 9 16 18-1 10-9 17-18 16-10-1-17-9-16-18z"/><path d="m3940 3160c0-9 8-16 18-17 11-1 18 5 18 17s-7 18-18 17c-10-1-18-8-18-17z"/><path d="m3668 3008c9-9 15-9 24 0s7 12-12 12-21-3-12-12z"/></g></svg>