<svg xmlns="http://www.w3.org/2000/svg" xmlns:xlink="http://www.w3.org/1999/xlink" viewBox="604 359 888 120"><defs><style>.a{clip-path:url(#b);}</style><clipPath id="b"><rect x="604" y="359" width="888" height="120"/></clipPath></defs><g id="a" class="a"><g transform="translate(604 319)"><g transform="translate(187 26.7)"><g transform="translate(10 26.3)"><path d="M110,65.207c-.031-.918-2.02,4.357-2.092,3.449-.592-6.734-2.01-14.744-5.571-20.255.194,1.082-.51,2.061-1.092,2.949A48.356,48.356,0,0,0,23.02,42.208a23.6,23.6,0,0,1-2.163-7.4q-5.235,5.127-5.2,18.163c-.388.765-.745,1.541-1.092,2.337C13.7,56.605,12.571,58.36,12,59.4a14.368,14.368,0,0,0-2,6.765.223.223,0,0,1,.031-.051,4.518,4.518,0,0,0,.163,1.122l1.041-.847a48.861,48.861,0,0,0-.7,8.245,48.338,48.338,0,0,0,48.335,48.335H59.4c.163,0,.327,0,.49-.01A48.212,48.212,0,0,0,94.375,108c6.7-7.02,12.469-17.214,13.979-27.265a64.518,64.518,0,0,0,.929-6.683C109.415,72.339,110.048,66.85,110,65.207ZM41.56,33.657a44.4,44.4,0,0,1,40.652,3.122A61.41,61.41,0,0,0,70,35.31a28.525,28.525,0,0,1,6.235,1.877c2.6,1.153,4.316,2.622,5.112,4.377a11.688,11.688,0,0,0-6.51.469Q95.5,50.192,94.4,61.411A7.116,7.116,0,0,0,90.345,58.3q3.168,12.306.612,20.316c-1.173-3.561-1.592-7.439-2.561-8.194,1.337,10.989-1.122,20.867-6.071,26.162a21.762,21.762,0,0,0,1.1-7.969c-5.806,8.694-11.765,11.438-19.163,11.724a27.265,27.265,0,0,1-8.3-1.316h0a26.125,26.125,0,0,1-10.347-6.561,24.017,24.017,0,0,0,13.051-2.388L65,85.972l-.02-.02a2.888,2.888,0,0,1,2.347.071c1.541-.214,2.082-1.031,1.571-2.408a10.249,10.249,0,0,0-3.326-2.786c-3.163-1.643-6.469-1.388-9.908.8a8.611,8.611,0,0,1-9.51-.184,27.848,27.848,0,0,1-5.837-5.551l-.755-1.1,2.877-3.867a37.949,37.949,0,0,1,7.1,1.429,11.594,11.594,0,0,0-1.755-7.969v-.051a37.435,37.435,0,0,1,6.632-5.081c.847-.449,2.01-3.51,1.173-4.03a20.938,20.938,0,0,1-5.275-.378l-.02.071a7.742,7.742,0,0,1-2.765-1.918l-2.877-2.806s-.867-.98-.8-1.031a16.576,16.576,0,0,1,1.99-5.53,35.46,35.46,0,0,1,5.6-5.173,23.128,23.128,0,0,0-13.336,6.612c-3.275-1.194-7.173-.939-11.643.775l.02-.02a5.49,5.49,0,0,1-.969-.571c.612-.694,1.255-1.378,1.908-2.041A44.128,44.128,0,0,1,41.56,33.657Z" transform="translate(-10 -26.3)"/></g></g><g transform="translate(384 40)"><g transform="translate(10 10)"><path d="M60,10a50,50,0,1,0,50,50A50,50,0,0,0,60,10Zm43.592,46.173-.1-1.031C103.52,55.49,103.551,55.816,103.592,56.173ZM96.755,36.255l-.7-1.051C96.286,35.551,96.52,35.9,96.755,36.255ZM94.041,32.52l-.429-.531C93.765,32.163,93.908,32.347,94.041,32.52ZM87.99,26.367l-.531-.429C87.653,26.092,87.816,26.235,87.99,26.367Zm-3.184-2.418-1.051-.7C84.1,23.48,84.449,23.714,84.806,23.949ZM64.867,16.52l-1.051-.1C64.163,16.449,64.51,16.48,64.867,16.52Zm-8.694-.112-1.051.1C55.469,16.48,55.816,16.449,56.173,16.408ZM36.255,23.245l-1.051.7C35.551,23.714,35.9,23.48,36.255,23.245ZM32.52,25.959l-.51.408C32.184,26.235,32.347,26.092,32.52,25.959ZM26.367,32.01l-.429.531C26.092,32.367,26.235,32.184,26.367,32.01Zm-2.418,3.184-.7,1.051C23.48,35.9,23.714,35.551,23.949,35.194ZM16.52,55.133l-.1,1.051C16.449,55.837,16.48,55.49,16.52,55.133Zm-.112,8.694.1,1.051C16.48,64.531,16.449,64.184,16.408,63.827Zm6.837,19.908.7,1.051C23.714,84.449,23.48,84.1,23.245,83.735Zm.816,1.224,7.8-5.214L31,78.439l-7.8,5.214a43.388,43.388,0,0,1-6.643-18.592l4.663-.469-.153-1.561-4.663.469c-.082-.9-.112-1.816-.133-2.735h9.378V59.2H16.265c.02-.918.061-1.816.133-2.735l4.663.449.153-1.561L16.561,54.9a43.414,43.414,0,0,1,6.663-18.592l7.8,5.214.857-1.306-7.816-5.173c.531-.745,1.051-1.48,1.622-2.184L29.3,35.827l1-1.214-3.612-2.969c.582-.7,1.214-1.367,1.837-2.031l6.622,6.622,1.112-1.112L29.633,28.5c.663-.622,1.327-1.255,2.01-1.837L34.612,30.3l1.214-1-2.969-3.612c.724-.571,1.449-1.112,2.184-1.643l5.214,7.8,1.306-.857-5.214-7.8a43.522,43.522,0,0,1,18.592-6.643l.469,4.663,1.561-.153L56.5,16.388c.9-.082,1.816-.112,2.735-.133v9.378H60.8V16.255c.918.02,1.816.061,2.735.133l-.449,4.663,1.561.153.449-4.663A43.414,43.414,0,0,1,83.684,23.2L78.469,31l1.306.857,5.214-7.8c.745.531,1.48,1.051,2.184,1.622L84.2,29.3l1.214,1,2.969-3.612c.7.582,1.367,1.214,2.031,1.837l-2.5,2.439-34.184,22.8-22.8,34.184L28.5,90.378c-.622-.663-1.255-1.327-1.837-2.01L30.276,85.4l-1-1.214-3.612,2.969c-.551-.7-1.071-1.449-1.6-2.194Zm2.306,3.031c-.133-.173-.276-.337-.408-.51Zm5.643,5.643.51.408C32.347,93.908,32.184,93.765,32.01,93.633Zm3.184,2.4,1.051.7C35.9,96.52,35.551,96.286,35.194,96.031Zm19.939,7.449,1.051.1C55.837,103.551,55.49,103.52,55.133,103.48Zm8.694.112,1.031-.1C64.51,103.52,64.184,103.551,63.827,103.592Zm19.929-6.837,1.051-.7C84.449,96.286,84.1,96.52,83.755,96.755Zm3.724-2.714.531-.429C87.837,93.765,87.653,93.908,87.48,94.041ZM90.9,90.98l.082-.082Zm2.735-2.99.429-.531C93.908,87.633,93.765,87.816,93.633,87.99Zm.684-.837L90.7,84.184l-1,1.214,3.612,2.969c-.582.7-1.214,1.367-1.837,2.031l-6.622-6.622-1.112,1.112,6.622,6.622c-.663.622-1.327,1.255-2.01,1.837l-2.969-3.633-1.214,1,2.969,3.612c-.724.571-1.449,1.112-2.184,1.643l-5.214-7.806-1.306.857,5.214,7.8a43.522,43.522,0,0,1-18.592,6.643L64.592,98.8l-1.561.153.469,4.663c-.9.082-1.816.112-2.735.133V94.367H59.2v9.378c-.918-.02-1.816-.061-2.735-.133l.449-4.663L55.357,98.8l-.449,4.663A43.414,43.414,0,0,1,36.316,96.8L41.531,89l-1.306-.857-5.173,7.8c-.745-.531-1.48-1.051-2.184-1.622L35.837,90.7l-1.214-1-2.969,3.612c-.7-.582-1.367-1.214-2.031-1.837l2.459-2.439,34.184-22.8,22.8-34.184L91.5,29.622c.622.663,1.255,1.327,1.837,2.01L89.724,34.6l1,1.214,3.612-2.969c.571.724,1.112,1.449,1.643,2.184l-7.816,5.224.857,1.306,7.8-5.214a43.522,43.522,0,0,1,6.643,18.592l-4.663.469.153,1.561,4.663-.469c.082.9.112,1.816.133,2.735H94.367V60.8h9.378c-.02.918-.061,1.816-.133,2.735l-4.663-.449L98.8,64.643l4.663.449A43.414,43.414,0,0,1,96.8,83.684L89,78.469l-.857,1.306,7.8,5.214c-.51.714-1.051,1.439-1.622,2.163Zm9.276-23.347c-.041.347-.061.7-.1,1.051ZM96.755,83.755c-.235.347-.469.7-.7,1.051Z" transform="translate(-10 -10)"/><path d="M410.431,78l1.827,9.194-1.531.306L408.9,78.306Z" transform="translate(-368.196 -71.061)"/><path d="M560.127,838.4l-1.827-9.194,1.531-.306,1.827,9.194Z" transform="translate(-502.351 -745.339)"/><path d="M369.7,87.4l1.357,4.49-1.5.449-1.357-4.49Z" transform="translate(-331.649 -79.502)"/><path d="M605.257,868.939l-1.357-4.49,1.5-.449,1.357,4.49-1.5.449Z" transform="translate(-543.298 -776.857)"/><path d="M330.439,101l3.592,8.663-1.439.6L329,101.6Z" transform="translate(-296.449 -91.714)"/><path d="M625.492,817.465,621.9,808.8l1.439-.6,3.592,8.663Z" transform="translate(-559.461 -726.751)"/><path d="M291,119.035l1.378-.735,2.214,4.133-1.378.735Z" transform="translate(-262.327 -107.249)"/><path d="M677.092,838.133l-1.378.735-2.214-4.133,1.378-.735Z" transform="translate(-605.796 -749.918)"/><path d="M118.935,291.2l4.133,2.2-.735,1.378-4.133-2.214Z" transform="translate(-107.159 -262.506)"/><path d="M838.033,677.282l-4.133-2.2.735-1.378,4.133,2.2Z" transform="translate(-749.829 -605.976)"/><path d="M109.663,333.831,101,330.239l.6-1.439,8.663,3.592Z" transform="translate(-91.714 -296.269)"/><path d="M808.992,621.8l8.663,3.592-.6,1.439-8.653-3.582Z" transform="translate(-726.931 -559.371)"/><path d="M87.949,368.3l4.49,1.357-.449,1.5L87.5,369.8Z" transform="translate(-79.592 -331.739)"/><path d="M868.49,606.657,864,605.3l.449-1.5,4.49,1.357Z" transform="translate(-776.857 -543.208)"/><path d="M78.206,408.9l9.194,1.827-.306,1.531L77.9,410.431Z" transform="translate(-70.971 -368.196)"/><path d="M837.994,561.657l-9.194-1.827.306-1.531,9.194,1.827Z" transform="translate(-745.249 -502.351)"/><path d="M77.9,560.026l9.194-1.827.306,1.531-9.194,1.827Z" transform="translate(-70.971 -502.261)"/><path d="M838.3,410.331l-9.194,1.827-.306-1.531,9.194-1.827Z" transform="translate(-745.249 -368.106)"/><path d="M87.5,605.357,91.99,604l.449,1.5-4.49,1.357Z" transform="translate(-79.592 -543.388)"/><path d="M869.039,369.8l-4.49,1.357-.449-1.5,4.49-1.357Z" transform="translate(-776.947 -331.739)"/><path d="M101.5,626.931l-.6-1.439,8.663-3.592.6,1.439Z" transform="translate(-91.624 -559.461)"/><path d="M816.863,328.9l.6,1.439-8.663,3.592-.6-1.439Z" transform="translate(-726.751 -296.359)"/><path d="M119.135,677.292l-.735-1.378,4.133-2.214.735,1.378Z" transform="translate(-107.339 -605.976)"/><path d="M838.233,291.2l.735,1.378-4.133,2.214-.735-1.378Z" transform="translate(-750.008 -262.506)"/><path d="M292.478,838.867l-1.378-.735L293.314,834l1.378.735Z" transform="translate(-262.416 -749.918)"/><path d="M675.9,118.2l1.378.735-2.2,4.133-1.378-.735Z" transform="translate(-605.976 -107.159)"/><path d="M328.9,816.863l3.592-8.663,1.439.6-3.582,8.663Z" transform="translate(-296.359 -726.751)"/><path d="M626.931,101.412l-3.592,8.653-1.439-.6,3.592-8.663Z" transform="translate(-559.461 -91.535)"/><path d="M369.7,869.039l-1.5-.449,1.357-4.49,1.5.449-1.357,4.49Z" transform="translate(-331.649 -776.947)"/><path d="M605.157,87.4l1.5.449-1.357,4.49-1.5-.449Z" transform="translate(-543.208 -79.502)"/><path d="M410.431,838.3l-1.531-.306,1.827-9.194,1.531.306Z" transform="translate(-368.196 -745.249)"/><path d="M560.027,77.9l1.531.306L559.731,87.4l-1.531-.306Z" transform="translate(-502.261 -70.971)"/></g></g><g transform="translate(546.9 41)"><g transform="translate(48.1 10)"><path d="M48.1,54.387C51.029,31.265,66.8,10.3,95.079,10c17.061.337,31.1,8.061,39.458,22.806,4.194,7.694,5.51,15.775,5.775,24.7V68H77.589c.3,25.867,38.071,24.989,54.335,13.592v21.061c-9.53,5.724-31.142,10.836-47.876,4.255C69.793,101.559,59.641,86.641,59.7,72.284c-.469-18.612,9.255-30.928,24.346-37.938-3.2,3.959-5.643,8.337-6.908,15.918h35.418S114.629,29.1,92.507,29.1C71.65,29.816,56.61,41.948,48.1,54.387Z" transform="translate(-48.1 -10)"/></g></g><g transform="translate(-9.999 40.052)"><g transform="translate(9.999 10.948)"><path d="M153.335-499.693a50.161,50.161,0,0,0-23.926,10.236c-2.362,1.829-7.036,6.426-7.568,7.442-.331.584.051,1.32,7.568,14.324,4.343,7.518,8,13.792,8.1,13.893.127.127.305-.331.406-1.016a25.3,25.3,0,0,1,2.311-6.4,23.2,23.2,0,0,1,14.782-11.227c1.905-.508,2.591-.508,25.907-.483l23.951.026-.558-1.092a49.674,49.674,0,0,0-7.975-10.845A49.907,49.907,0,0,0,167-499.744,70.147,70.147,0,0,0,153.335-499.693Z" transform="translate(-110.358 500.052)"/><path d="M16.91-273.375a49.94,49.94,0,0,0-6.5,19.074,49.862,49.862,0,0,0,14.223,41.578A49.847,49.847,0,0,0,49.726-199.11a15.482,15.482,0,0,0,2.794.457c.1-.128,15.467-26.847,15.874-27.584l.28-.534-1.4.483a23.466,23.466,0,0,1-8.534,1.143c-8.61-.534-15.7-5.385-19.709-13.487-.838-1.677-20.573-35.939-20.9-36.269C18.029-275.026,17.47-274.34,16.91-273.375Z" transform="translate(-9.999 297.888)"/><path d="M339.061-188.119A18.334,18.334,0,0,0,324.05-174.3a21.612,21.612,0,0,0,.457,9.728,18.224,18.224,0,0,0,8.915,10.338,15.853,15.853,0,0,0,8.305,1.981,17.431,17.431,0,0,0,16.129-10.108,18.034,18.034,0,0,0,1.27-12.572,18.743,18.743,0,0,0-8.966-11.252A19.325,19.325,0,0,0,339.061-188.119Z" transform="translate(-291.689 220.1)"/><path d="M497.554-187.027a21.9,21.9,0,0,1,6.375,16.941,21.13,21.13,0,0,1-2.311,8.941c-.584,1.168-5.943,10.541-11.912,20.878-5.968,10.312-10.819,18.82-10.744,18.871.254.254,6.807.051,9.27-.331a50.335,50.335,0,0,0,35.737-23.722,50.559,50.559,0,0,0,6.985-29.462,51.371,51.371,0,0,0-2.388-11.989l-.813-2.362-16.23-.077-16.23-.051Z" transform="translate(-431.108 221.09)"/></g></g><g transform="translate(788 44.982)"><path d="M75.473,64.1H99.738a46.757,46.757,0,0,0,.262-5.16A44.986,44.986,0,0,0,93.922,36.3c4-10.62,3.854-19.633-1.5-25.02-5.088-5.066-18.739-4.243-34.17,2.59q-1.712-.13-3.457-.131A45.243,45.243,0,0,0,10.934,47.952c6.644-8.507,13.634-14.675,22.972-19.166-.849.8-5.8,5.721-6.637,6.555C2.645,59.958-5.12,92.116,3.235,100.473c6.351,6.35,17.862,5.278,31.083-1.2A45.222,45.222,0,0,0,97.569,73.595H73.118a19.853,19.853,0,0,1-37.35-9.422V64.1H75.473ZM35.8,52.172a19.024,19.024,0,0,1,37.986,0H35.8ZM92.2,16.3c3.446,3.483,3.36,9.89.412,17.889A45.372,45.372,0,0,0,71.565,16.953C80.828,12.981,88.363,12.455,92.2,16.3ZM9.609,98.888c-4.4-4.4-3.072-13.632,2.593-24.757A45.367,45.367,0,0,0,31.46,97.687C21.651,102.141,13.621,102.9,9.609,98.888Z" transform="translate(0)"/></g></g></g></svg>