<svg xmlns="http://www.w3.org/2000/svg" xmlns:xlink="http://www.w3.org/1999/xlink" viewBox="604 579 888 120"><defs><style>.a{clip-path:url(#b);}.b{fill-rule:evenodd;}</style><clipPath id="b"><rect x="604" y="579" width="888" height="120"/></clipPath></defs><g id="a" class="a"><g transform="translate(604.016 578.012)"><path class="b" d="M24.494,24.77c-7.968,0-13.064,6.02-13.064,15.537s5,15.562,13.064,15.562,13.064-6.045,13.064-15.562S32.463,24.77,24.494,24.77Z" transform="translate(17.146 20.645)"/><path class="b" d="M97.969,24.307a21.108,21.108,0,0,0-13.414-12.04,43.539,43.539,0,0,0-12.09-1.249H27.5a43.539,43.539,0,0,0-12.065,1.274A21.133,21.133,0,0,0,2,24.307,39.168,39.168,0,0,0,.025,38.5V83.459A39.168,39.168,0,0,0,2,97.622a21.208,21.208,0,0,0,13.414,12.04,43.464,43.464,0,0,0,12.09,1.274H72.465a43.464,43.464,0,0,0,12.065-1.274,21.183,21.183,0,0,0,13.414-12.04,39.168,39.168,0,0,0,2-14.163V38.5a39.168,39.168,0,0,0-1.973-14.188ZM21.632,77.738H19.808V52.759h1.824Zm-.924-31.2a1.424,1.424,0,1,1,1.039-.4,1.424,1.424,0,0,1-1.039.4ZM41.64,78.213c-9.167,0-14.988-6.67-14.988-17.286s5.82-17.261,14.988-17.261,14.988,6.695,14.988,17.261S50.808,78.213,41.64,78.213Zm29.975,0c-6.894,0-11.815-3.872-12.09-9.442h1.848c.275,4.546,4.546,7.744,10.391,7.744s9.667-3.222,9.667-7.494c0-3.522-2.373-5.545-7.993-6.944l-4.072-1.1c-6.22-1.574-9.018-4.1-9.018-8.293,0-5.221,5-8.993,10.991-8.993s11.041,3.722,11.241,8.643h-1.8c-.25-4.022-4.172-6.944-9.467-6.944s-9.068,3.023-9.068,7.244c0,3.347,2.5,5.271,7.869,6.62l3.747.949c6.495,1.6,9.392,4.1,9.392,8.568-.025,5.57-4.7,9.442-11.715,9.442Z" transform="translate(0 0)"/></g><g transform="translate(998 589)"><path d="M55.289,42.426V41.6l-2.561.176a3.179,3.179,0,0,0-1.636.46,1.353,1.353,0,0,0,0,2.173,2.38,2.38,0,0,0,1.455.4,3.253,3.253,0,0,0,1.087-.178,2.7,2.7,0,0,0,.875-.5,2.225,2.225,0,0,0,.576-.752A2.2,2.2,0,0,0,55.289,42.426ZM50.25,9.25a49.637,49.637,0,0,0-50,50,49.636,49.636,0,0,0,50,50,49.636,49.636,0,0,0,50-50A49.636,49.636,0,0,0,50.25,9.25Zm9.706,29.636a4.961,4.961,0,0,1,1-1.7,4.377,4.377,0,0,1,1.557-1.092,5.6,5.6,0,0,1,3.848-.082,4.4,4.4,0,0,1,1.393.81,3.866,3.866,0,0,1,.923,1.188,3.993,3.993,0,0,1,.407,1.436H67.076a2.583,2.583,0,0,0-.272-.776,2.121,2.121,0,0,0-.513-.622,2.411,2.411,0,0,0-.752-.412,2.933,2.933,0,0,0-.976-.149,2.524,2.524,0,0,0-2.048.986,3.445,3.445,0,0,0-.571,1.145,5.124,5.124,0,0,0-.2,1.5,5.221,5.221,0,0,0,.2,1.528,3.3,3.3,0,0,0,.578,1.14,2.5,2.5,0,0,0,.9.713,2.688,2.688,0,0,0,1.154.248,2.738,2.738,0,0,0,1.68-.484A2.264,2.264,0,0,0,67.1,42.84h2.01a4,4,0,0,1-.455,1.5A3.873,3.873,0,0,1,67.7,45.5a4.257,4.257,0,0,1-1.383.742,5.593,5.593,0,0,1-1.747.263,5.352,5.352,0,0,1-2.039-.373,4.379,4.379,0,0,1-1.564-1.072,4.8,4.8,0,0,1-1-1.7,6.719,6.719,0,0,1-.354-2.253A6.5,6.5,0,0,1,59.956,38.886ZM31.395,35.845H33.4v1.786h.039a2.97,2.97,0,0,1,.482-.8,3.007,3.007,0,0,1,.684-.6,3.131,3.131,0,0,1,.853-.378,3.637,3.637,0,0,1,.981-.13,3.2,3.2,0,0,1,1.867.528,2.832,2.832,0,0,1,1.082,1.518h.051a3.162,3.162,0,0,1,.533-.853,3.411,3.411,0,0,1,.757-.646,3.52,3.52,0,0,1,.937-.407,4,4,0,0,1,1.072-.14,3.835,3.835,0,0,1,1.412.248,3.125,3.125,0,0,1,1.087.7,3.045,3.045,0,0,1,.694,1.1,4.036,4.036,0,0,1,.243,1.431v7.183h-2.1v-6.68a2.256,2.256,0,0,0-.535-1.607,1.987,1.987,0,0,0-1.523-.569,2.276,2.276,0,0,0-.889.171,2.029,2.029,0,0,0-.694.477,2.142,2.142,0,0,0-.455.733,2.546,2.546,0,0,0-.166.933v6.542H37.751V39.534a2.292,2.292,0,0,0-.142-.824,1.772,1.772,0,0,0-.4-.631,1.75,1.75,0,0,0-.636-.4,2.377,2.377,0,0,0-.841-.142,2.227,2.227,0,0,0-.9.181,2.12,2.12,0,0,0-.708.5,2.27,2.27,0,0,0-.46.757,2.819,2.819,0,0,0-.28.949v6.465H31.395ZM35.956,86.3c-9.217,0-15-6.4-15-16.627s5.781-16.648,15-16.648,14.976,6.427,14.976,16.648S45.173,86.3,35.956,86.3Zm17.065-39.94a4.2,4.2,0,0,1-1.043.13,4.419,4.419,0,0,1-1.441-.224,3.323,3.323,0,0,1-1.125-.631,2.83,2.83,0,0,1-.733-.986,3.064,3.064,0,0,1-.263-1.287,2.564,2.564,0,0,1,1.034-2.169,5.515,5.515,0,0,1,3-.908l2.843-.164v-.814a1.693,1.693,0,0,0-.578-1.388,2.517,2.517,0,0,0-1.636-.475,2.914,2.914,0,0,0-.8.106,2.191,2.191,0,0,0-.651.306,1.75,1.75,0,0,0-.465.477,1.7,1.7,0,0,0-.253.617H48.937a2.8,2.8,0,0,1,.345-1.292,3.327,3.327,0,0,1,.884-1.029,4.172,4.172,0,0,1,1.316-.68,5.4,5.4,0,0,1,1.651-.243,5.788,5.788,0,0,1,1.742.243,3.963,3.963,0,0,1,1.335.694,3.09,3.09,0,0,1,.853,1.087,3.3,3.3,0,0,1,.3,1.422v7.231H55.356V44.628h-.051a3.166,3.166,0,0,1-.566.771,3.637,3.637,0,0,1-.776.588A3.9,3.9,0,0,1,53.021,46.361ZM66.281,86.3c-7.029,0-11.807-3.682-12.14-9.463h4.576c.357,3.3,3.549,5.492,7.923,5.492,4.2,0,7.21-2.188,7.21-5.178,0-2.588-1.831-4.152-6.07-5.222L63.65,70.9c-5.937-1.472-8.636-4.173-8.636-8.614,0-5.467,4.776-9.263,11.583-9.263,6.651,0,11.292,3.817,11.47,9.306h-4.53C73.223,59.028,70.525,57,66.505,57c-4,0-6.761,2.053-6.761,5.022,0,2.342,1.74,3.728,5.981,4.8l3.482.87c6.629,1.607,9.352,4.219,9.352,8.906C78.556,82.573,73.826,86.3,66.281,86.3ZM35.956,57.13c-6.316,0-10.265,4.843-10.265,12.542,0,7.677,3.949,12.52,10.265,12.52,6.294,0,10.265-4.843,10.265-12.52C46.223,61.973,42.25,57.13,35.956,57.13Z" transform="translate(-0.25 -9.25)"/></g><g transform="translate(729.2 579.067)"><path d="M91.044,347.463v-24.07a6.182,6.182,0,0,0-6.122-6.193,6.085,6.085,0,0,0-6.122,6.193v24.07a6.16,6.16,0,0,0,6.122,6.244A6.26,6.26,0,0,0,91.044,347.463Z" transform="translate(0 -275.915)"/><path d="M813.444,347.463v-24.07a6.122,6.122,0,1,0-12.244,0v24.07a6.123,6.123,0,1,0,12.244,0Z" transform="translate(-648.691 -275.915)"/><path d="M233.9,37.581h54.364c-.816-8.326-6.326-15.285-14.295-18.937l5-7.265a.846.846,0,0,0-.153-1.265.93.93,0,0,0-1.224.306l-5.255,7.52a31.7,31.7,0,0,0-22.621-.01l-5.153-7.52c-.357-.408-.816-.663-1.224-.306a.854.854,0,0,0-.2,1.265l5.051,7.265C240.226,22.4,234.614,29.2,233.9,37.581Zm39-13.458a2.974,2.974,0,1,1-3.01,2.949A3.008,3.008,0,0,1,272.9,24.123Zm-23.335,0a2.974,2.974,0,1,1-2.959,2.949A2.964,2.964,0,0,1,249.562,24.123Z" transform="translate(-139.275)"/><path d="M272.928,387.2A6.181,6.181,0,0,0,279.05,381V367.595h5.408a4.747,4.747,0,0,0,4.8-4.775V318.7H234.9v44.119a4.747,4.747,0,0,0,4.8,4.775H245.1V381a6.142,6.142,0,0,0,6.122,6.193A6.249,6.249,0,0,0,257.347,381V367.595h9.489V381A6.122,6.122,0,0,0,272.928,387.2Z" transform="translate(-140.173 -277.262)"/></g><g transform="translate(1382 564.7)"><g transform="translate(10 26.3)"><path d="M110,65.207c-.031-.918-2.02,4.357-2.092,3.449-.592-6.734-2.01-14.744-5.571-20.255.194,1.082-.51,2.061-1.092,2.949A48.356,48.356,0,0,0,23.02,42.208a23.6,23.6,0,0,1-2.163-7.4q-5.235,5.127-5.2,18.163c-.388.765-.745,1.541-1.092,2.337C13.7,56.605,12.571,58.36,12,59.4a14.368,14.368,0,0,0-2,6.765.223.223,0,0,1,.031-.051,4.518,4.518,0,0,0,.163,1.122l1.041-.847a48.861,48.861,0,0,0-.7,8.245,48.338,48.338,0,0,0,48.335,48.335H59.4c.163,0,.327,0,.49-.01A48.212,48.212,0,0,0,94.375,108c6.7-7.02,12.469-17.214,13.979-27.265a64.518,64.518,0,0,0,.929-6.683C109.415,72.339,110.048,66.85,110,65.207ZM41.56,33.657a44.4,44.4,0,0,1,40.652,3.122A61.41,61.41,0,0,0,70,35.31a28.525,28.525,0,0,1,6.235,1.877c2.6,1.153,4.316,2.622,5.112,4.377a11.688,11.688,0,0,0-6.51.469Q95.5,50.192,94.4,61.411A7.116,7.116,0,0,0,90.345,58.3q3.168,12.306.612,20.316c-1.173-3.561-1.592-7.439-2.561-8.194,1.337,10.989-1.122,20.867-6.071,26.162a21.762,21.762,0,0,0,1.1-7.969c-5.806,8.694-11.765,11.438-19.163,11.724a27.265,27.265,0,0,1-8.3-1.316h0a26.125,26.125,0,0,1-10.347-6.561,24.017,24.017,0,0,0,13.051-2.388L65,85.972l-.02-.02a2.888,2.888,0,0,1,2.347.071c1.541-.214,2.082-1.031,1.571-2.408a10.249,10.249,0,0,0-3.326-2.786c-3.163-1.643-6.469-1.388-9.908.8a8.611,8.611,0,0,1-9.51-.184,27.848,27.848,0,0,1-5.837-5.551l-.755-1.1,2.877-3.867a37.949,37.949,0,0,1,7.1,1.429,11.594,11.594,0,0,0-1.755-7.969v-.051a37.435,37.435,0,0,1,6.632-5.081c.847-.449,2.01-3.51,1.173-4.03a20.938,20.938,0,0,1-5.275-.378l-.02.071a7.742,7.742,0,0,1-2.765-1.918l-2.877-2.806s-.867-.98-.8-1.031a16.576,16.576,0,0,1,1.99-5.53,35.46,35.46,0,0,1,5.6-5.173,23.128,23.128,0,0,0-13.336,6.612c-3.275-1.194-7.173-.939-11.643.775l.02-.02a5.49,5.49,0,0,1-.969-.571c.612-.694,1.255-1.378,1.908-2.041A44.128,44.128,0,0,1,41.56,33.657Z" transform="translate(-10 -26.3)"/></g></g><g transform="translate(1186 586)"><path d="M51.378,122.872V82.6L10,88.385v34.477H51.378Z" transform="translate(0 -71.592)"/><path d="M455.5,51.28h53.773V3L455.5,10.525Z" transform="translate(-400.681)"/><path d="M51.378,517.1H10v34.477l41.378,5.785Z" transform="translate(0 -462.38)"/><path d="M455.5,517.1v40.745l53.773,7.535V517.1Z" transform="translate(-400.681 -462.38)"/></g></g></svg>