<?xml version="1.0" standalone="no"?>
<!DOCTYPE svg PUBLIC "-//W3C//DTD SVG 20010904//EN"
 "http://www.w3.org/TR/2001/REC-SVG-20010904/DTD/svg10.dtd">
<svg version="1.0" xmlns="http://www.w3.org/2000/svg"
 width="700.000000pt" height="700.000000pt" viewBox="0 0 700.000000 700.000000"
 preserveAspectRatio="xMidYMid meet">
<metadata>
Created by potrace 1.11, written by Peter Selinger 2001-2013
</metadata>
<g transform="translate(0.000000,700.000000) scale(0.100000,-0.100000)"
fill="#000000" stroke="none">
<path d="M1360 6989 c-713 -80 -1272 -643 -1350 -1361 -14 -134 -14 -4122 0
-4256 79 -724 638 -1283 1362 -1362 134 -14 4122 -14 4256 0 724 79 1283 638
1362 1362 14 134 14 4122 0 4256 -79 724 -638 1283 -1362 1362 -118 12 -4154
12 -4268 -1z m3118 -1480 c265 -86 383 -406 241 -656 -35 -62 -121 -142 -183
-173 -43 -21 -53 -21 -223 -14 -98 3 -187 11 -198 17 -87 43 -177 146 -211
239 -79 221 15 463 220 563 116 57 226 64 354 24z m-763 -226 c-31 -89 -39
-208 -22 -306 15 -87 62 -204 108 -268 12 -17 20 -31 18 -32 -2 -2 -391 4
-864 13 -698 13 -855 18 -835 28 39 19 1605 619 1608 617 2 -2 -4 -25 -13 -52z
m-575 -789 c1642 -29 1678 -30 1747 -52 86 -27 142 -62 199 -125 62 -68 100
-146 115 -236 32 -192 -72 -391 -247 -477 l-57 -28 -1266 23 c-821 14 -1364
20 -1546 15 -243 -6 -288 -5 -344 10 -170 44 -294 163 -335 321 -65 246 78
491 323 557 58 16 98 17 321 12 140 -2 631 -12 1090 -20z m560 -1089 c789 -13
1470 -29 1512 -33 155 -19 288 -114 359 -257 33 -68 34 -73 34 -190 0 -114 -2
-123 -32 -188 -59 -125 -172 -219 -303 -253 -58 -15 -149 -14 -1229 6 -1632
30 -1869 36 -1916 50 -282 84 -413 406 -269 665 31 54 105 129 163 163 51 30
156 60 211 62 19 0 681 -11 1470 -25z m-925 -1099 c313 -83 445 -451 254 -709
-87 -117 -213 -180 -364 -180 -212 0 -380 127 -437 332 -43 156 1 321 116 437
112 111 284 160 431 120z m1449 -11 c417 -8 760 -16 762 -18 2 -2 -384 -152
-859 -334 -474 -183 -863 -330 -864 -329 -1 1 7 31 18 66 59 186 24 395 -95
566 l-45 64 162 0 c89 0 503 -7 921 -15z"/>
</g>
</svg>
