<?xml version="1.0" standalone="no"?>
<!DOCTYPE svg PUBLIC "-//W3C//DTD SVG 20010904//EN"
 "http://www.w3.org/TR/2001/REC-SVG-20010904/DTD/svg10.dtd">
<svg version="1.0" xmlns="http://www.w3.org/2000/svg"
 width="700.000000pt" height="700.000000pt" viewBox="0 0 700.000000 700.000000"
 preserveAspectRatio="xMidYMid meet">
<metadata>
Created by potrace 1.11, written by Peter Selinger 2001-2013
</metadata>
<g transform="translate(0.000000,700.000000) scale(0.100000,-0.100000)"
fill="#000000" stroke="none">
<path d="M3298 6995 c-2 -1 -48 -6 -102 -9 -55 -4 -102 -8 -105 -10 -3 -2 -35
-7 -70 -10 -35 -4 -85 -11 -110 -16 -25 -5 -57 -12 -71 -14 -185 -34 -440
-107 -606 -174 -27 -11 -74 -30 -104 -42 -97 -39 -310 -150 -439 -227 -253
-153 -452 -310 -676 -537 -473 -476 -783 -1043 -931 -1701 -31 -136 -61 -329
-72 -465 -9 -113 -8 -506 2 -600 46 -459 159 -856 357 -1252 37 -76 80 -155
94 -177 14 -23 25 -43 25 -47 0 -13 206 -307 287 -409 119 -150 381 -410 537
-535 110 -87 387 -280 402 -280 2 0 22 -11 43 -24 122 -78 415 -210 620 -280
192 -66 491 -137 643 -152 35 -3 66 -8 69 -9 29 -18 532 -26 709 -12 105 9
111 9 290 38 452 74 956 273 1335 529 129 86 143 97 237 171 555 437 965 1032
1177 1704 58 186 111 422 126 565 4 30 8 61 11 68 24 74 24 781 -1 821 -1 4
-6 33 -9 66 -3 33 -8 69 -10 80 -2 11 -11 61 -21 110 -153 819 -623 1580
-1301 2106 -96 75 -309 219 -324 219 -5 0 -10 5 -10 10 0 6 -5 10 -10 10 -6 0
-29 12 -52 26 -66 42 -290 151 -416 203 -282 115 -619 203 -912 236 -30 4 -68
8 -85 11 -35 5 -522 14 -527 9z m-267 -1702 c4 -30 3 -207 -1 -213 -3 -5 -54
-10 -113 -11 -60 -1 -125 -5 -145 -10 -20 -4 -49 -10 -63 -12 -88 -16 -194
-99 -234 -182 -51 -108 -52 -129 -55 -633 -2 -441 -6 -477 -61 -589 -45 -94
-139 -162 -247 -179 -27 -4 -47 -14 -53 -26 -13 -25 -4 -35 41 -43 138 -23
240 -109 284 -238 34 -100 34 -104 36 -628 2 -342 5 -463 16 -515 47 -224 183
-318 478 -328 60 -2 111 -9 115 -14 3 -6 6 -57 6 -113 l-1 -104 -94 1 c-163 2
-257 13 -365 45 -249 74 -383 252 -410 544 -4 39 -8 260 -9 490 -3 464 -8 509
-66 603 -30 50 -99 97 -158 109 -15 3 -34 6 -42 8 -8 2 -34 4 -57 4 l-43 1 0
168 0 168 33 -1 c55 -1 144 21 191 49 44 26 106 103 106 132 0 8 4 23 9 32 19
37 24 121 26 482 3 347 7 465 21 530 29 130 86 237 166 311 87 81 233 140 383
155 33 4 61 7 62 9 8 6 243 5 244 -2z m1254 -8 c182 -36 284 -82 371 -169 66
-66 101 -126 133 -227 31 -97 33 -125 36 -534 4 -463 8 -511 49 -600 51 -111
121 -148 311 -164 10 -1 15 -315 5 -324 -3 -3 -32 -7 -65 -10 -187 -17 -269
-106 -290 -313 -4 -33 -8 -254 -9 -490 -3 -342 -6 -444 -19 -504 -71 -342
-297 -491 -747 -492 -47 0 -92 0 -100 1 -12 1 -15 20 -15 111 0 60 2 110 5
111 3 0 55 2 115 4 61 2 119 6 131 9 12 3 38 8 58 11 83 14 183 75 229 142 34
49 63 130 72 203 4 30 9 267 10 525 3 502 5 526 57 633 45 95 152 171 261 187
41 6 47 10 47 31 0 18 -8 25 -37 33 -21 6 -44 11 -51 11 -7 0 -37 11 -66 25
-97 46 -161 133 -192 261 -14 58 -17 140 -20 499 -1 283 -6 447 -14 480 -6 28
-13 58 -15 69 -9 41 -51 111 -88 147 -81 80 -197 115 -382 118 -60 1 -111 4
-113 6 -4 3 -5 96 -3 189 l1 39 153 -6 c83 -4 166 -9 182 -12z"/>
</g>
</svg>
